<?xml version="1.0" standalone="no"?>
<!DOCTYPE svg PUBLIC "-//W3C//DTD SVG 1.1//EN" "http://www.w3.org/Graphics/SVG/1.1/DTD/svg11.dtd" >
<svg xmlns="http://www.w3.org/2000/svg" xmlns:xlink="http://www.w3.org/1999/xlink" version="1.1">
<metadata>
Created by FontForge 20170731 at Sun Apr  8 17:54:17 2018
 By Aleksey,,,
Copyright (c) 2018 by Fontastica. All rights reserved.
</metadata>
<defs>
<font id="ExensaGrotesk-Light" horiz-adv-x="1024" >
  <font-face 
    font-family="Exensa Grotesk Light"
    font-weight="400"
    font-stretch="normal"
    units-per-em="2048"
    panose-1="0 0 0 0 0 0 0 0 0 0"
    ascent="1290"
    descent="-758"
    x-height="895"
    cap-height="1290"
    bbox="-111 -398 2126 1696"
    underline-thickness="81"
    underline-position="-302"
    unicode-range="U+000D-2265"
  />
<missing-glyph horiz-adv-x="1245" 
 />
    <glyph glyph-name=".notdef" horiz-adv-x="1245" 
 />
    <glyph glyph-name="uni0000" horiz-adv-x="0" 
 />
    <glyph glyph-name="uni0000" horiz-adv-x="0" 
 />
    <glyph glyph-name="uni000D" unicode="&#xd;" horiz-adv-x="681" 
 />
    <glyph glyph-name="space" unicode=" " horiz-adv-x="368" 
 />
    <glyph glyph-name="exclam" unicode="!" horiz-adv-x="391" 
d="M227 347h-60l-61 555v388h179v-388zM94 0v175h205v-175h-205z" />
    <glyph glyph-name="quotedbl" unicode="&#x22;" horiz-adv-x="591" 
d="M94 834v456h123v-456h-123zM375 834v456h123v-456h-123z" />
    <glyph glyph-name="numbersign" unicode="#" horiz-adv-x="1245" 
d="M1184 852h-225l-96 -414h248l-15 -87h-255l-84 -351h-113l83 351h-349l-84 -351h-111l84 351h-222l16 87h228l96 414h-251l16 89h256l85 349h111l-84 -349h349l84 349h113l-84 -349h220zM496 852l-96 -414h349l96 414h-349z" />
    <glyph glyph-name="dollar" unicode="$" horiz-adv-x="1134" 
d="M609 -20v-189h-83v191q-225 21 -350.5 131t-130.5 303h128q11 -149 100.5 -228t252.5 -103v503l-127 26q-152 33 -232 111q-83 81 -83 234t116.5 249.5t325.5 103.5v181h83v-186q204 -24 312 -129t115 -287h-127q-14 259 -300 310v-497l106 -20q185 -36 267.5 -116
t82.5 -232q0 -153 -122.5 -249.5t-333.5 -106.5zM526 1210q-156 -7 -230 -70q-76 -64 -76 -174q0 -125 96 -181q38 -23 94 -38q41 -12 116 -28v491zM662 565l-53 9v-493q149 10 234 74.5t84 169.5q-1 103 -64.5 159t-200.5 81z" />
    <glyph glyph-name="percent" unicode="%" horiz-adv-x="1499" 
d="M349 653q-127 0 -208 88q-84 90 -84 243q0 151 82.5 241t209.5 90t210 -90t83 -241t-82.5 -241t-210.5 -90zM471 0h-102l661 1290h100zM350 1235q-90 0 -134.5 -65t-44.5 -186t44.5 -186.5t134.5 -65.5q178 0 178 252q0 251 -178 251zM1151 -24q-127 0 -210 90t-83 241
q0 150 83 240t210 90t210 -90t83 -241q0 -150 -83 -240t-210 -90zM1150 559q-73 0 -125 -68t-52 -184q-2 -252 177 -252q178 0 178 251q0 116 -52 184t-126 69z" />
    <glyph glyph-name="ampersand" unicode="&#x26;" horiz-adv-x="1273" 
d="M873 129q-188 -153 -385 -153q-202 0 -317.5 93t-115.5 252q0 118 70 205t228 170q-149 176 -149 312q0 135 93.5 220.5t243.5 86.5q146 0 228.5 -75t82.5 -196q0 -116 -69 -193.5t-246 -165.5l355 -394q12 15 34 44t31 41q24 34 42 64q41 67 59 144h115
q-30 -106 -78 -186t-134 -185q65 -73 110 -99.5t111 -27.5v-97q-99 -7 -154.5 19t-154.5 121zM542 1220q-89 0 -148.5 -56t-59.5 -140q0 -76 30.5 -129.5t109.5 -140.5q144 64 201.5 124t56.5 147q-1 88 -51 141.5t-139 53.5zM418 625q-117 -60 -169 -128.5t-52 -173.5
q0 -108 79 -174.5t198 -67.5q170 0 330 120z" />
    <glyph glyph-name="quotesingle" unicode="'" horiz-adv-x="337" 
d="M94 834v456h150v-456h-150z" />
    <glyph glyph-name="parenleft" unicode="(" horiz-adv-x="591" 
d="M382 -172q-141 147 -219.5 349t-78.5 413t78.5 413t219.5 349h136q-279 -318 -279 -762t279 -762h-136z" />
    <glyph glyph-name="parenright" unicode=")" horiz-adv-x="591" 
d="M210 -172h-136q279 318 279 762t-279 762h136q142 -149 218 -346q80 -205 80 -416t-78.5 -413t-219.5 -349z" />
    <glyph glyph-name="asterisk" unicode="*" horiz-adv-x="733" 
d="M436 951l166 -224l-72 -52l-161 222l-162 -226l-70 55l162 221l-265 87l29 84l258 -92v283h90v-280l264 91l27 -84z" />
    <glyph glyph-name="plus" unicode="+" horiz-adv-x="1265" 
d="M689 583v-468h-112v468h-466v112h466v468h112v-468h468v-112h-468z" />
    <glyph glyph-name="comma" unicode="," horiz-adv-x="360" 
d="M78 -225v73q67 8 90.5 46t23.5 126h-114v185h205v-199q0 -118 -45.5 -171.5t-159.5 -59.5z" />
    <glyph glyph-name="hyphen" unicode="-" horiz-adv-x="704" 
d="M117 446v152h471v-152h-471z" />
    <glyph glyph-name="period" unicode="." horiz-adv-x="360" 
d="M78 0v205h205v-205h-205z" />
    <glyph glyph-name="slash" unicode="/" horiz-adv-x="649" 
d="M98 -170h-132l540 1520h130z" />
    <glyph glyph-name="zero" unicode="0" horiz-adv-x="1204" 
d="M602 -24q-254 0 -394 174t-140 495t140 495.5t394 174.5t395.5 -174.5t141.5 -495.5t-141.5 -495t-395.5 -174zM602 1203q-190 0 -285 -141.5t-95 -416.5t95 -416.5t285 -141.5t285 141.5t95 416.5t-95 416.5t-285 141.5z" />
    <glyph glyph-name="one" unicode="1" horiz-adv-x="591" 
d="M285 0v1014h-264v83q133 2 208.5 49.5t116.5 151.5h90v-1298h-151z" />
    <glyph glyph-name="two" unicode="2" horiz-adv-x="1034" 
d="M53 0v133l372 262q96 69 153 127q31 32 107 122q73 84 100 178t10 170.5t-68 130.5q-75 79 -214 79q-142 0 -221 -88t-78 -241q0 -52 9 -100l-145 7q-12 72 -12 107q0 197 121.5 312.5t334.5 115.5q205 -1 318.5 -107t113.5 -273q0 -158 -94.5 -292t-297.5 -283
l-330 -242l769 4v-122h-948z" />
    <glyph glyph-name="three" unicode="3" horiz-adv-x="1056" 
d="M531 -24q-218 0 -348.5 116t-137.5 320l146 -7q7 -153 98.5 -235t242.5 -83q153 0 237 67q88 66 88 189q0 116 -86 185.5t-201 69.5q-95 0 -158 -5v111q60 -5 150 -5q113 0 191.5 61t77.5 179q0 126 -77 195t-222 69q-144 0 -230.5 -88.5t-89.5 -242.5l-142 5
q5 196 131 317t333 121q212 0 327.5 -96.5t116.5 -260.5q0 -41 -4 -72.5t-15 -64t-31.5 -57.5t-51.5 -47.5t-77.5 -38.5t-107.5 -27q101 -13 166 -41.5t96.5 -73t42 -90.5t10.5 -112q0 -161 -127 -259.5t-348 -98.5z" />
    <glyph glyph-name="four" unicode="4" horiz-adv-x="1120" 
d="M878 353v-353h-144v353h-701v130l649 807h196v-824h228v-113h-228zM734 1173l-559 -707h559v707z" />
    <glyph glyph-name="five" unicode="5" horiz-adv-x="1075" 
d="M541 -25q-223 0 -346 108.5t-119 311.5h142q5 -152 91.5 -231t238.5 -79q153 1 241.5 91.5t88.5 238.5q0 147 -88 236.5t-235 89.5q-212 0 -304 -156h-151q69 372 81 705h768v-128h-660q-3 -74 -23 -222.5t-42 -246.5q82 96 161.5 126.5t198.5 30.5q201 0 318.5 -120.5
t117.5 -314.5q0 -195 -129.5 -317.5t-349.5 -122.5z" />
    <glyph glyph-name="six" unicode="6" horiz-adv-x="1122" 
d="M593 -25q-253 0 -389 170t-136 483q0 318 138.5 502.5t395.5 184.5q188 0 306 -97t141 -267h-142q-44 255 -307 255q-107 0 -181 -31t-126 -104.5t-75 -196.5t-21 -304q25 73 57 124.5t66.5 81t83.5 46t95 21.5t113 5q206 0 328.5 -119.5t122.5 -314.5t-128 -317
t-342 -122zM584 739q-155 0 -245.5 -88t-90.5 -237q0 -148 93 -237.5t247 -89.5t244.5 88t90.5 238t-91 238t-248 88z" />
    <glyph glyph-name="seven" unicode="7" horiz-adv-x="987" 
d="M501 0h-163q7 340 124 636t338 526h-761v128h909v-138q-222 -231 -332 -508t-115 -644z" />
    <glyph glyph-name="eight" unicode="8" horiz-adv-x="1079" 
d="M541 -25q-231 0 -361 96.5t-129 261.5q0 118 85 201t241 112q-151 54 -214 130t-63 189q0 158 121.5 254.5t318.5 95.5q198 0 319 -96t120 -254q0 -113 -63 -189t-214 -130q157 -29 240.5 -111.5t83.5 -200.5q0 -166 -127.5 -262.5t-357.5 -96.5zM755 1148
q-80 68 -214 68q-136 0 -216.5 -68.5t-80.5 -191.5t80.5 -190t215.5 -67t216.5 67.5t80.5 190.5q-2 124 -82 191zM785 533q-84 65 -244 65q-158 0 -246.5 -66t-87.5 -191q1 -127 88 -195.5t245 -68.5q157 0 245.5 69t88.5 196q0 123 -89 191z" />
    <glyph glyph-name="nine" unicode="9" horiz-adv-x="1122" 
d="M530 1315q253 0 389 -170t136 -483q0 -318 -138.5 -502.5t-395.5 -184.5q-188 0 -306 97t-141 267h142q44 -255 307 -255q107 0 181 31t126 104.5t75 196.5t21 304q-25 -73 -57 -124.5t-66.5 -81t-83.5 -46t-95 -21.5t-113 -5q-206 0 -328.5 119.5t-122.5 314.5t128 317
t342 122zM539 551q155 0 245.5 88t90.5 237q0 148 -93 237.5t-247 89.5t-244.5 -88t-90.5 -238t91 -238t248 -88z" />
    <glyph glyph-name="colon" unicode=":" horiz-adv-x="360" 
d="M78 676v178h205v-178h-205zM78 0v178h205v-178h-205z" />
    <glyph glyph-name="semicolon" unicode=";" horiz-adv-x="360" 
d="M78 678v176h205v-176h-205zM78 -225v69q66 7 90 43t24 120h-114v177h205v-190q0 -112 -45 -162.5t-160 -56.5z" />
    <glyph glyph-name="less" unicode="&#x3c;" horiz-adv-x="948" 
d="M82 550v170l799 421v-131l-719 -375l719 -375v-133z" />
    <glyph glyph-name="equal" unicode="=" horiz-adv-x="1294" 
d="M123 757v113h1048v-113h-1048zM123 401v114h1048v-114h-1048z" />
    <glyph glyph-name="greater" unicode="&#x3e;" horiz-adv-x="948" 
d="M68 127v133l716 375l-716 375v131l796 -421v-170z" />
    <glyph glyph-name="question" unicode="?" horiz-adv-x="999" 
d="M668 538q-59 -47 -85.5 -87.5t-31.5 -97.5h-131q3 83 41.5 147.5t136.5 135.5q8 5 15 10.5t11.5 9.5t5.5 5l46 41q110 98 110 250q0 105 -76 177.5t-208 72.5q-140 0 -220 -87.5t-80 -241.5q0 -50 11 -100l-145 7q-11 57 -11 107q-1 196 122 312t334 116q206 -1 318 -105
t111 -271q0 -58 -15.5 -106.5t-52.5 -97t-83.5 -92.5t-122.5 -105zM390 0v175h178v-175h-178z" />
    <glyph glyph-name="at" unicode="@" horiz-adv-x="1556" 
d="M1123 79q-79 0 -127.5 42.5t-73.5 134.5q-55 -96 -117 -136.5t-146 -40.5q-115 0 -183 72.5t-68 202.5q0 117 46 217.5t132.5 161.5t193.5 61q166 0 233 -171l41 154h119l-120 -475q-18 -67 5.5 -105.5t87.5 -38.5q120 0 188 108t68 313q0 219 -150.5 360.5t-401.5 142.5
q-203 0 -359.5 -88.5t-241 -248t-84.5 -364.5q0 -176 81 -311.5t219 -207t308 -71.5q239 0 435 88l31 -59q-192 -109 -475 -109q-197 0 -353.5 79.5t-249.5 237t-93 368.5q0 162 57 303t158 243t247.5 160.5t319.5 58.5q148 0 270.5 -44.5t205 -122t128 -184.5t45.5 -232
q0 -243 -106 -371t-270 -128zM949 640q-46 74 -157 74q-71 0 -130.5 -52t-91.5 -134t-32 -172q0 -73 24.5 -118t62 -58.5t81 -10t82.5 21t67 41.5q76 68 102 177l12 50q26 110 -20 181z" />
    <glyph glyph-name="A" unicode="A" horiz-adv-x="1306" 
d="M1119 0l-161 390h-629l-155 -390h-140l526 1290h176l537 -1290h-154zM647 1154l-275 -655h542z" />
    <glyph glyph-name="B" unicode="B" horiz-adv-x="1210" 
d="M676 0h-551v1290h526q228 0 338.5 -87.5t110.5 -247.5q0 -48 -4.5 -81t-20 -68t-44.5 -58.5t-79 -44t-122 -32.5q99 -16 162.5 -44t94.5 -72t41.5 -91t10.5 -118q0 -164 -118.5 -255t-344.5 -91zM658 1177h-391v-460h391q143 0 218 57.5t76 171.5q1 110 -75 170.5
t-219 60.5zM672 612h-405v-499h405q153 0 237 64.5t84 183.5q0 118 -84.5 184.5t-236.5 66.5z" />
    <glyph glyph-name="C" unicode="C" horiz-adv-x="1363" 
d="M698 -25q-270 0 -451 187q-181 185 -181 483q0 146 48.5 271t132.5 212t200.5 136.5t250.5 49.5q239 0 391 -119t196 -330h-139q-35 157 -152.5 244t-297.5 87q-211 0 -344.5 -152t-133.5 -399t133.5 -398.5t344.5 -151.5q180 0 298.5 92t152.5 250h139
q-44 -215 -196.5 -338t-391.5 -124z" />
    <glyph glyph-name="D" unicode="D" horiz-adv-x="1316" 
d="M589 0h-464v1290h464q308 0 486 -172.5t178 -472.5t-178 -472.5t-486 -172.5zM579 1177h-306v-1064h306q251 0 391 140t139 392q0 251 -140.5 391.5t-389.5 140.5z" />
    <glyph glyph-name="E" unicode="E" horiz-adv-x="1122" 
d="M125 0v1290h901v-115h-759v-454h692v-113h-692v-493h777v-115h-919z" />
    <glyph glyph-name="F" unicode="F" horiz-adv-x="1056" 
d="M273 1175v-476h628v-116h-628v-583h-148v1290h881v-115h-733z" />
    <glyph glyph-name="G" unicode="G" horiz-adv-x="1409" 
d="M701 -24q-138 0 -256 49t-201.5 136t-130.5 212t-47 272q0 298 177.5 483.5t458.5 185.5q284 0 459 -186q46 -48 73 -106t50 -142h-133q-52 151 -169 233t-281 82q-220 0 -352.5 -150.5t-132.5 -399.5t132.5 -399.5t353.5 -150.5q194 0 319.5 116t142.5 316l-443 1v130
h576v-146q-31 -245 -191 -390.5t-405 -145.5z" />
    <glyph glyph-name="H" unicode="H" horiz-adv-x="1347" 
d="M1074 0v601h-801v-601h-148v1290h148v-562h801v562h149v-1290h-149z" />
    <glyph glyph-name="I" unicode="I" horiz-adv-x="428" 
d="M140 0v1290h148v-1290h-148z" />
    <glyph glyph-name="J" unicode="J" horiz-adv-x="1044" 
d="M489 -25q-208 0 -330 113.5t-134 328.5h140q13 -161 96.5 -244.5t230.5 -83.5q299 0 299 350v851h147v-855q0 -224 -118 -342t-331 -118z" />
    <glyph glyph-name="K" unicode="K" horiz-adv-x="1196" 
d="M1004 0l-557 637l-174 -174v-463h-148v1290h148v-681l671 681h169l-556 -564l622 -726h-175z" />
    <glyph glyph-name="L" unicode="L" horiz-adv-x="1073" 
d="M125 0v1290h150v-1175h747v-115h-897z" />
    <glyph glyph-name="M" unicode="M" horiz-adv-x="1527" 
d="M1255 0v1140h-38l-388 -1140h-128l-402 1140h-39v-1140h-135v1290h262l375 -1122l383 1122h258v-1290h-148z" />
    <glyph glyph-name="N" unicode="N" horiz-adv-x="1306" 
d="M1063 0l-802 1072v-1072h-136v1290h140l781 -1050v1050h136v-1290h-119z" />
    <glyph glyph-name="O" unicode="O" horiz-adv-x="1411" 
d="M706 -24q-139 0 -258 49t-203 136t-131.5 212t-47.5 272q0 196 81.5 349t227 236.5t332.5 83.5q283 0 462 -186q179 -185 179 -483q0 -297 -179.5 -483t-462.5 -186zM706 1195q-222 0 -355 -150.5t-133 -399.5t133 -399.5t356 -150.5q224 0 355.5 149.5t130.5 400.5
q0 250 -132.5 400t-354.5 150z" />
    <glyph glyph-name="P" unicode="P" horiz-adv-x="1138" 
d="M594 495h-323v-495h-146v1290h469q240 0 371 -104.5t131 -290.5q0 -187 -130.5 -293.5t-371.5 -106.5zM590 1177h-319v-568h319q180 0 283.5 76t103.5 217q0 140 -102.5 207.5t-284.5 67.5z" />
    <glyph glyph-name="Q" unicode="Q" horiz-adv-x="1411" 
d="M1173 171l127 -139l-88 -73l-129 137q-86 -61 -194 -91t-220 -27t-224.5 51t-199.5 138q-179 187 -179 483q0 196 81.5 349t227 236.5t332.5 83.5q283 0 462 -186q179 -185 179 -475q0 -289 -175 -487zM706 1200q-222 0 -355 -151t-133 -400q0 -251 128.5 -405
t350.5 -154q171 0 304 96l-258 286l91 78l251 -281q108 155 108 394t-133.5 388t-353.5 149z" />
    <glyph glyph-name="R" unicode="R" horiz-adv-x="1226" 
d="M984 0q-16 10 -26 75q-4 31 -15 197q-17 262 -278 262h-396v-534h-144v1290h524q240 0 363 -98t123 -276q0 -61 -6 -102t-24.5 -81.5t-53 -66.5t-92 -46t-140.5 -29q46 -9 81.5 -19t62 -24t45.5 -26t31.5 -32t20 -34t12.5 -40.5t6.5 -43l4.5 -49.5q1 -17 2 -25
q13 -161 26 -225q8 -43 25 -73h-152zM639 1177h-370v-533h370q169 0 257.5 66.5t88.5 199.5q0 129 -88.5 198t-257.5 69z" />
    <glyph glyph-name="S" unicode="S" horiz-adv-x="1148" 
d="M578 -24q-154 0 -270.5 45t-187 142t-75.5 236h130q4 -54 21.5 -94t39 -63.5t63.5 -59.5q115 -99 283 -99q165 0 260 64t95 174q0 106 -63.5 160t-204.5 80l-265 51q-318 60 -318 331q0 168 125 269.5t349 101.5q227 0 357.5 -107t137.5 -310h-132q-9 159 -105.5 236
t-259.5 77q-157 0 -243.5 -66t-86.5 -179q0 -108 58.5 -155t196.5 -74l242 -47q185 -36 268.5 -119t83.5 -240q0 -158 -134.5 -256t-364.5 -98z" />
    <glyph glyph-name="T" unicode="T" horiz-adv-x="1208" 
d="M672 1175v-1175h-146v1175h-483v115h1122v-115h-493z" />
    <glyph glyph-name="U" unicode="U" horiz-adv-x="1261" 
d="M631 -25q-246 0 -384 127.5t-138 387.5v800h146v-802q0 -195 94.5 -295t281.5 -100q184 0 282 100.5t98 291.5v805h144v-800q0 -257 -139 -386t-385 -129z" />
    <glyph glyph-name="V" unicode="V" horiz-adv-x="1280" 
d="M726 0h-174l-518 1290h148l464 -1145l454 1145h146z" />
    <glyph glyph-name="W" unicode="W" horiz-adv-x="1671" 
d="M1314 0h-184l-292 1110l-298 -1110h-183l-327 1290h139l293 -1152l306 1152h142l312 -1156l287 1156h133z" />
    <glyph glyph-name="X" unicode="X" horiz-adv-x="1245" 
d="M1033 0l-419 562l-412 -562h-159l498 664l-455 626h170l371 -515l370 515h160l-455 -614l502 -676h-171z" />
    <glyph glyph-name="Y" unicode="Y" horiz-adv-x="1224" 
d="M682 508v-508h-138v508l-505 782h159l425 -650l412 650h151z" />
    <glyph glyph-name="Z" unicode="Z" horiz-adv-x="1146" 
d="M61 0v127l825 1048h-814v115h993v-127l-825 -1048h845v-115h-1024z" />
    <glyph glyph-name="bracketleft" unicode="[" horiz-adv-x="569" 
d="M135 -172v1524h344v-96h-204v-1332h204v-96h-344z" />
    <glyph glyph-name="backslash" unicode="\" horiz-adv-x="649" 
d="M553 -170l-540 1520h132l538 -1520h-130z" />
    <glyph glyph-name="bracketright" unicode="]" horiz-adv-x="569" 
d="M88 -172v96h204v1332h-204v96h346v-1524h-346z" />
    <glyph glyph-name="asciicircum" unicode="^" horiz-adv-x="772" 
d="M602 877l-217 326l-217 -326h-132l274 413h150l276 -413h-134z" />
    <glyph glyph-name="underscore" unicode="_" horiz-adv-x="780" 
d="M41 -246v133h698v-133h-698z" />
    <glyph glyph-name="grave" unicode="`" 
d="M565 1032l-194 258h181l109 -258h-96z" />
    <glyph glyph-name="a" unicode="a" horiz-adv-x="928" 
d="M699 1l3 167q-30 -64 -66.5 -104t-85.5 -58.5t-94 -24t-115 -5.5q-119 0 -194 65.5t-75 175.5q0 112 90 182t271 91l269 31v53q0 105 -64 175t-168 70q-100 0 -172.5 -48.5t-73.5 -138.5h-124q-1 122 98.5 205t256.5 83q170 0 276.5 -88.5t106.5 -248.5v-582h-139z
M702 440l-230 -25q-132 -14 -195 -57.5t-63 -124.5q0 -78 47.5 -121.5t130.5 -43.5q142 0 226 82t84 247v43z" />
    <glyph glyph-name="b" unicode="b" horiz-adv-x="1077" 
d="M608 -25q-54 0 -85 2t-72.5 13t-70.5 32.5t-62.5 61t-64.5 98.5v-182h-136v1290h140l-4 -588q27 58 58.5 97.5t61 61t72 32.5t76 14t89.5 3q189 0 298.5 -129.5t109.5 -339.5q0 -209 -110 -337.5t-300 -128.5zM572 803q-76 0 -138.5 -31t-100.5 -82t-59 -116t-21 -133
t20.5 -133t59 -116t100.5 -82t139 -31q143 0 226 98.5t83 263.5q0 166 -83 264t-226 98z" />
    <glyph glyph-name="c" unicode="c" horiz-adv-x="997" 
d="M510 -25q-198 0 -324.5 129.5t-126.5 341.5q0 213 126.5 343.5t324.5 130.5q171 0 278.5 -85.5t140.5 -231.5h-119q-25 102 -102 155.5t-195 53.5q-139 0 -234 -101.5t-95 -264.5q0 -162 94.5 -263t234.5 -102q119 -1 195.5 52.5t101.5 157.5h119q-33 -146 -141 -231
t-278 -85z" />
    <glyph glyph-name="d" unicode="d" horiz-adv-x="1075" 
d="M468 -25q-190 0 -300 128.5t-110 337.5q0 211 109.5 340.5t298.5 128.5q56 0 89.5 -3t76 -14t72 -32.5t61 -61t58.5 -97.5l-4 588h140v-1290h-136v182q-31 -59 -64.5 -98.5t-62.5 -61t-70.5 -32.5t-72.5 -13t-85 -2zM504 803q-143 0 -226 -98t-83 -264q0 -165 83 -263.5
t226 -98.5q77 0 139 31t100.5 82t59 116t20.5 133t-21 133t-59 116t-100.5 82t-138.5 31z" />
    <glyph glyph-name="e" unicode="e" horiz-adv-x="1001" 
d="M199 422q7 -153 98 -248t225 -95q123 -1 196.5 39.5t104.5 144.5h110q-35 -121 -139 -202q-109 -86 -292 -86q-188 0 -315.5 127.5t-127.5 333.5q0 211 129 347.5t329 136.5q197 0 311 -124t114 -322v-52h-743zM719 733q-73 89 -205 89q-128 0 -210.5 -88t-102.5 -234
h607q-5 133 -89 233z" />
    <glyph glyph-name="f" unicode="f" horiz-adv-x="583" 
d="M622 1099q-23 59 -60 85.5t-100 26.5q-164 0 -164 -183v-144h266v-91h-266v-793h-139v793h-145v91h145v124q0 143 77.5 225t216.5 82q202 0 267 -185z" />
    <glyph glyph-name="g" unicode="g" horiz-adv-x="983" 
d="M504 -351q-162 0 -268 61q-117 66 -131 181h129q12 -75 103 -118q76 -35 177 -35q164 0 246 106q41 52 58 100.5t17 125.5v80h-33q-42 -85 -123 -127t-182 -42q-205 0 -325 136q-110 125 -110 321q0 193 98 323q119 157 354 157q186 0 278 -157h31v135h134v-845
q0 -402 -453 -402zM760 703q-78 114 -239 114t-245 -110q-72 -96 -72 -250q0 -159 62 -253q80 -124 241 -124q165 0 249 124q72 106 72 258q0 143 -68 241z" />
    <glyph glyph-name="h" unicode="h" horiz-adv-x="1015" 
d="M769 0v538q0 126 -61 196.5t-178 70.5q-118 0 -194.5 -82.5t-76.5 -212.5v-510h-142v1290h142v-558q21 52 48.5 87t52.5 52.5t64 26.5t65 10.5t74 1.5h24q162 0 243 -94.5t81 -262.5v-553h-142z" />
    <glyph glyph-name="i" unicode="i" horiz-adv-x="401" 
d="M124 1128v162h154v-162h-154zM128 0v884h148v-884h-148z" />
    <glyph glyph-name="j" unicode="j" horiz-adv-x="401" 
d="M134 1130v160h155v-160h-155zM43 -369q-63 0 -89.5 5.5t-64.5 28.5v95q66 -33 135 -33q57 0 85.5 33t28.5 93v1033h149v-1021q0 -119 -60.5 -176.5t-183.5 -57.5z" />
    <glyph glyph-name="k" unicode="k" horiz-adv-x="980" 
d="M786 0l-377 453l-150 -129v-324h-142v1290h142v-845l494 439h167l-406 -358l435 -526h-163z" />
    <glyph glyph-name="l" unicode="l" horiz-adv-x="401" 
d="M129 0v1290h146v-1290h-146z" />
    <glyph glyph-name="m" unicode="m" horiz-adv-x="1587" 
d="M1342 0v544q0 133 -55 202t-166 68q-111 0 -182.5 -83t-71.5 -215v-516h-138v544q0 133 -55.5 202t-166.5 68q-109 0 -180 -83t-71 -215v-516h-139v894h139v-161q23 53 49 88.5t49 55t57 29.5t61 12t72 2q111 1 176 -51t109 -182q47 112 142 172.5t203 60.5
q156 1 231.5 -93.5t75.5 -267.5v-559h-139z" />
    <glyph glyph-name="n" unicode="n" horiz-adv-x="1015" 
d="M769 0v544q0 127 -61 198.5t-178 71.5q-118 0 -194.5 -83.5t-76.5 -214.5v-516h-142v894h142v-158q31 64 62.5 102.5t72 55.5t74 21.5t93.5 4.5q164 1 257 -96.5t93 -264.5v-559h-142z" />
    <glyph glyph-name="o" unicode="o" horiz-adv-x="1032" 
d="M514 -24q-199 0 -327 131.5t-128 340.5q0 208 128.5 340t327.5 132q197 0 328 -134q130 -133 130 -340q0 -206 -129.5 -338t-329.5 -132zM515 816q-148 0 -231 -102q-80 -102 -80 -268q0 -167 82.5 -268.5t227.5 -102.5t229.5 102.5t84.5 270.5q0 166 -83 267t-230 101z
" />
    <glyph glyph-name="p" unicode="p" horiz-adv-x="1077" 
d="M608 917q190 0 300 -128.5t110 -337.5q0 -211 -109.5 -340.5t-298.5 -128.5q-56 0 -89.5 3t-76 14t-72 32.5t-61 61t-58.5 97.5l4 -588h-140v1290h136v-182q31 59 64.5 98.5t62.5 61t70.5 32.5t72.5 13t85 2zM572 89q143 0 226 98t83 264q0 165 -83 263.5t-226 98.5
q-77 0 -139 -31t-100.5 -82t-59 -116t-20.5 -133t21 -133t59 -116t100.5 -82t138.5 -31z" />
    <glyph glyph-name="q" unicode="q" horiz-adv-x="1075" 
d="M469 917q54 0 85 -2t72.5 -13t70.5 -32.5t62.5 -61t64.5 -98.5v182h136v-1290h-140l4 588q-27 -58 -58.5 -97.5t-61 -61t-72 -32.5t-76 -14t-89.5 -3q-189 -1 -298.5 128.5t-109.5 340.5q0 209 110 337.5t300 128.5zM505 89q76 0 138.5 31t100.5 82t59 116t21 133
t-20.5 133t-59 116t-100.5 82t-139 31q-143 0 -226 -98.5t-83 -263.5q0 -166 83 -264t226 -98z" />
    <glyph glyph-name="r" unicode="r" horiz-adv-x="677" 
d="M353 684q-92 -93 -92 -288v-395h-142v892h138v-197q122 218 383 216v-127q-193 -4 -287 -101z" />
    <glyph glyph-name="s" unicode="s" horiz-adv-x="886" 
d="M455 -25q-171 0 -277.5 73t-124.5 216h115q35 -196 280 -196q113 0 180.5 39.5t67.5 113.5q0 72 -46 107.5t-146 52.5l-160 28q-135 23 -199.5 83t-64.5 160q0 121 93 194.5t260 73.5t264.5 -71.5t115.5 -212.5h-109q-20 102 -90.5 146.5t-191.5 44.5q-94 0 -154 -42
t-60 -114q0 -61 41.5 -98.5t117.5 -49.5l176 -29q150 -24 217.5 -82.5t67.5 -174.5q0 -118 -100.5 -190t-272.5 -72z" />
    <glyph glyph-name="t" unicode="t" horiz-adv-x="626" 
d="M156 198v599h-144v91h150v255h135v-255h268v-91h-268v-578q0 -64 28.5 -97.5t75 -35.5t95 10t98.5 36v-88q-45 -31 -102 -50.5t-116 -20.5t-108 18t-80.5 72t-31.5 135z" />
    <glyph glyph-name="u" unicode="u" horiz-adv-x="1005" 
d="M241 895v-544q0 -127 61 -198.5t178 -71.5q118 0 194.5 83.5t76.5 214.5v516h142v-894h-142v158q-25 -52 -52 -86.5t-51.5 -54t-60 -29t-63 -12t-75.5 -2.5q-164 -1 -257 96.5t-93 264.5v559h142z" />
    <glyph glyph-name="v" unicode="v" horiz-adv-x="931" 
d="M540 0h-148l-369 895h147l305 -746l300 746h134z" />
    <glyph glyph-name="w" unicode="w" horiz-adv-x="1314" 
d="M1013 0h-142l-209 742l-216 -742h-142l-283 895h137l234 -750l212 750h120l215 -750l231 750h123z" />
    <glyph glyph-name="x" unicode="x" horiz-adv-x="956" 
d="M762 0l-293 373l-290 -373h-146l367 461l-338 434h160l257 -333l254 333h144l-329 -426l373 -469h-159z" />
    <glyph glyph-name="y" unicode="y" horiz-adv-x="942" 
d="M398 -344h-134l143 339l-384 900h147l310 -737l303 737h136z" />
    <glyph glyph-name="z" unicode="z" horiz-adv-x="876" 
d="M61 0v112l585 682h-568v101h727v-112l-599 -682h611v-101h-756z" />
    <glyph glyph-name="braceleft" unicode="{" horiz-adv-x="600" 
d="M398 -172q-93 0 -138 47.5t-45 146.5v348q0 96 -23.5 133t-99.5 37h-37v99h37q75 0 99 37.5t24 133.5v348q0 99 45 146.5t138 47.5h112v-96h-70q-87 0 -87 -96v-356q0 -47 -9 -78.5t-34.5 -59t-74.5 -45.5t-126 -31q102 -17 156 -46t71 -67t17 -103v-354q0 -96 87 -96h70
v-96h-112z" />
    <glyph glyph-name="bar" unicode="|" horiz-adv-x="403" 
d="M125 -170v1520h154v-1520h-154z" />
    <glyph glyph-name="braceright" unicode="}" horiz-adv-x="600" 
d="M508 540q-75 0 -99 -37t-24 -133v-348q0 -99 -45 -146.5t-138 -47.5h-114v96h70q87 0 87 96v354q0 48 9 79.5t35 59t74 46t124 31.5q-140 24 -191 73t-51 141v356q0 96 -87 96h-70v96h114q93 0 138 -47.5t45 -146.5v-348q0 -97 23.5 -134t99.5 -37h37v-99h-37z" />
    <glyph glyph-name="asciitilde" unicode="~" horiz-adv-x="802" 
d="M544 418q-58 0 -137 65q-159 130 -213 32q-16 -30 -22 -91h-76q4 120 45.5 186t105.5 66q72 0 150 -65q88 -74 136 -74q48 -1 70 33.5t27 99.5h79q-4 -123 -46.5 -188t-118.5 -64z" />
    <glyph glyph-name="exclamdown" unicode="&#xa1;" horiz-adv-x="391" 
d="M96 888v175h205v-175h-205zM108 -227v388l61 555h60l58 -557v-386h-179z" />
    <glyph glyph-name="cent" unicode="&#xa2;" 
d="M574 -17v-184h-85v184q-194 17 -312 143.5t-118 319.5q0 192 117.5 319t312.5 146v199h85v-199q172 -15 271.5 -105.5t117.5 -238.5h-116q-27 207 -273 245v-729q128 19 194 74.5t83 171.5h112q-18 -150 -117 -240t-272 -106zM489 810q-140 -22 -215.5 -118t-76.5 -246
q0 -149 76.5 -245t215.5 -118v727z" />
    <glyph glyph-name="sterling" unicode="&#xa3;" horiz-adv-x="1157" 
d="M831 -24q-152 0 -351 165q-46 -87 -105.5 -126.5t-141.5 -39.5q-92 1 -150 52.5t-58 136.5t57.5 140t138.5 54q81 0 180 -47q-1 143 -69 293h-210v85h169q-57 139 -57 240q0 177 107.5 281.5t296.5 104.5q187 0 297 -107t114 -298l-126 -6q-6 140 -76 219q-73 83 -207 83
q-129 0 -196 -75t-66 -194q0 -116 50 -248h324v-85h-291q78 -212 46 -366q57 -44 105 -75q111 -70 216 -70q180 1 186 241l108 -5q0 -171 -74.5 -262t-216.5 -91zM243 279q-59 0 -93.5 -29t-34.5 -83t34 -84t86 -30q121 0 156 162q-87 64 -148 64z" />
    <glyph glyph-name="yen" unicode="&#xa5;" horiz-adv-x="1177" 
d="M724 651h296v-88h-362v-187h362v-88h-362v-288h-138v288h-362v88h362v187h-362v88h294l-421 639h159l408 -630l397 630h150z" />
    <glyph glyph-name="section" unicode="&#xa7;" horiz-adv-x="913" 
d="M706 259q94 -87 94 -196q0 -110 -95 -185t-252 -75q-156 0 -257 77t-118 214l105 7q20 -98 96 -153t175 -55q97 0 158 42t61 113q1 67 -24.5 102.5t-94.5 64.5l-273 120q-124 54 -183 121t-59 154q0 82 39 142.5t127 106.5q-94 87 -94 199q0 111 95 184t253 73
q156 0 256.5 -77t118.5 -214l-106 -7q-20 98 -96 153t-174 55q-96 0 -158 -40.5t-62 -111.5q0 -66 26.5 -102t93.5 -65l273 -122q127 -56 184 -124t57 -173q0 -66 -43 -125t-123 -103zM313 799l-8 7q-145 -55 -145 -167q0 -67 40.5 -109.5t131.5 -84.5l260 -121q9 -7 21 -7
q138 46 138 164q0 66 -41 108t-131 84z" />
    <glyph glyph-name="dieresis" unicode="&#xa8;" 
d="M287 1081v193h145v-193h-145zM592 1081v193h143v-193h-143z" />
    <glyph glyph-name="copyright" unicode="&#xa9;" horiz-adv-x="1482" 
d="M741 -24q-282 0 -475 190q-194 191 -194 479q0 189 89.5 343t242.5 240t338 86t338 -86t242.5 -240t89.5 -343q0 -142 -52.5 -266.5t-142 -212.5t-213.5 -139t-263 -51zM741 1254q-253 0 -430 -174q-176 -173 -176 -435q0 -172 81 -311.5t220 -218t306 -78.5
q125 0 237 46.5t193 126.5t128.5 193.5t47.5 241.5q0 172 -81 312t-220 218.5t-306 78.5zM749 274q-151 -2 -248 103q-99 105 -99 268t98.5 266.5t248.5 103.5q129 0 212 -63t109 -175h-63q-22 88 -89.5 136.5t-169.5 49.5q-122 1 -200 -88t-78 -230q0 -142 77.5 -230.5
t200.5 -88.5q102 0 170 51.5t90 141.5h63q-27 -114 -109.5 -179t-212.5 -66z" />
    <glyph glyph-name="ordfeminine" unicode="&#xaa;" horiz-adv-x="796" 
d="M556 636l3 123q-21 -47 -48 -76.5t-63.5 -43t-68.5 -17.5t-84 -4q-87 -1 -142 47.5t-55 127.5q0 170 263 201l198 23v39q0 78 -46 129t-123 51q-74 0 -127.5 -35.5t-54.5 -102.5h-91q-1 90 72 151.5t189 61.5q125 0 202.5 -65t77.5 -183v-427h-102zM559 958l-167 -18
q-99 -11 -144.5 -42.5t-45.5 -91.5q0 -57 35 -88.5t96 -31.5q103 0 164.5 60t61.5 181v31z" />
    <glyph glyph-name="guillemotleft" unicode="&#xab;" horiz-adv-x="831" 
d="M94 384v125l288 248v-127l-210 -184l210 -181v-129zM449 384v125l288 248v-127l-210 -184l210 -181v-129z" />
    <glyph glyph-name="registered" unicode="&#xae;" horiz-adv-x="825" 
d="M670 1210q106 -103 106 -261q0 -156 -105.5 -260.5t-258.5 -104.5t-257.5 104.5t-104.5 260.5t104.5 260.5t257.5 104.5q151 0 258 -104zM646 708q96 96 96 241t-95 241t-235 96t-235 -96t-95 -241t95 -241t235 -96q138 0 234 96zM301 937h83q7 -1 18.5 -4t12.5 -3h-114
v-158h-16v357h141q65 0 97 -26.5t32 -71.5q0 -43 -38 -62q20 25 20 59q1 45 -29.5 69t-84.5 24h-122v-184zM384 937q-2 1 -5 1t-4 1q100 10 142 30q-29 -32 -94 -32h-39zM430 930q52 0 75 -30q-25 14 -90 30h15zM527 790q-1 7 -1.5 26.5t-0.5 25.5q-2 36 -20 58
q33 -17 36 -53q1 -13 3 -29t3 -25t2 -14q2 -4 2 -7h-20q-2 4 -4 18z" />
    <glyph glyph-name="macron" unicode="&#xaf;" 
d="M248 1055v131h526v-131h-526z" />
    <glyph glyph-name="degree" unicode="&#xb0;" horiz-adv-x="694" 
d="M550 836q-83 -80 -204 -80t-203 80t-82 199q0 118 83 199t203 81t203 -81t83 -199q0 -119 -83 -199zM346 1229q-84 0 -137 -56q-51 -55 -51 -137q0 -83 52 -139t136 -56t137 56t53 139t-53.5 138t-136.5 55z" />
    <glyph glyph-name="plusminus" unicode="&#xb1;" horiz-adv-x="1265" 
d="M686 736v-395h-109v395h-468v110h468v395h109v-395h471v-110h-471zM109 80v111h1048v-111h-1048z" />
    <glyph glyph-name="acute" unicode="&#xb4;" 
d="M457 1032h-96l109 258h181z" />
    <glyph glyph-name="paragraph" unicode="&#xb6;" horiz-adv-x="1028" 
d="M798 0v1191h-178v-1191h-103v577q-231 0 -353.5 94.5t-122.5 261.5t119.5 262t338.5 95h402v-1290h-103z" />
    <glyph glyph-name="periodcentered" unicode="&#xb7;" horiz-adv-x="374" 
d="M84 420v205h205v-205h-205z" />
    <glyph glyph-name="cedilla" unicode="&#xb8;" horiz-adv-x="1173" 
d="M363 -288l21 41q91 -64 196 -64q126 0 126 87q0 52 -42 73q-67 34 -163 -5l-19 10l113 169h41l-104 -140q83 23 134 24t81 -16q42 -18 58 -60.5t1.5 -86t-54.5 -65.5q-46 -25 -111 -34.5t-142.5 6.5t-135.5 61z" />
    <glyph glyph-name="ordmasculine" unicode="&#xba;" horiz-adv-x="815" 
d="M408 586q-157 0 -257.5 102t-100.5 263t100.5 263t257.5 102q156 0 258 -102t102 -263t-101.5 -263t-258.5 -102zM408 1228q-108 0 -168 -76.5t-61 -201.5q-1 -127 59.5 -201.5t169.5 -74.5t169.5 76.5t60.5 201.5t-60.5 200.5t-169.5 75.5z" />
    <glyph glyph-name="guillemotright" unicode="&#xbb;" horiz-adv-x="831" 
d="M94 136v129l212 181l-212 184v127l288 -248v-125zM449 136v129l211 181l-211 184v127l288 -248v-125z" />
    <glyph glyph-name="questiondown" unicode="&#xbf;" horiz-adv-x="999" 
d="M432 886v175h178v-175h-178zM486 -254q-206 0 -317.5 104.5t-111.5 271.5q0 58 15.5 106.5t52.5 97t84 92t123 103.5q58 47 84.5 88.5t31.5 98.5h132q-3 -83 -40.5 -146t-137.5 -137q-32 -22 -40 -31q-17 -15 -49 -45q-9 -8 -26 -28q-23 -26 -44 -65q-29 -56 -29 -148
q0 -104 75 -176.5t209 -72.5q140 0 219.5 87.5t79.5 241.5q0 47 -10 100l145 -7q10 -60 10 -107q0 -196 -122.5 -312t-333.5 -116z" />
    <glyph glyph-name="multiply" unicode="&#xd7;" horiz-adv-x="1083" 
d="M880 208l-341 348l-340 -348l-79 79l343 344l-343 346l79 79l340 -350l341 350l80 -79l-344 -346l344 -344z" />
    <glyph glyph-name="divide" unicode="&#xf7;" horiz-adv-x="1265" 
d="M542 989v180h185v-180h-185zM111 583v112h1046v-112h-1046zM542 109v178h185v-178h-185z" />
    <glyph glyph-name="circumflex" unicode="&#x2c6;" 
d="M669 1032l-157 185l-157 -185h-91l153 258h190l153 -258h-91z" />
    <glyph glyph-name="caron" unicode="&#x2c7;" 
d="M607 1032h-190l-153 258h91l157 -186l157 186h91z" />
    <glyph glyph-name="breve" unicode="&#x2d8;" 
d="M512 1026q-228 0 -238 264h92q8 -164 146 -164t146 164h92q-9 -264 -238 -264z" />
    <glyph glyph-name="dotaccent" unicode="&#x2d9;" 
d="M422 1098v192h178v-192h-178z" />
    <glyph glyph-name="ring" unicode="&#x2da;" 
d="M512 998q-81 0 -130.5 48t-49.5 124t49.5 124.5t130.5 48.5t130.5 -48.5t49.5 -124.5t-49.5 -124t-130.5 -48zM512 1289q-51 0 -83.5 -33.5t-32.5 -85.5q0 -53 30 -85t86 -33q55 -1 85.5 32t30.5 86q0 52 -32 85.5t-84 33.5z" />
    <glyph glyph-name="ogonek" unicode="&#x2db;" 
d="M520 -358q-80 0 -122 35t-42 97q0 60 46.5 117t151.5 134h61q-74 -66 -110 -109q-44 -53 -44 -108q0 -39 19.5 -60.5t51 -24.5t65.5 3.5t69 20.5v-64q-69 -41 -146 -41z" />
    <glyph glyph-name="tilde" unicode="&#x2dc;" 
d="M663 1030q-70 0 -148 65q-42 36 -78.5 54.5t-70 19t-55 -32.5t-27.5 -99h-73q4 116 46 180.5t104 64.5q67 0 146 -64q88 -72 135 -72t67.5 32.5t27.5 96.5h74q-4 -118 -44.5 -181.5t-103.5 -63.5z" />
    <glyph glyph-name="hungarumlaut" unicode="&#x2dd;" 
d="M313 1032h-77l96 258h159zM601 1032h-77l96 258h160z" />
    <glyph glyph-name="endash" unicode="&#x2013;" 
d="M117 459v125h790v-125h-790z" />
    <glyph glyph-name="emdash" unicode="&#x2014;" horiz-adv-x="2048" 
d="M117 459v125h1814v-125h-1814z" />
    <glyph glyph-name="quoteleft" unicode="&#x2018;" horiz-adv-x="358" 
d="M78 893v188q0 120 44 172t159 56v-72q-66 -8 -90.5 -45t-26.5 -125h117v-174h-203z" />
    <glyph glyph-name="quoteright" unicode="&#x2019;" horiz-adv-x="358" 
d="M78 872v74q66 8 90 45t24 125h-114v174h203v-190q0 -120 -42.5 -170.5t-160.5 -57.5z" />
    <glyph glyph-name="quotesinglbase" unicode="&#x201a;" horiz-adv-x="358" 
d="M78 -223v73q67 8 90.5 45t23.5 125h-114v175h203v-191q0 -118 -44 -169.5t-159 -57.5z" />
    <glyph glyph-name="quotedblleft" unicode="&#x201c;" horiz-adv-x="661" 
d="M78 893v188q0 120 39.5 172t141.5 56v-72q-60 -8 -81.5 -45t-22.5 -125h104v-174h-181zM403 893v188q0 118 39.5 170.5t141.5 57.5v-72q-60 -8 -81.5 -45t-22.5 -125h104v-174h-181z" />
    <glyph glyph-name="quotedblright" unicode="&#x201d;" horiz-adv-x="661" 
d="M78 872v74q60 8 81.5 44.5t21.5 125.5h-103v174h181v-190q0 -120 -38 -170.5t-143 -57.5zM403 872v74q60 8 81.5 45t21.5 125h-103v174h181v-190q0 -120 -38.5 -170.5t-142.5 -57.5z" />
    <glyph glyph-name="quotedblbase" unicode="&#x201e;" horiz-adv-x="661" 
d="M78 -223v73q60 8 81.5 45t21.5 125h-103v175h181v-191q0 -118 -39 -169.5t-142 -57.5zM403 -223v73q60 8 81.5 45.5t21.5 124.5h-103v175h181v-191q0 -117 -39.5 -169t-141.5 -58z" />
    <glyph glyph-name="dagger" unicode="&#x2020;" horiz-adv-x="641" 
d="M369 1010v-488h-95v488h-229v89h229v210h95v-210h227v-89h-227z" />
    <glyph glyph-name="daggerdbl" unicode="&#x2021;" horiz-adv-x="661" 
d="M377 724v-202h-93v202h-229v83h229v220h-229v80h229v202h93v-202h229v-80h-229v-220h229v-83h-229z" />
    <glyph glyph-name="bullet" unicode="&#x2022;" horiz-adv-x="684" 
d="M341 276q-106 0 -176.5 70t-70.5 177t70.5 178t175.5 71q103 0 177 -71q73 -70 73 -179q0 -107 -71.5 -176.5t-177.5 -69.5z" />
    <glyph glyph-name="ellipsis" unicode="&#x2026;" horiz-adv-x="1079" 
d="M78 0v205h177v-205h-177zM452 0v205h177v-205h-177zM825 0v205h176v-205h-176z" />
    <glyph glyph-name="perthousand" unicode="&#x2030;" horiz-adv-x="2174" 
d="M347 653q-126 0 -207 88q-83 91 -83 243q0 151 82 241t208 90t208 -90t82 -241t-81.5 -241t-208.5 -90zM468 0h-102l655 1290h100zM348 1235q-178 0 -178 -251q0 -121 44 -186.5t134 -65.5q175 0 175 252q0 251 -175 251zM1141 -24q-125 0 -207 90t-82 241q0 150 82 240
t207 90q127 0 209 -90t82 -241q0 -150 -82.5 -240t-208.5 -90zM1836 -24q-126 0 -207.5 90t-81.5 241t81.5 240.5t207.5 89.5t208 -90t82 -241q0 -150 -82 -240t-208 -90zM1141 559q-73 0 -124 -68t-51 -184q0 -252 174 -252q177 0 177 251q0 116 -51 184t-125 69zM1835 559
q-73 0 -124 -68t-51 -184q-2 -252 174 -252q177 0 177 251q0 116 -51.5 184t-124.5 69z" />
    <glyph glyph-name="guilsinglleft" unicode="&#x2039;" horiz-adv-x="495" 
d="M94 384v125l307 248v-127l-224 -184l224 -181v-129z" />
    <glyph glyph-name="guilsinglright" unicode="&#x203a;" horiz-adv-x="495" 
d="M94 136v129l225 181l-225 184v127l307 -248v-125z" />
    <glyph glyph-name="fraction" unicode="&#x2044;" horiz-adv-x="1003" 
d="M137 0h-103l841 1290h102z" />
    <glyph glyph-name="Euro" unicode="&#x20ac;" horiz-adv-x="1255" 
d="M696 -24q-212 0 -347 128.5t-179 367.5h-139v77h128q-3 55 -3 94q0 40 3 91h-128v78h137q44 241 180 372t349 131q212 0 341 -125.5t148 -354.5h-134q-17 178 -110 270.5t-256 91.5q-301 -1 -374 -385h391v-78h-398q-3 -48 -3 -91q0 -42 3 -94h377v-77h-368
q37 -192 131.5 -285.5t248.5 -93.5q326 0 358 363h134q-19 -231 -149 -355.5t-341 -124.5z" />
    <glyph glyph-name="uni2117" unicode="&#x2117;" horiz-adv-x="1482" 
d="M741 -24q-282 0 -475 190q-194 191 -194 479q0 189 89.5 343t242.5 240t338 86t338 -86t242.5 -240t89.5 -343q0 -142 -52.5 -266.5t-142 -212.5t-213.5 -139t-263 -51zM741 1254q-253 0 -430 -174q-176 -173 -176 -435q0 -172 81 -311.5t220 -218t306 -78.5
q125 0 237 46.5t193 126.5t128.5 193.5t47.5 241.5q0 172 -81 312t-220 218.5t-306 78.5zM774 560h-186v-280h-66v713h252q133 0 204 -57t71 -159q0 -101 -71 -159t-204 -58zM772 945h-184v-336h184q104 0 164.5 44.5t60.5 129.5q0 82 -60 122t-165 40z" />
    <glyph glyph-name="trademark" unicode="&#x2122;" horiz-adv-x="1292" 
d="M301 1243v-485h-56v485h-196v47h465v-47h-213zM1121 758v490h-35l-169 -490h-43l-178 490h-33v-490h-39v532h98l172 -500l176 500h95v-532h-44z" />
    <glyph glyph-name="minus" unicode="&#x2212;" horiz-adv-x="1265" 
d="M111 567v144h1046v-144h-1046z" />
    <glyph glyph-name="approxequal" unicode="&#x2248;" horiz-adv-x="1294" 
d="M892 697q-92 0 -242 47q-158 49 -253 49q-138 0 -274 -84v108q142 92 274 92q93 0 244 -47q154 -49 251 -49q140 0 279 84v-108q-138 -92 -279 -92zM892 369q-92 0 -242 48q-156 51 -253 51q-133 0 -274 -87v108q138 92 274 92q94 0 244 -48q156 -50 251 -50
q140 0 279 86v-108q-142 -92 -279 -92z" />
    <glyph glyph-name="notequal" unicode="&#x2260;" horiz-adv-x="1294" 
d="M531 412l-196 -258h-107l195 258h-300v108h379l177 232h-556v107h634l202 265h107l-201 -265h306v-107h-384l-179 -232h563v-108h-640z" />
    <glyph glyph-name="lessequal" unicode="&#x2264;" horiz-adv-x="960" 
d="M80 703v150l801 358v-121l-703 -312l703 -314v-120zM80 80v111h801v-111h-801z" />
    <glyph glyph-name="greaterequal" unicode="&#x2265;" horiz-adv-x="960" 
d="M80 344v120l702 314l-702 312v121l801 -358v-150zM80 80v111h801v-111h-801z" />
    <glyph glyph-name="backslash.cap" horiz-adv-x="667" 
d="M528 0l-519 1290h131l519 -1290h-131z" />
    <glyph glyph-name="periodcentered.cap" horiz-adv-x="374" 
d="M84 543v205h205v-205h-205z" />
    <glyph glyph-name="bullet.cap" horiz-adv-x="684" 
d="M341 399q-106 1 -176.5 70.5t-70.5 176.5t70.5 178t175.5 71q103 0 177 -71q73 -70 73 -178q0 -107 -71.5 -177.5t-177.5 -69.5z" />
    <glyph glyph-name="exclamdown.cap" horiz-adv-x="391" 
d="M94 1115v175h205v-175h-205zM106 0v351l61 592h60l58 -592v-351h-179z" />
    <glyph glyph-name="questiondown.cap" horiz-adv-x="999" 
d="M432 1115v175h178v-175h-178zM486 -25q-206 0 -317.5 104.5t-111.5 271.5q0 76 32 141.5t86.5 121.5t156.5 138q59 47 85 87.5t31 97.5h132q-3 -81 -39 -140.5t-139 -142.5l-32 -25l-10 -9l-18 -15q-22 -18 -55 -54q-19 -21 -27 -33q-2 -4 -6 -11.5t-9 -17t-11 -19.5
q-20 -37 -20 -133q0 -104 75 -176.5t209 -72.5q140 0 219.5 87.5t79.5 241.5q0 46 -10 101l145 -8q10 -60 10 -106q0 -197 -122.5 -313t-333.5 -116z" />
    <glyph glyph-name="slash.cap" horiz-adv-x="667" 
d="M140 0h-131l519 1290h131z" />
    <glyph glyph-name="colon.tab" horiz-adv-x="614" 
d="M205 676v178h205v-178h-205zM205 0v178h205v-178h-205z" />
    <glyph glyph-name="comma.tab" horiz-adv-x="614" 
d="M205 -225v73q67 8 90.5 46t23.5 126h-114v185h205v-199q0 -118 -45.5 -171.5t-159.5 -59.5z" />
    <glyph glyph-name="period.tab" horiz-adv-x="614" 
d="M205 0v205h205v-205h-205z" />
    <glyph glyph-name="semicolon.tab" horiz-adv-x="614" 
d="M205 678v176h205v-176h-205zM205 -225v69q66 7 90 43t24 120h-114v177h205v-190q0 -112 -45 -162.5t-160 -56.5z" />
    <glyph glyph-name="braceleft.cap" horiz-adv-x="600" 
d="M398 -139q-93 0 -138 47.5t-45 146.5v350q0 96 -23.5 133t-99.5 37h-37v97h37q75 0 99 37.5t24 133.5v348q0 99 45 146t138 47h112v-96h-70q-43 0 -65 -25t-22 -70v-357q0 -65 -17 -102t-72.5 -66t-161.5 -47q80 -11 130 -28.5t76.5 -45t35.5 -59t9 -79.5v-356
q0 -96 87 -96h70v-96h-112z" />
    <glyph glyph-name="braceright.cap" horiz-adv-x="600" 
d="M508 575q-74 0 -98.5 -37.5t-24.5 -132.5v-350q0 -99 -45 -146.5t-138 -47.5h-114v96h70q87 0 87 96v356q0 92 51 141t191 73q-140 24 -191 72.5t-51 140.5v357q0 45 -22 70t-65 25h-70v96h114q93 0 138 -47t45 -146v-348q0 -97 23.5 -134t99.5 -37h37v-97h-37z" />
    <glyph glyph-name="bracketleft.cap" horiz-adv-x="569" 
d="M135 -139v1523h344v-96h-204v-1331h204v-96h-344z" />
    <glyph glyph-name="bracketright.cap" horiz-adv-x="569" 
d="M88 -139v96h204v1331h-204v96h346v-1523h-346z" />
    <glyph glyph-name="parenleft.cap" horiz-adv-x="591" 
d="M382 -139q-142 149 -218 346q-80 205 -80 416t78.5 413t219.5 348h136q-279 -316 -279 -761q0 -444 279 -762h-136z" />
    <glyph glyph-name="parenright.cap" horiz-adv-x="591" 
d="M210 -139h-136q279 316 279 761q0 444 -279 762h136q141 -147 218 -345q80 -205 80 -416t-78.5 -413t-219.5 -349z" />
    <glyph glyph-name="emdash.cap" horiz-adv-x="2048" 
d="M117 582v125h1814v-125h-1814z" />
    <glyph glyph-name="endash.cap" 
d="M117 582v125h790v-125h-790z" />
    <glyph glyph-name="hyphen.cap" horiz-adv-x="704" 
d="M117 569v152h471v-152h-471z" />
    <glyph glyph-name="guillemotleft.cap" horiz-adv-x="831" 
d="M94 564v125l288 248v-126l-210 -184l210 -184v-127zM449 564v125l288 248v-126l-210 -184l210 -184v-127z" />
    <glyph glyph-name="guillemotright.cap" horiz-adv-x="831" 
d="M94 316v127l211 184l-211 184v126l288 -248v-125zM449 316v127l211 184l-211 184v126l288 -248v-125z" />
    <glyph glyph-name="guilsinglleft.cap" horiz-adv-x="495" 
d="M94 564v125l307 248v-126l-224 -184l224 -184v-127z" />
    <glyph glyph-name="guilsinglright.cap" horiz-adv-x="495" 
d="M94 316v127l225 184l-225 184v126l307 -248v-125z" />
    <glyph glyph-name="space.tab" horiz-adv-x="614" 
 />
    <glyph glyph-name="space_dotbelowcomb" 
d="M422 -352v194h178v-194h-178z" />
    <glyph glyph-name="uni00200326" 
d="M420 -395v43q50 4 72 33t27 93h-99v122h184v-106q0 -89 -45 -135t-139 -50z" />
    <glyph glyph-name="uni00200326.alt" 
d="M420 1065v106q0 89 45 135t139 50v-44q-50 -4 -72.5 -31.5t-26.5 -94.5h99v-121h-184z" />
    <glyph glyph-name="at.cap" horiz-adv-x="1556" 
d="M1123 288q-79 -1 -127.5 42t-73.5 136q-45 -80 -110 -124t-127.5 -49t-118 13t-90.5 55q-47 49 -63.5 133t7.5 187.5t91 189.5q102 132 269 132q166 0 233 -171l41 154h119l-120 -475q-18 -67 5.5 -105.5t87.5 -38.5q121 0 188.5 107t67.5 313q0 108 -38.5 200.5
t-109 159.5t-174.5 105t-230 38q-203 0 -359 -88.5t-241 -247.5t-85 -364q0 -132 47.5 -243.5t129 -187.5t193 -118t238.5 -42q240 0 435 89l31 -59q-192 -109 -475 -109q-197 0 -353.5 79.5t-249.5 237t-93 368.5q0 162 57 303t158 243t247.5 160.5t319.5 58.5
q148 0 270.5 -44.5t205 -122t128 -184.5t45.5 -232q0 -242 -106 -370t-270 -129zM792 923q-71 0 -130.5 -52t-91.5 -134t-32 -172q0 -188 158 -188q90 0 162.5 65t98.5 176l12 50q27 111 -21 183.5t-156 71.5z" />
    <glyph glyph-name="bar.cap" horiz-adv-x="403" 
d="M125 0v1290h154v-1290h-154z" />
    <glyph glyph-name="caron.Slovak" 
d="M483 1020h-80l33 270h174z" />
    <glyph glyph-name="cedilla.alt" horiz-adv-x="1173" 
d="M363 -288l21 41q91 -64 196 -64q126 0 126 87q0 52 -42 73q-67 34 -163 -5l-19 10l113 169h41l-104 -140q83 23 134 24t81 -16q42 -18 58 -60.5t1.5 -86t-54.5 -65.5q-46 -25 -111 -34.5t-142.5 6.5t-135.5 61z" />
    <glyph glyph-name="acute.cap" 
d="M457 1384h-96l109 258h181z" />
    <glyph glyph-name="breve.cap" 
d="M512 1378q-228 0 -238 264h92q8 -164 146 -164t146 164h92q-9 -264 -238 -264z" />
    <glyph glyph-name="caron.cap" 
d="M607 1384h-190l-153 258h91l157 -184l157 184h91z" />
    <glyph glyph-name="circumflex.cap" 
d="M669 1384l-157 185l-157 -185h-91l153 258h190l153 -258h-91z" />
    <glyph glyph-name="dieresis.cap" 
d="M287 1395v192h145v-192h-145zM592 1395v192h143v-192h-143z" />
    <glyph glyph-name="dotaccent.cap" 
d="M422 1395v192h178v-192h-178z" />
    <glyph glyph-name="grave.cap" 
d="M565 1384l-194 258h181l109 -258h-96z" />
    <glyph glyph-name="hungarumlaut.cap" 
d="M313 1384h-77l96 258h159zM601 1384h-77l96 258h160z" />
    <glyph glyph-name="macron.cap" 
d="M246 1399v129h530v-129h-530z" />
    <glyph glyph-name="ring.cap" 
d="M512 1350q-82 0 -130 49q-50 50 -50 124q0 76 49.5 124.5t130.5 48.5t130.5 -48.5t49.5 -124.5t-49.5 -124.5t-130.5 -48.5zM596 1608q-33 33 -84 33q-52 0 -84 -32.5t-32 -85.5t30 -85.5t86 -32.5q54 0 85 32t31 86q0 51 -32 85z" />
    <glyph glyph-name="tilde.cap" 
d="M663 1376q-70 0 -148 65q-42 36 -78.5 54.5t-70 19t-55 -32.5t-27.5 -99h-73q4 116 46 180.5t104 64.5q67 0 146 -64q88 -72 135 -72t67.5 32.5t27.5 96.5h74q-4 -118 -44.5 -181.5t-103.5 -63.5z" />
    <glyph glyph-name="_142" horiz-adv-x="1200" 
d="M1157 1142v-129h-1107v129h1107zM1013 766q0 24 -29 47t-68 23q-35 0 -63.5 -16.5t-28.5 -37.5q0 -31 16.5 -49t68.5 -29l47 -10q43 -9 66 -15t52.5 -17t43.5 -24t25 -34t12 -48q2 -74 -64 -119.5t-172 -45.5q-120 0 -183 60t-63 138l128 -2q0 -8 4.5 -20.5t16 -29
t38 -28t62.5 -11.5q43 0 70 15t27 35q0 40 -104 63q-100 21 -164 57q-64 35 -64 111q0 73 65.5 119t166.5 46q104 0 165.5 -53.5t61.5 -124.5h-133zM463 693v-123h-267v-179h-145v550h464v-123h-319v-125h267zM502 458q0 -26 20.5 -45t48.5 -19q30 0 51 18.5t21 45.5
q0 26 -21.5 45.5t-50.5 19.5q-28 0 -48.5 -19.5t-20.5 -45.5zM1154 322v-129h-1107v129h1107z" />
    </font>
</defs>
</svg>
