<?xml version="1.0" standalone="no"?>
<!DOCTYPE svg PUBLIC "-//W3C//DTD SVG 1.1//EN" "http://www.w3.org/Graphics/SVG/1.1/DTD/svg11.dtd" >
<svg xmlns="http://www.w3.org/2000/svg" xmlns:xlink="http://www.w3.org/1999/xlink" version="1.1">
<metadata>
Created by FontForge 20170731 at Sun Apr  8 17:54:55 2018
 By Aleksey,,,
Copyright (c) 2018 by Fontastica. All rights reserved.
</metadata>
<defs>
<font id="ExensaGrotesk-Regular" horiz-adv-x="1024" >
  <font-face 
    font-family="Exensa Grotesk"
    font-weight="400"
    font-stretch="normal"
    units-per-em="2048"
    panose-1="0 0 0 0 0 0 0 0 0 0"
    ascent="1290"
    descent="-758"
    x-height="895"
    cap-height="1290"
    bbox="-111 -395 2126 1696"
    underline-thickness="81"
    underline-position="-302"
    unicode-range="U+000D-2265"
  />
<missing-glyph horiz-adv-x="1245" 
 />
    <glyph glyph-name=".notdef" horiz-adv-x="1245" 
 />
    <glyph glyph-name="uni0000" horiz-adv-x="0" 
 />
    <glyph glyph-name="uni0000" horiz-adv-x="0" 
 />
    <glyph glyph-name="uni000D" unicode="&#xd;" horiz-adv-x="681" 
 />
    <glyph glyph-name="space" unicode=" " horiz-adv-x="368" 
 />
    <glyph glyph-name="exclam" unicode="!" horiz-adv-x="391" 
d="M104 1290h183v-395l-49 -557h-82l-52 557v395zM94 0v205h205v-205h-205z" />
    <glyph glyph-name="quotedbl" unicode="&#x22;" horiz-adv-x="591" 
d="M94 834v456h146v-456h-146zM352 834v456h146v-456h-146z" />
    <glyph glyph-name="numbersign" unicode="#" horiz-adv-x="1245" 
d="M1118 461l-22 -119h-248l-82 -342h-145l81 342h-303l-82 -342h-143l82 342h-215l22 119h222l86 368h-244l23 121h249l82 340h144l-82 -340h303l82 340h145l-82 -340h213l-22 -121h-219l-86 -368h241zM514 829l-86 -368h303l86 368h-303z" />
    <glyph glyph-name="dollar" unicode="$" horiz-adv-x="1134" 
d="M168 711q-86 86 -86 241q0 157 116 256.5t312 106.5v178h115v-184q197 -23 304 -135.5t109 -305.5h-157q-7 254 -256 301v-452l88 -17q183 -35 267.5 -118t84.5 -239q0 -158 -121.5 -257.5t-318.5 -108.5v-186h-115v189q-217 21 -341 137.5t-124 320.5h158
q11 -277 307 -321v458l-109 23q-153 33 -233 113zM316 1117q-68 -59 -68 -158q0 -95 54.5 -140.5t180.5 -73.5l27 -6v441q-127 -5 -194 -63zM897 332q0 92 -56.5 141.5t-185.5 75.5l-30 6v-444q126 8 199.5 67.5t72.5 153.5z" />
    <glyph glyph-name="percent" unicode="%" horiz-adv-x="1499" 
d="M143 727q-86 92 -86 248q0 154 85 247t217 93t217.5 -93t85.5 -247t-85 -247t-218 -93q-130 0 -216 92zM1149 1290l-660 -1290h-139l662 1290h137zM203 975q0 -227 157 -227q156 0 156 227t-156 227q-157 0 -157 -227zM1444 315q0 -153 -86 -246t-217 -93t-217 93.5
t-86 246.5t85.5 246t217.5 93q131 0 217 -93.5t86 -246.5zM1140 88q156 0 156 227q0 49 -10.5 90t-28.5 67.5t-41.5 45t-49 22.5t-51.5 0.5t-49 -22t-41 -45t-29 -67.5t-11 -90q0 -228 155 -228z" />
    <glyph glyph-name="ampersand" unicode="&#x26;" horiz-adv-x="1273" 
d="M55 330q0 120 68 207.5t211 162.5q-135 160 -135 299t96 227t248 89q148 0 233.5 -78t85.5 -203q0 -119 -67.5 -197t-227.5 -159l316 -350q4 6 13 17q41 53 60 80.5t40.5 75t33.5 102.5h148q-28 -114 -75.5 -196.5t-129.5 -181.5q59 -66 99.5 -87t109.5 -20v-129
q-110 -8 -167.5 16t-150.5 114q-173 -143 -372 -143q-201 0 -319 95t-118 259zM544 1188q-80 0 -132 -49.5t-52 -124.5q0 -69 27 -116.5t96 -125.5q128 57 178.5 111t49.5 132q0 79 -44 126t-123 47zM479 113q158 0 293 102l-352 389q-102 -53 -147.5 -114.5t-45.5 -157.5
q0 -97 71 -157.5t181 -61.5z" />
    <glyph glyph-name="quotesingle" unicode="'" horiz-adv-x="337" 
d="M94 834v456h150v-456h-150z" />
    <glyph glyph-name="parenleft" unicode="(" horiz-adv-x="591" 
d="M84 590q0 211 75 413t210 349h170q-277 -316 -277 -762t277 -762h-170q-135 146 -210 348t-75 414z" />
    <glyph glyph-name="parenright" unicode=")" horiz-adv-x="591" 
d="M433 1003q75 -202 75 -413q0 -212 -75 -414t-210 -348h-170q277 316 277 762t-277 762h170q135 -147 210 -349z" />
    <glyph glyph-name="asterisk" unicode="*" horiz-adv-x="733" 
d="M307 1309h119v-258l244 84l37 -113l-246 -78l153 -207l-96 -69l-149 204l-150 -208l-94 73l149 203l-245 80l39 113l239 -84v260z" />
    <glyph glyph-name="plus" unicode="+" horiz-adv-x="1265" 
d="M561 1163h144v-452h452v-144h-452v-452h-144v452h-450v144h450v452z" />
    <glyph glyph-name="comma" unicode="," horiz-adv-x="360" 
d="M78 0v205h205v-201q0 -118 -45.5 -172.5t-159.5 -56.5v100q56 4 76 30.5t20 94.5h-96z" />
    <glyph glyph-name="hyphen" unicode="-" horiz-adv-x="704" 
d="M117 446v152h471v-152h-471z" />
    <glyph glyph-name="period" unicode="." horiz-adv-x="360" 
d="M78 0v205h205v-205h-205z" />
    <glyph glyph-name="slash" unicode="/" horiz-adv-x="649" 
d="M-41 -170l524 1520h160l-522 -1520h-162z" />
    <glyph glyph-name="zero" unicode="0" horiz-adv-x="1204" 
d="M1139 645q0 -318 -141 -493.5t-396 -175.5q-254 0 -394 175t-140 494t140 494.5t394 175.5q255 0 396 -176t141 -494zM602 119q350 0 350 526t-350 526t-350 -526t350 -526z" />
    <glyph glyph-name="one" unicode="1" horiz-adv-x="591" 
d="M20 987v115q130 0 198.5 45t105.5 151h116v-1298h-178v987h-242z" />
    <glyph glyph-name="two" unicode="2" horiz-adv-x="1034" 
d="M1001 154v-154h-948v156l365 260q39 28 68.5 51.5t56.5 50.5t39.5 40.5t42.5 49t41 48.5q68 79 92.5 166.5t9 157.5t-60.5 119q-66 71 -194 71t-200 -80t-71 -222q0 -58 14 -116l-176 8q-14 75 -14 121q0 200 122.5 317.5t333.5 116.5q205 0 319.5 -108.5t114.5 -278.5
q0 -159 -93.5 -293t-291.5 -281l-275 -204z" />
    <glyph glyph-name="three" unicode="3" horiz-adv-x="1056" 
d="M750 180q77 60 77 170q0 106 -77 169t-182 63q-124 0 -169 -7v146q44 -6 161 -6q104 0 174 55t69 162q0 115 -69 177t-202 62q-136 0 -215 -86t-77 -237l-172 6q0 205 127.5 333t338.5 128q209 1 326.5 -98t118.5 -267q0 -114 -73.5 -197.5t-176.5 -101.5
q122 -16 199.5 -101.5t77.5 -207.5q0 -166 -128 -266t-347 -100q-223 0 -354.5 123t-131.5 337l174 -8q2 -149 86 -228.5t227 -80.5q141 0 218 61z" />
    <glyph glyph-name="four" unicode="4" horiz-adv-x="1120" 
d="M885 1290v-801h221v-145h-221v-344h-174v344h-678v150l637 796h215zM711 489v641l-505 -641h505z" />
    <glyph glyph-name="five" unicode="5" horiz-adv-x="1075" 
d="M951 1290v-160h-636q-2 -54 -19 -189.5t-28 -184.5q51 61 126.5 83.5t187.5 22.5q201 0 319.5 -122.5t118.5 -319.5t-130.5 -321.5t-348.5 -123.5q-225 0 -350 115t-115 328h172q0 -148 78 -224.5t222 -76.5q140 1 220 83.5t80 219.5q0 136 -79.5 218.5t-213.5 82.5
q-201 0 -283 -152h-176q71 390 82 721h773z" />
    <glyph glyph-name="six" unicode="6" horiz-adv-x="1122" 
d="M598 1174q-379 0 -373 -530q34 115 130.5 165.5t254.5 50.5q206 0 329.5 -121.5t123.5 -318.5q0 -198 -129 -321.5t-342 -123.5q-253 0 -388.5 171.5t-135.5 481.5q0 316 138 501.5t394 185.5q194 0 314 -104t137 -285h-170q-37 248 -283 248zM584 719
q-143 0 -225.5 -80.5t-82.5 -218.5q0 -137 85 -219t227 -82q141 0 223 81t82 219q0 139 -82.5 219.5t-226.5 80.5z" />
    <glyph glyph-name="seven" unicode="7" horiz-adv-x="987" 
d="M39 1130v160h909v-159q-216 -225 -321.5 -496.5t-108.5 -634.5h-192q4 337 113.5 629t308.5 501h-709z" />
    <glyph glyph-name="eight" unicode="8" horiz-adv-x="1079" 
d="M541 -25q-227 0 -359 98.5t-131 268.5q0 118 76.5 203t189.5 106q-219 80 -219 305q0 163 123 261.5t319 97.5q196 0 319 -98t122 -261q0 -226 -219 -305q114 -21 189 -106t75 -203q0 -171 -129 -269t-356 -98zM736 1122q-73 62 -195 62q-124 0 -196.5 -62.5
t-72.5 -173.5q0 -112 72 -172.5t196 -60.5q125 0 197.5 61t71.5 172q-2 113 -73 174zM766 522q-78 60 -225 60t-226.5 -60t-78.5 -173q2 -115 79.5 -177.5t224.5 -62.5q146 0 225 63t79 177q0 113 -78 173z" />
    <glyph glyph-name="nine" unicode="9" horiz-adv-x="1122" 
d="M524 118q379 0 373 530q-34 -115 -130.5 -165.5t-254.5 -50.5q-206 0 -329.5 121.5t-123.5 318.5q0 198 129 321.5t342 123.5q253 0 388.5 -171.5t135.5 -481.5q0 -315 -138 -500.5t-394 -186.5q-193 -1 -313.5 103.5t-137.5 285.5h170q37 -248 283 -248zM538 573
q143 0 225.5 80.5t82.5 218.5q0 137 -85 219t-227 82q-141 0 -223 -81t-82 -219q0 -139 82.5 -219.5t226.5 -80.5z" />
    <glyph glyph-name="colon" unicode=":" horiz-adv-x="360" 
d="M78 649v205h205v-205h-205zM78 0v205h205v-205h-205z" />
    <glyph glyph-name="semicolon" unicode=";" horiz-adv-x="360" 
d="M78 649v205h205v-205h-205zM78 0v205h205v-201q0 -118 -45.5 -172.5t-159.5 -56.5v100q56 4 76 30.5t20 94.5h-96z" />
    <glyph glyph-name="less" unicode="&#x3c;" horiz-adv-x="948" 
d="M82 543v184l799 426v-166l-668 -352l668 -352v-168z" />
    <glyph glyph-name="equal" unicode="=" horiz-adv-x="1294" 
d="M123 731v139h1048v-139h-1048zM123 401v140h1048v-140h-1048z" />
    <glyph glyph-name="greater" unicode="&#x3e;" horiz-adv-x="948" 
d="M864 727v-184l-796 -428v168l665 352l-665 352v166z" />
    <glyph glyph-name="question" unicode="?" horiz-adv-x="999" 
d="M406 344q0 92 38 161.5t140 144.5q24 18 30 24l44 40q100 91 100 231q0 95 -68 160t-188 65q-127 0 -199 -79.5t-72 -222.5q0 -60 15 -116l-176 8q-13 67 -13 121q-1 199 122.5 317t333.5 117q204 0 317 -106.5t112 -276.5q0 -59 -16 -109.5t-53 -99.5t-82 -92t-119 -103
q-58 -47 -81.5 -86.5t-25.5 -97.5h-159zM377 0v205h205v-205h-205z" />
    <glyph glyph-name="at" unicode="@" horiz-adv-x="1556" 
d="M1063 301q-30 -119 74 -119q108 0 170.5 99t62.5 295q0 206 -141.5 339t-380.5 134q-193 0 -341.5 -84t-229 -235.5t-80.5 -346.5q0 -125 44.5 -230.5t122 -177t183 -111.5t226.5 -40q241 0 433 92l45 -88q-195 -117 -487 -117q-196 0 -352.5 79.5t-250 237t-93.5 369.5
q0 162 56.5 303t157.5 242.5t247.5 160t318.5 58.5q148 0 270.5 -44.5t205.5 -122.5t129 -186t46 -233q1 -243 -107 -374t-278 -131q-80 0 -131.5 39t-69.5 106q-82 -145 -251 -145q-120 0 -191.5 76.5t-71.5 209.5q-1 118 46.5 220t136 164.5t198.5 62.5q81 0 141.5 -35.5
t82.5 -93.5l30 112h152zM930 626q-40 64 -138 64q-95 0 -163 -100t-68 -232q0 -63 21 -103t53 -53t70.5 -10.5t74 18.5t62.5 40q69 60 94 164l12 49q23 97 -18 163z" />
    <glyph glyph-name="A" unicode="A" horiz-adv-x="1306" 
d="M551 1290h194l537 -1290h-188l-156 379h-588l-151 -379h-174zM406 520h475l-234 574z" />
    <glyph glyph-name="B" unicode="B" horiz-adv-x="1210" 
d="M1139 354q0 -169 -120.5 -261.5t-344.5 -92.5h-549v1290h526q226 0 338.5 -89t112.5 -255q0 -110 -61 -184t-167 -92q126 -20 195.5 -102.5t69.5 -213.5zM297 1145v-412h360q266 0 267 205q0 98 -67.5 152.5t-199.5 54.5h-360zM297 596v-451h373q142 0 217.5 58t75.5 165
t-76 167.5t-217 60.5h-373z" />
    <glyph glyph-name="C" unicode="C" horiz-adv-x="1363" 
d="M247 162q-181 187 -181 483q0 145 48.5 270t132.5 212.5t201 137t250 49.5q244 0 397.5 -125.5t193.5 -346.5h-171q-30 152 -139.5 237t-282.5 85q-198 0 -323 -142.5t-125 -376.5t125 -376t323 -142q172 0 283 89.5t140 243.5h171q-39 -224 -193.5 -354t-398.5 -131
q-270 0 -451 187z" />
    <glyph glyph-name="D" unicode="D" horiz-adv-x="1316" 
d="M125 0v1290h467q306 0 483.5 -172.5t177.5 -472.5t-177.5 -472.5t-483.5 -172.5h-467zM303 145h279q236 0 367 131t130 369q0 237 -131 368.5t-366 131.5h-279v-1000z" />
    <glyph glyph-name="E" unicode="E" horiz-adv-x="1122" 
d="M1044 147v-147h-919v1290h901v-147h-729v-406h665v-145h-665v-445h747z" />
    <glyph glyph-name="F" unicode="F" horiz-adv-x="1056" 
d="M301 0h-176v1290h881v-147h-705v-428h604v-148h-604v-567z" />
    <glyph glyph-name="G" unicode="G" horiz-adv-x="1409" 
d="M1297 675v-161q-31 -245 -191 -391.5t-405 -146.5q-280 0 -457.5 186.5t-177.5 482.5q0 147 47 271.5t130.5 212t201.5 136.5t257 49q281 0 458 -186q49 -52 77 -115t53 -156h-165q-46 147 -156.5 226.5t-267.5 79.5q-207 0 -331 -141t-124 -377t124 -377t332 -141
q181 0 297.5 105t132.5 281l-430 1l1 161h594z" />
    <glyph glyph-name="H" unicode="H" horiz-adv-x="1347" 
d="M303 0h-178v1290h178v-546h741v546h179v-1290h-179v585h-741v-585z" />
    <glyph glyph-name="I" unicode="I" horiz-adv-x="428" 
d="M125 1290h178v-1290h-178v1290z" />
    <glyph glyph-name="J" unicode="J" horiz-adv-x="1044" 
d="M762 1290h176v-850q0 -225 -118.5 -345t-330.5 -120t-334.5 120t-129.5 345h168q10 -159 85.5 -239t213.5 -80q270 0 270 323v846z" />
    <glyph glyph-name="K" unicode="K" horiz-adv-x="1196" 
d="M303 0h-178v1290h178v-637l625 637h211l-555 -567l616 -723h-215l-532 612l-150 -151v-461z" />
    <glyph glyph-name="L" unicode="L" horiz-adv-x="1073" 
d="M125 1290h178v-1143h719v-147h-897v1290z" />
    <glyph glyph-name="M" unicode="M" horiz-adv-x="1527" 
d="M291 1110v-1110h-166v1290h285l352 -1055l360 1055h281v-1290h-178v1110h-8l-377 -1110h-150l-391 1110h-8z" />
    <glyph glyph-name="N" unicode="N" horiz-adv-x="1306" 
d="M1016 1290h166v-1290h-142l-749 1008v-1008h-166v1290h161l730 -987v987z" />
    <glyph glyph-name="O" unicode="O" horiz-adv-x="1411" 
d="M1169 1128q179 -187 179 -483t-179.5 -482.5t-462.5 -186.5q-139 0 -258 49t-203 136.5t-131.5 212t-47.5 271.5t47.5 271.5t131.5 212t203 136.5t259 49q283 0 462 -186zM1163 645q0 237 -124.5 377.5t-332.5 140.5t-333 -141t-125 -377t125 -377t334 -141t333 140
t123 378z" />
    <glyph glyph-name="P" unicode="P" horiz-adv-x="1138" 
d="M301 481v-481h-176v1290h469q238 0 370 -106t132 -296q0 -191 -131.5 -299t-370.5 -108h-293zM301 627h289q169 0 263 69.5t94 198.5q0 127 -92.5 188.5t-264.5 61.5h-289v-518z" />
    <glyph glyph-name="Q" unicode="Q" horiz-adv-x="1411" 
d="M1169 1133q179 -187 179 -475t-164 -475l125 -137l-113 -94l-125 135q-82 -57 -187.5 -85.5t-216.5 -25t-223.5 52t-198.5 138.5q-179 187 -179 483q0 147 47.5 271.5t131.5 212t203 136.5t259 49q283 0 462 -186zM1073 306q90 130 90 357t-125 366t-332 139
q-208 0 -333 -141t-125 -378q0 -239 120.5 -383t328.5 -144q162 0 270 78l-250 278l115 98z" />
    <glyph glyph-name="R" unicode="R" horiz-adv-x="1226" 
d="M299 520v-520h-174v1290h524q237 0 361.5 -100t124.5 -281q0 -139 -72.5 -223t-200.5 -98q110 -22 162.5 -90t62.5 -189q12 -148 25 -218q11 -59 41 -91h-184q-26 8 -35.5 69t-17.5 192v7t-0.5 6t-0.5 7q-15 239 -251 239h-365zM299 662h340q317 0 317 241
q0 117 -80 179.5t-237 62.5h-340v-483z" />
    <glyph glyph-name="S" unicode="S" horiz-adv-x="1148" 
d="M319 207q107 -92 263 -92q154 0 239.5 58.5t85.5 156.5q0 94 -56.5 143t-188.5 74l-256 49q-322 61 -322 340q0 172 126.5 275t349.5 103q230 0 362.5 -113t134.5 -328h-162q-4 155 -92.5 230t-244.5 75q-146 0 -224 -60.5t-78 -161.5q0 -96 52 -139t181 -67l234 -45
q183 -35 268.5 -120.5t85.5 -245.5q0 -163 -136 -263t-363 -100q-156 0 -273.5 47.5t-188.5 149.5t-71 249h160q3 -80 28 -121.5t86 -93.5z" />
    <glyph glyph-name="T" unicode="T" horiz-adv-x="1208" 
d="M688 0h-176v1143h-469v147h1122v-147h-477v-1143z" />
    <glyph glyph-name="U" unicode="U" horiz-adv-x="1261" 
d="M631 -25q-245 -1 -383.5 128.5t-138.5 390.5v796h176v-798q0 -367 346 -367q171 0 260.5 92.5t89.5 271.5v801h174v-796q0 -259 -140 -389t-384 -130z" />
    <glyph glyph-name="V" unicode="V" horiz-adv-x="1280" 
d="M735 0h-192l-518 1290h182l439 -1085l429 1085h180z" />
    <glyph glyph-name="W" unicode="W" horiz-adv-x="1671" 
d="M922 1290l291 -1073l268 1073h166l-330 -1290h-207l-272 1030l-279 -1030h-205l-329 1290h172l274 -1069l285 1069h166z" />
    <glyph glyph-name="X" unicode="X" horiz-adv-x="1245" 
d="M1176 1290l-455 -614l500 -676h-209l-398 535l-391 -535h-198l497 664l-454 626h208l351 -489l350 489h199z" />
    <glyph glyph-name="Y" unicode="Y" horiz-adv-x="1224" 
d="M698 0h-170v506l-503 784h194l404 -618l389 618h188l-502 -784v-506z" />
    <glyph glyph-name="Z" unicode="Z" horiz-adv-x="1146" 
d="M1085 147v-147h-1024v147l779 996h-768v147h993v-147l-778 -996h798z" />
    <glyph glyph-name="bracketleft" unicode="[" horiz-adv-x="569" 
d="M295 1223v-1266h184v-129h-344v1524h344v-129h-184z" />
    <glyph glyph-name="backslash" unicode="\" horiz-adv-x="649" 
d="M168 1350l522 -1520h-160l-524 1520h162z" />
    <glyph glyph-name="bracketright" unicode="]" horiz-adv-x="569" 
d="M272 -43v1266h-184v129h346v-1524h-346v129h184z" />
    <glyph glyph-name="asciicircum" unicode="^" horiz-adv-x="772" 
d="M305 1290h160l287 -413h-170l-197 286l-197 -286h-168z" />
    <glyph glyph-name="underscore" unicode="_" horiz-adv-x="780" 
d="M41 -246v133h698v-133h-698z" />
    <glyph glyph-name="grave" unicode="`" 
d="M670 1032h-119l-199 258h207z" />
    <glyph glyph-name="a" unicode="a" horiz-adv-x="928" 
d="M838 0h-167v141q-37 -80 -121 -122.5t-204 -42.5t-197 68t-77 182q0 117 91 188t269 92l242 28v35q0 94 -56.5 156.5t-147.5 62.5q-97 0 -161 -47.5t-57 -132.5h-152q-9 132 92 222t263 90q168 0 275.5 -89.5t107.5 -252.5v-578zM674 421l-201 -22q-122 -13 -176.5 -51.5
t-54.5 -107.5q0 -66 40 -103t113 -37q121 0 200 83.5t79 215.5v22z" />
    <glyph glyph-name="b" unicode="b" horiz-adv-x="1077" 
d="M117 0v1290h170v-546q30 88 114 132t207 44q190 1 300 -131t110 -343q0 -210 -110.5 -340.5t-301.5 -130.5q-120 0 -205.5 46t-117.5 134v-155h-166zM283 422q0 -142 80 -226.5t209 -84.5q128 0 199 89t71 246t-71 246.5t-199 89.5q-130 0 -209.5 -83.5t-79.5 -225.5v-51
z" />
    <glyph glyph-name="c" unicode="c" horiz-adv-x="997" 
d="M59 446q0 212 126.5 343t324.5 131q176 0 285.5 -92.5t137.5 -247.5h-149q-20 99 -90 150.5t-181 51.5q-127 0 -213 -93t-86 -243t86 -242t213 -93q111 -1 181 51t90 152h149q-29 -155 -138.5 -247t-284.5 -92q-198 0 -324.5 130t-126.5 341z" />
    <glyph glyph-name="d" unicode="d" horiz-adv-x="1075" 
d="M793 155q-32 -88 -117.5 -134.5t-205.5 -45.5q-191 1 -301.5 131t-110.5 340q0 211 110 343t300 131q123 -1 207 -45t114 -131v546h170v-1290h-166v155zM793 473q0 142 -79.5 225.5t-209.5 83.5q-128 0 -199 -89.5t-71 -246.5t71 -246t199 -89q129 0 209 84.5t80 226.5
v51z" />
    <glyph glyph-name="e" unicode="e" horiz-adv-x="1001" 
d="M794 61q-109 -86 -292 -86q-188 0 -315.5 128t-127.5 333q0 210 129 347t329 137q197 0 311 -125t114 -322v-67h-713q6 -129 89 -212.5t204 -84.5q117 0 182.5 39t92.5 139h141q-32 -137 -144 -226zM698 712q-66 79 -184 79q-115 0 -190 -77t-91 -198h545q-4 104 -80 196
z" />
    <glyph glyph-name="f" unicode="f" horiz-adv-x="583" 
d="M152 772h-138v123h138v104q0 146 79 231t218 85q214 0 276 -208l-126 -41q-19 61 -51.5 87t-90.5 26q-70 0 -104 -38t-34 -123v-123h252v-123h-252v-772h-167v772z" />
    <glyph glyph-name="g" unicode="g" horiz-adv-x="983" 
d="M957 58q0 -199 -112 -304t-341 -105q-160 0 -266 61q-130 74 -137 209h159q3 -75 91 -116q70 -33 163 -33q149 0 223 97q37 48 52.5 92.5t15.5 116.5v60h-3q-40 -81 -122.5 -122.5t-182.5 -41.5q-206 0 -325 138q-110 128 -110 324q0 192 98 324q120 160 354 160
q188 0 277 -153h2v131h164v-838zM507 103q149 0 225 113q66 98 66 241q0 133 -62 225q-69 103 -215 103q-145 0 -222 -101q-66 -87 -66 -232q0 -147 57 -236q73 -113 217 -113z" />
    <glyph glyph-name="h" unicode="h" horiz-adv-x="1015" 
d="M287 0h-170v1290h170v-544q33 81 113.5 127.5t183.5 46.5q163 1 245 -96.5t82 -268.5v-555h-170v541q0 116 -54 179.5t-157 63.5q-105 0 -174 -75t-69 -195v-514z" />
    <glyph glyph-name="i" unicode="i" horiz-adv-x="401" 
d="M113 1098v192h176v-192h-176zM117 895h170v-895h-170v895z" />
    <glyph glyph-name="j" unicode="j" horiz-adv-x="401" 
d="M113 1098v192h176v-192h-176zM287 895v-1018q0 -246 -240 -246q-62 0 -89 6.5t-69 34.5v133q71 -45 140 -45q88 0 88 105v1030h170z" />
    <glyph glyph-name="k" unicode="k" horiz-adv-x="980" 
d="M287 0h-170v1290h170v-801l450 406h213l-411 -367l430 -528h-201l-356 434l-125 -110v-324z" />
    <glyph glyph-name="l" unicode="l" horiz-adv-x="401" 
d="M117 1290h170v-1290h-170v1290z" />
    <glyph glyph-name="m" unicode="m" horiz-adv-x="1587" 
d="M1481 0h-170v541q0 122 -49.5 183t-149.5 60q-100 0 -164.5 -74.5t-64.5 -195.5v-514h-170v541q0 122 -49.5 183t-149.5 60q-98 0 -162.5 -75t-64.5 -195v-514h-170v895h170v-160q33 85 109 135t175 50q109 1 167 -44.5t92 -147.5q36 85 132 138.5t203 53.5
q160 1 238 -96t78 -269v-555z" />
    <glyph glyph-name="n" unicode="n" horiz-adv-x="1015" 
d="M287 0h-170v895h170v-160q33 82 114.5 133.5t182.5 51.5q163 1 245 -96.5t82 -268.5v-555h-170v541q0 116 -54 179.5t-157 63.5q-105 0 -174 -75t-69 -195v-514z" />
    <glyph glyph-name="o" unicode="o" horiz-adv-x="1032" 
d="M843 786q130 -133 130 -340q0 -206 -130 -338t-329 -132t-327 132.5t-128 339.5t128.5 339.5t327.5 132.5q197 0 328 -134zM307 693q-74 -94 -74 -247q0 -155 74.5 -247t206.5 -93t208.5 93t76.5 249q0 154 -75.5 246t-208.5 92q-135 0 -208 -93z" />
    <glyph glyph-name="p" unicode="p" horiz-adv-x="1077" 
d="M283 737q32 88 117 133.5t206 46.5q191 1 301.5 -130t110.5 -341q0 -211 -109.5 -342.5t-300.5 -131.5q-123 0 -207 44t-114 132v-498h-170v1242h166v-155zM283 419q0 -142 79.5 -225.5t209.5 -83.5q128 0 199 89.5t71 246.5t-71 246t-199 89q-129 0 -209 -84.5
t-80 -226.5v-51z" />
    <glyph glyph-name="q" unicode="q" horiz-adv-x="1075" 
d="M960 892v-1242h-170v498q-30 -88 -114 -132t-207 -44q-191 0 -300.5 131.5t-109.5 342.5q0 210 110.5 341t301.5 130q121 -1 206 -46.5t117 -133.5v155h166zM794 470q0 142 -80 226.5t-209 84.5q-128 0 -199 -89t-71 -246t71 -246.5t199 -89.5q130 0 209.5 83.5
t79.5 225.5v51z" />
    <glyph glyph-name="r" unicode="r" horiz-adv-x="677" 
d="M282 893v-188h4q62 112 142.5 161.5t211.5 45.5v-157q-186 0 -273 -92q-81 -85 -81 -265v-397h-167v892h163z" />
    <glyph glyph-name="s" unicode="s" horiz-adv-x="886" 
d="M78 645q0 125 95 200t260 75q171 0 270 -77.5t112 -230.5h-137q-15 98 -77.5 140.5t-178.5 42.5q-84 0 -135 -36t-51 -97q0 -102 137 -125l168 -27q148 -24 217.5 -85t69.5 -181q0 -123 -102 -196t-271 -73q-175 0 -283.5 79t-120.5 234h144q23 -188 253 -188
q105 0 162.5 34t57.5 96q0 61 -39 91t-131 46l-152 26q-268 46 -268 252z" />
    <glyph glyph-name="t" unicode="t" horiz-adv-x="626" 
d="M147 772h-135v123h141v248h162v-248h252v-123h-252v-543q0 -56 25.5 -84.5t67.5 -28.5t89 15t97 43v-123q-41 -31 -97.5 -52.5t-117.5 -24.5t-113 15.5t-85.5 74.5t-33.5 145v563z" />
    <glyph glyph-name="u" unicode="u" horiz-adv-x="1005" 
d="M719 895h170v-895h-170v147q-33 -81 -112.5 -126.5t-180.5 -45.5q-160 -1 -240 90t-80 273v557h170v-541q0 -116 53 -181t154 -65q103 0 169.5 75.5t66.5 197.5v514z" />
    <glyph glyph-name="v" unicode="v" horiz-adv-x="931" 
d="M549 0h-166l-369 895h179l282 -688l277 688h166z" />
    <glyph glyph-name="w" unicode="w" horiz-adv-x="1314" 
d="M735 895l197 -678l211 678h157l-284 -895h-164l-190 668l-197 -668h-164l-287 895h170l215 -678l193 678h143z" />
    <glyph glyph-name="x" unicode="x" horiz-adv-x="956" 
d="M897 895l-330 -426l373 -469h-197l-274 348l-270 -348h-185l367 461l-338 434h197l239 -309l236 309h182z" />
    <glyph glyph-name="y" unicode="y" horiz-adv-x="942" 
d="M412 -344h-166l145 346l-377 893h179l287 -688l280 688h168z" />
    <glyph glyph-name="z" unicode="z" horiz-adv-x="876" 
d="M78 764v131h727v-131l-551 -633h563v-131h-756v131l539 633h-522z" />
    <glyph glyph-name="braceleft" unicode="{" horiz-adv-x="600" 
d="M55 524v131h51q60 0 78.5 30t18.5 120v340q0 207 186 207h121v-129h-82q-63 0 -63 -76v-348q0 -94 -33 -144.5t-111 -64.5q78 -14 111 -64.5t33 -146.5v-346q0 -76 63 -76h82v-129h-121q-186 0 -186 207v340q0 90 -18 119.5t-79 29.5h-51z" />
    <glyph glyph-name="bar" unicode="|" horiz-adv-x="403" 
d="M125 -170v1520h154v-1520h-154z" />
    <glyph glyph-name="braceright" unicode="}" horiz-adv-x="600" 
d="M545 655v-131h-51q-60 0 -78.5 -30t-18.5 -119v-340q0 -207 -186 -207h-123v129h82q63 0 63 76v346q0 95 33.5 145.5t112.5 65.5q-146 27 -146 209v348q0 76 -63 76h-82v129h123q186 0 186 -207v-340q0 -90 18 -120t79 -30h51z" />
    <glyph glyph-name="asciitilde" unicode="~" horiz-adv-x="802" 
d="M96 424q0 116 44 184t116 68t152 -60q81 -61 118 -61q37 -1 54.5 26.5t21.5 88.5h107q0 -119 -44.5 -186t-129.5 -66q-59 0 -139 60q-134 101 -175 33q-15 -27 -20 -87h-105z" />
    <glyph glyph-name="exclamdown" unicode="&#xa1;" horiz-adv-x="391" 
d="M301 858h-205v205h205v-205zM158 725h82l49 -557v-395h-183v395z" />
    <glyph glyph-name="cent" unicode="&#xa2;" 
d="M473 -201v181q-183 16 -298.5 144.5t-115.5 321.5t115 322t299 147v195h115v-195q166 -15 265 -113t112 -256h-146q-19 203 -231 236v-669q108 16 164.5 69.5t70.5 167.5h142q-13 -160 -111.5 -257t-265.5 -113v-181h-115zM227 446q0 -137 66.5 -226t179.5 -107v667
q-114 -18 -179.5 -106.5t-66.5 -227.5z" />
    <glyph glyph-name="sterling" unicode="&#xa3;" horiz-adv-x="1157" 
d="M826 1099q-66 75 -188 75q-118 0 -178 -67.5t-59 -176.5q0 -108 43 -225h320v-117h-275q69 -187 39 -332q58 -45 92 -66q103 -65 199 -65q164 2 164 235l139 -6q4 -180 -73 -279t-227 -99q-152 0 -333 151q-80 -152 -245 -152q-95 1 -156.5 55.5t-62.5 145.5
q0 91 60.5 149.5t146.5 57.5q82 0 157 -35q-1 109 -61 240h-209v117h155q-47 114 -47 217q0 180 109.5 287t299.5 106q193 0 304.5 -114t110.5 -314l-156 -8q-1 145 -69 220zM246 86q104 0 131 133q-73 53 -123 53q-51 0 -79 -24t-28 -69q0 -44 27.5 -68.5t71.5 -24.5z" />
    <glyph glyph-name="yen" unicode="&#xa5;" horiz-adv-x="1177" 
d="M154 547v121h270l-408 622h195l387 -598l375 598h188l-409 -622h272v-121h-350v-146h350v-120h-350v-281h-170v281h-350v120h350v146h-350z" />
    <glyph glyph-name="section" unicode="&#xa7;" horiz-adv-x="913" 
d="M872 489q0 -68 -40 -128.5t-107 -98.5q78 -74 78 -188q0 -116 -97 -193.5t-253 -77.5q-161 0 -264 84t-115 234l135 8q14 -96 83 -149.5t162 -53.5q89 0 141 37t52 97q1 59 -20.5 89t-83.5 58l-262 117q-122 55 -182 124t-60 160q0 168 147 248q-78 73 -78 190t97 193
t254 76q161 0 263.5 -84t115.5 -234l-136 -8q-14 95 -83 149t-161 54q-88 0 -141 -36t-53 -95t22.5 -90t82.5 -58l262 -118q125 -56 183 -126t58 -180zM190 637q0 -59 35.5 -97t118.5 -77l252 -119q4 -4 8 -4q117 39 117 143q0 57 -35.5 94.5t-118.5 77.5l-252 121
q-4 0 -8 4q-117 -45 -117 -143z" />
    <glyph glyph-name="dieresis" unicode="&#xa8;" 
d="M287 1081v193h168v-193h-168zM569 1081v193h166v-193h-166z" />
    <glyph glyph-name="copyright" unicode="&#xa9;" horiz-adv-x="1482" 
d="M266 166q-194 191 -194 479q0 189 89.5 343t242.5 240t338 86t338 -86t242.5 -240t89.5 -343q0 -142 -52.5 -266.5t-142 -212.5t-213.5 -139t-263 -51q-282 0 -475 190zM334 1057q-166 -163 -166 -412q0 -162 76.5 -294.5t208 -206.5t289.5 -74t289.5 74.5t207.5 206.5
t76 294t-76.5 294.5t-208 207t-289.5 74.5q-240 0 -407 -164zM494 372q-101 109 -101 273q0 165 101.5 271t254.5 106q138 0 225 -71t109 -195h-97q-17 85 -78.5 132.5t-159.5 48.5q-111 1 -182 -79.5t-71 -212.5t71 -212.5t182 -80.5q97 0 159.5 50.5t79.5 137.5h97
q-23 -126 -110 -199t-225 -74q-156 -2 -255 105z" />
    <glyph glyph-name="ordfeminine" unicode="&#xaa;" horiz-adv-x="796" 
d="M667 619h-126v106q-28 -60 -91 -92t-153 -32t-148 51t-58 137q0 179 271 211l182 21v26q0 70 -42.5 117t-111.5 47q-72 0 -120.5 -35.5t-43.5 -99.5h-114q-7 100 69 167.5t198 67.5q126 0 207 -67.5t81 -189.5v-435zM544 936l-151 -17q-92 -10 -133 -38.5t-41 -80.5
q0 -50 30 -77.5t85 -27.5q91 0 150.5 62.5t59.5 161.5v17z" />
    <glyph glyph-name="guillemotleft" unicode="&#xab;" horiz-adv-x="831" 
d="M94 379v135l307 264v-166l-190 -166l190 -163v-168zM430 379v135l307 264v-166l-190 -166l190 -163v-168z" />
    <glyph glyph-name="registered" unicode="&#xae;" horiz-adv-x="825" 
d="M670 1210q106 -103 106 -261q0 -156 -105.5 -260.5t-258.5 -104.5t-257.5 104.5t-104.5 260.5t104.5 260.5t257.5 104.5q151 0 258 -104zM623 731q86 86 86 218q0 131 -85.5 217.5t-211.5 86.5t-211.5 -86.5t-85.5 -217.5t85.5 -217.5t211.5 -86.5q125 0 211 86zM324 914
v-151h-50v375h152q68 0 104 -29.5t36 -81.5q0 -41 -21 -65t-57 -28q31 -6 45.5 -25.5t18.5 -54.5q1 -12 3 -27.5t3 -23.5t2 -13q3 -15 11 -27h-52q-14 6 -17 83q-3 68 -72 68h-106zM324 955h99q90 0 91 70q1 34 -22 52.5t-69 18.5h-99v-141z" />
    <glyph glyph-name="macron" unicode="&#xaf;" 
d="M248 1055v131h526v-131h-526z" />
    <glyph glyph-name="degree" unicode="&#xb0;" horiz-adv-x="694" 
d="M550 836q-83 -80 -204 -80t-203 80t-82 199q0 118 83 199t203 81t203 -81t83 -199q0 -119 -83 -199zM230 1153q-44 -47 -44 -117q0 -71 44.5 -118.5t115.5 -47.5t116.5 47.5t45.5 118.5q0 70 -45.5 117t-116.5 47q-72 0 -116 -47z" />
    <glyph glyph-name="plusminus" unicode="&#xb1;" horiz-adv-x="1265" 
d="M561 1241h141v-383h455v-141h-455v-383h-141v383h-452v141h452v383zM109 80v143h1048v-143h-1048z" />
    <glyph glyph-name="acute" unicode="&#xb4;" 
d="M471 1032h-119l111 258h207z" />
    <glyph glyph-name="paragraph" unicode="&#xb6;" horiz-adv-x="1028" 
d="M498 0v561q-216 0 -336.5 97t-120.5 268t120.5 267.5t336.5 96.5h403v-1290h-133v1159h-137v-1159h-133z" />
    <glyph glyph-name="periodcentered" unicode="&#xb7;" horiz-adv-x="374" 
d="M84 420v205h205v-205h-205z" />
    <glyph glyph-name="cedilla" unicode="&#xb8;" horiz-adv-x="1173" 
d="M742 -98q69 -31 70.5 -110t-64.5 -115q-47 -25 -112.5 -34t-143 9.5t-134.5 66.5l35 66q87 -66 187 -66t100 62q0 37 -30 52q-57 29 -144 -9l-41 22l121 177h80l-86 -115q92 26 162 -6z" />
    <glyph glyph-name="ordmasculine" unicode="&#xba;" horiz-adv-x="815" 
d="M666 1214q102 -102 102 -263t-101.5 -263t-258.5 -102t-257.5 102t-100.5 263t100.5 263t257.5 102q156 0 258 -102zM207 950q-1 -115 52.5 -180.5t148.5 -65.5t148.5 67.5t53.5 180.5t-53.5 179.5t-148.5 66.5t-148 -67.5t-53 -180.5z" />
    <glyph glyph-name="guillemotright" unicode="&#xbb;" horiz-adv-x="831" 
d="M401 514v-135l-307 -264v168l191 163l-191 166v166zM737 514v-135l-307 -264v168l191 163l-191 166v166z" />
    <glyph glyph-name="questiondown" unicode="&#xbf;" horiz-adv-x="999" 
d="M623 1061v-205h-205v205h205zM594 717q0 -92 -37 -159.5t-141 -146.5q-15 -11 -30 -23l-26 -24q-34 -32 -52 -52q-25 -28 -40 -60q-26 -50 -26 -137q0 -94 67 -159t189 -65q127 0 198.5 79.5t71.5 222.5q0 58 -14 116l176 -8q12 -61 12 -121q0 -198 -123 -316t-333 -118
q-204 0 -316.5 106t-112.5 277q0 59 16 109.5t53 99.5t82.5 92t119.5 102q57 46 80.5 86.5t25.5 98.5h160z" />
    <glyph glyph-name="multiply" unicode="&#xd7;" horiz-adv-x="1083" 
d="M442 631l-329 332l100 100l326 -336l327 336l101 -100l-330 -332l330 -330l-101 -100l-327 334l-326 -334l-100 100z" />
    <glyph glyph-name="divide" unicode="&#xf7;" horiz-adv-x="1265" 
d="M528 961v208h213v-208h-213zM111 567v144h1046v-144h-1046zM528 109v206h213v-206h-213z" />
    <glyph glyph-name="circumflex" unicode="&#x2c6;" 
d="M414 1290h196l164 -258h-123l-139 152l-139 -152h-123z" />
    <glyph glyph-name="caron" unicode="&#x2c7;" 
d="M610 1032h-196l-164 258h123l139 -153l139 153h123z" />
    <glyph glyph-name="breve" unicode="&#x2d8;" 
d="M512 1026q-115 0 -176 67.5t-62 196.5h119q0 -143 119 -143t119 143h119q0 -131 -61.5 -197.5t-176.5 -66.5z" />
    <glyph glyph-name="dotaccent" unicode="&#x2d9;" 
d="M422 1098v192h178v-192h-178z" />
    <glyph glyph-name="ring" unicode="&#x2da;" 
d="M692 1170q0 -76 -50 -124t-130 -48t-130 48.5t-50 123.5q0 76 50 124.5t130 48.5t130 -48.5t50 -124.5zM512 1260q-40 0 -64 -25t-24 -65q0 -41 22.5 -64.5t65.5 -24.5q42 0 65 24t23 65q0 40 -23.5 65t-64.5 25z" />
    <glyph glyph-name="ogonek" unicode="&#x2db;" 
d="M483 -190q0 -39 28 -53t68.5 -6.5t86.5 30.5v-94q-70 -45 -147 -45t-120 36t-43 101q0 62 44.5 117t142.5 129h106q-94 -82 -130 -127t-36 -88z" />
    <glyph glyph-name="tilde" unicode="&#x2dc;" 
d="M211 1036q0 113 44 179.5t115 66.5q69 0 148 -59t117 -59q37 0 52.5 26t21.5 86h102q0 -114 -42.5 -180t-114.5 -66t-150 60q-41 32 -73 46.5t-58 13t-41.5 -30t-18.5 -83.5h-102z" />
    <glyph glyph-name="hungarumlaut" unicode="&#x2dd;" 
d="M334 1032h-107l105 258h194zM604 1032h-106l104 258h195z" />
    <glyph glyph-name="endash" unicode="&#x2013;" 
d="M117 459v125h790v-125h-790z" />
    <glyph glyph-name="emdash" unicode="&#x2014;" horiz-adv-x="2048" 
d="M117 459v125h1814v-125h-1814z" />
    <glyph glyph-name="quoteleft" unicode="&#x2018;" horiz-adv-x="358" 
d="M281 1087v-194h-203v190q0 120 44.5 172.5t158.5 53.5v-99q-57 -4 -76.5 -29t-20.5 -94h97z" />
    <glyph glyph-name="quoteright" unicode="&#x2019;" horiz-adv-x="358" 
d="M78 1096v194h203v-192q0 -120 -43.5 -171.5t-159.5 -54.5v101q57 4 76.5 29t19.5 94h-96z" />
    <glyph glyph-name="quotesinglbase" unicode="&#x201a;" horiz-adv-x="358" 
d="M78 0v195h203v-193q0 -118 -44.5 -170.5t-158.5 -54.5v100q56 4 76 30t20 93h-96z" />
    <glyph glyph-name="quotedblleft" unicode="&#x201c;" horiz-adv-x="661" 
d="M281 1087v-194h-203v190q0 120 44.5 172.5t158.5 53.5v-99q-57 -4 -76.5 -29t-20.5 -94h97zM584 1087v-194h-203v190q0 119 44.5 172t158.5 54v-99q-57 -4 -76.5 -29t-20.5 -94h97z" />
    <glyph glyph-name="quotedblright" unicode="&#x201d;" horiz-adv-x="661" 
d="M78 1096v194h203v-192q0 -120 -43.5 -171.5t-159.5 -54.5v101q57 4 76.5 29t19.5 94h-96zM381 1096v194h203v-192q0 -120 -43.5 -171.5t-159.5 -54.5v101q57 4 76.5 29t19.5 94h-96z" />
    <glyph glyph-name="quotedblbase" unicode="&#x201e;" horiz-adv-x="661" 
d="M78 0v195h203v-193q0 -118 -44.5 -170.5t-158.5 -54.5v100q56 4 76 30t20 93h-96zM381 0v195h203v-193q0 -118 -44.5 -170.5t-158.5 -54.5v100q56 4 76 30t20 93h-96z" />
    <glyph glyph-name="dagger" unicode="&#x2020;" horiz-adv-x="641" 
d="M45 989v119h215v201h123v-201h213v-119h-213v-467h-123v467h-215z" />
    <glyph glyph-name="daggerdbl" unicode="&#x2021;" horiz-adv-x="661" 
d="M55 715v114h215v175h-215v112h215v193h121v-193h215v-112h-215v-175h215v-114h-215v-193h-121v193h-215z" />
    <glyph glyph-name="bullet" unicode="&#x2022;" horiz-adv-x="684" 
d="M517 701q73 -70 73 -179q0 -107 -71.5 -176.5t-177.5 -69.5t-176.5 70t-70.5 177t70.5 178t175.5 71q103 0 177 -71z" />
    <glyph glyph-name="ellipsis" unicode="&#x2026;" horiz-adv-x="1079" 
d="M78 0v205h205v-205h-205zM438 0v205h205v-205h-205zM797 0v205h204v-205h-204z" />
    <glyph glyph-name="perthousand" unicode="&#x2030;" horiz-adv-x="2174" 
d="M143 727q-86 92 -86 248q0 154 85 247t217 93t217.5 -93t85.5 -247t-85 -247t-218 -93q-130 0 -216 92zM1149 1290l-660 -1290h-139l662 1290h137zM203 975q0 -227 157 -227q156 0 156 227t-156 227q-157 0 -157 -227zM1444 315q0 -153 -86 -246t-217 -93t-217 93.5
t-86 246.5t85.5 246t217.5 93q131 0 217 -93.5t86 -246.5zM2126 315q0 -153 -85 -246t-217 -93t-217 93t-85 247t85 246.5t217 92.5t217 -93t85 -247zM1140 88q156 0 156 227q0 49 -10.5 90t-28.5 67.5t-41.5 45t-49 22.5t-51.5 0.5t-49 -22t-41 -45t-29 -67.5t-11 -90
q0 -228 155 -228zM1822 88q156 0 156 227q0 49 -10.5 90t-28.5 67.5t-41.5 45t-49 22.5t-51.5 0.5t-49 -22t-41 -45t-29 -67.5t-11 -90q0 -228 155 -228z" />
    <glyph glyph-name="guilsinglleft" unicode="&#x2039;" horiz-adv-x="495" 
d="M94 379v135l307 264v-166l-190 -166l190 -163v-168z" />
    <glyph glyph-name="guilsinglright" unicode="&#x203a;" horiz-adv-x="495" 
d="M401 514v-135l-307 -264v168l191 163l-191 166v166z" />
    <glyph glyph-name="fraction" unicode="&#x2044;" horiz-adv-x="1003" 
d="M991 1290l-831 -1290h-140l832 1290h139z" />
    <glyph glyph-name="Euro" unicode="&#x20ac;" horiz-adv-x="1255" 
d="M344 459q64 -334 348 -334q151 0 234.5 85.5t95.5 268.5h166q-16 -241 -147 -372t-347 -131q-213 0 -348.5 127t-177.5 356h-137v110h123q-2 34 -2 74q0 42 2 72h-123v110h135q42 231 179 361t350 129q217 0 347.5 -132.5t145.5 -370.5h-166q-12 176 -98 265t-240 88
q-279 0 -342 -340h375v-110h-387q-2 -30 -2 -72q0 -40 2 -74h368v-110h-354z" />
    <glyph glyph-name="uni2117" unicode="&#x2117;" horiz-adv-x="1482" 
d="M266 166q-194 191 -194 479q0 189 89.5 343t242.5 240t338 86t338 -86t242.5 -240t89.5 -343q0 -142 -52.5 -266.5t-142 -212.5t-213.5 -139t-263 -51q-282 0 -475 190zM334 1057q-166 -163 -166 -412q0 -162 76.5 -294.5t208 -206.5t289.5 -74t289.5 74.5t207.5 206.5
t76 294t-76.5 294.5t-208 207t-289.5 74.5q-240 0 -407 -164zM609 544v-271h-99v729h264q134 0 209 -60.5t75 -167.5t-74.5 -168.5t-209.5 -61.5h-165zM609 627h163q95 0 148 39.5t53 112.5q0 141 -201 141h-163v-293z" />
    <glyph glyph-name="trademark" unicode="&#x2122;" horiz-adv-x="1292" 
d="M328 758h-89v453h-190v79h485v-79h-206v-453zM679 1216v-458h-73v532h125l154 -434l158 434h122v-532h-77v458h-5l-164 -458h-66l-171 458h-3z" />
    <glyph glyph-name="minus" unicode="&#x2212;" horiz-adv-x="1265" 
d="M111 567v144h1046v-144h-1046z" />
    <glyph glyph-name="approxequal" unicode="&#x2248;" horiz-adv-x="1294" 
d="M406 909q90 0 240 -45t237 -45q142 0 288 92v-141q-142 -94 -288 -94q-88 0 -238 45t-239 45q-140 0 -283 -92v141q146 94 283 94zM406 602q92 0 240 -46t237 -46q142 0 288 94v-141q-146 -94 -288 -94q-90 0 -238 46t-239 46q-137 0 -283 -94v141q142 94 283 94z" />
    <glyph glyph-name="notequal" unicode="&#x2260;" horiz-adv-x="1294" 
d="M123 731v137h622l195 256h147l-194 -256h278v-137h-380l-146 -190h526v-138h-628l-189 -249h-147l188 249h-272v138h375l145 190h-520z" />
    <glyph glyph-name="lessequal" unicode="&#x2264;" horiz-adv-x="960" 
d="M80 690v168l801 363v-156l-648 -291l648 -293v-155zM80 80v143h801v-143h-801z" />
    <glyph glyph-name="greaterequal" unicode="&#x2265;" horiz-adv-x="960" 
d="M881 858v-168l-801 -364v155l647 293l-647 291v156zM881 223v-143h-801v143h801z" />
    <glyph glyph-name="backslash.cap" horiz-adv-x="667" 
d="M162 1290l506 -1290h-162l-506 1290h162z" />
    <glyph glyph-name="periodcentered.cap" horiz-adv-x="374" 
d="M84 543v205h205v-205h-205z" />
    <glyph glyph-name="bullet.cap" horiz-adv-x="684" 
d="M517 824q73 -70 73 -178q0 -107 -71.5 -177t-177.5 -70q-106 1 -176.5 70.5t-70.5 176.5t70.5 178t175.5 71q103 0 177 -71z" />
    <glyph glyph-name="exclamdown.cap" horiz-adv-x="391" 
d="M94 1085v205h205v-205h-205zM287 0h-183v360l52 592h82l49 -592v-360z" />
    <glyph glyph-name="questiondown.cap" horiz-adv-x="999" 
d="M623 1290v-205h-205v205h205zM594 946q0 -92 -35.5 -156t-142.5 -150l-30 -24q-6 -6 -26 -23q-29 -25 -52 -51q-19 -22 -48 -76q-18 -34 -18 -122q0 -94 67 -159t189 -65q127 0 198.5 79.5t71.5 222.5q0 59 -14 117l176 -9q12 -62 12 -120q0 -199 -123 -317t-333 -118
q-204 0 -316.5 106t-112.5 277q0 113 61.5 198.5t209.5 205.5q58 47 81 86t25 98h160z" />
    <glyph glyph-name="slash.cap" horiz-adv-x="667" 
d="M0 0l506 1290h162l-506 -1290h-162z" />
    <glyph glyph-name="colon.tab" horiz-adv-x="614" 
d="M205 649v205h205v-205h-205zM205 0v205h205v-205h-205z" />
    <glyph glyph-name="comma.tab" horiz-adv-x="614" 
d="M205 0v205h205v-201q0 -118 -45.5 -172.5t-159.5 -56.5v100q56 4 76 30.5t20 94.5h-96z" />
    <glyph glyph-name="period.tab" horiz-adv-x="614" 
d="M205 0v205h205v-205h-205z" />
    <glyph glyph-name="semicolon.tab" horiz-adv-x="614" 
d="M205 649v205h205v-205h-205zM205 0v205h205v-201q0 -118 -45.5 -172.5t-159.5 -56.5v100q56 4 76 30.5t20 94.5h-96z" />
    <glyph glyph-name="braceleft.cap" horiz-adv-x="600" 
d="M55 559v129h51q60 0 78.5 30t18.5 120v340q0 206 186 206h121v-129h-82q-63 0 -63 -75v-349q0 -95 -33 -144.5t-111 -63.5q78 -12 111 -63t33 -146v-348q0 -76 63 -76h82v-129h-121q-186 0 -186 207v342q0 90 -18 119.5t-79 29.5h-51z" />
    <glyph glyph-name="braceright.cap" horiz-adv-x="600" 
d="M545 688v-129h-51q-59 0 -78 -30.5t-19 -118.5v-342q0 -207 -186 -207h-123v129h82q63 0 63 76v348q0 182 146 209q-146 27 -146 208v349q0 75 -63 75h-82v129h123q186 0 186 -206v-340q0 -90 18 -120t79 -30h51z" />
    <glyph glyph-name="bracketleft.cap" horiz-adv-x="569" 
d="M295 1255v-1265h184v-129h-344v1523h344v-129h-184z" />
    <glyph glyph-name="bracketright.cap" horiz-adv-x="569" 
d="M272 -10v1265h-184v129h346v-1523h-346v129h184z" />
    <glyph glyph-name="parenleft.cap" horiz-adv-x="591" 
d="M159 210q-75 202 -75 413q0 212 75.5 413.5t209.5 347.5h170q-277 -314 -277 -761q0 -446 277 -762h-170q-135 147 -210 349z" />
    <glyph glyph-name="parenright.cap" horiz-adv-x="591" 
d="M433 1036q75 -202 75 -413q0 -212 -75 -414t-210 -348h-170q277 314 277 761q0 446 -277 762h170q135 -146 210 -348z" />
    <glyph glyph-name="emdash.cap" horiz-adv-x="2048" 
d="M117 582v125h1814v-125h-1814z" />
    <glyph glyph-name="endash.cap" 
d="M117 582v125h790v-125h-790z" />
    <glyph glyph-name="hyphen.cap" horiz-adv-x="704" 
d="M117 569v152h471v-152h-471z" />
    <glyph glyph-name="guillemotleft.cap" horiz-adv-x="831" 
d="M94 559v135l307 264v-165l-190 -166l190 -166v-166zM430 559v135l307 264v-165l-190 -166l190 -166v-166z" />
    <glyph glyph-name="guillemotright.cap" horiz-adv-x="831" 
d="M401 694v-135l-307 -264v166l191 166l-191 166v165zM737 694v-135l-307 -264v166l191 166l-191 166v165z" />
    <glyph glyph-name="guilsinglleft.cap" horiz-adv-x="495" 
d="M94 559v135l307 264v-165l-190 -166l190 -166v-166z" />
    <glyph glyph-name="guilsinglright.cap" horiz-adv-x="495" 
d="M401 694v-135l-307 -264v166l191 166l-191 166v165z" />
    <glyph glyph-name="space.tab" horiz-adv-x="614" 
 />
    <glyph glyph-name="space_dotbelowcomb" 
d="M422 -352v194h178v-194h-178z" />
    <glyph glyph-name="uni00200326" 
d="M420 -246v142h184v-111q0 -180 -184 -180v71q42 0 59.5 17.5t20.5 60.5h-80z" />
    <glyph glyph-name="uni00200326.alt" 
d="M604 1206v-141h-184v111q0 180 184 180v-72q-43 0 -60 -17t-20 -61h80z" />
    <glyph glyph-name="at.cap" horiz-adv-x="1556" 
d="M1063 510q-30 -119 74 -119q108 0 170.5 98t62.5 295q0 208 -141.5 340.5t-380.5 132.5q-292 0 -471.5 -184.5t-179.5 -480.5q0 -167 76.5 -295.5t207.5 -196.5t292 -68q243 0 433 93l45 -88q-195 -117 -487 -117q-196 0 -352.5 79.5t-250 237t-93.5 369.5
q0 162 56.5 303t157.5 242.5t247.5 160t318.5 58.5q148 0 270.5 -44.5t205.5 -122.5t129 -186t46 -233q1 -242 -107 -373t-278 -132q-80 -1 -131.5 38t-69.5 107q-51 -91 -140 -124.5t-170.5 -14.5t-131.5 71q-49 51 -66 137.5t7.5 191t91.5 191.5q106 136 276 136
q81 0 141.5 -35.5t82.5 -93.5l30 112h152zM792 899q-95 0 -163 -100t-68 -232q0 -166 137 -166q80 0 146 59t92 163l12 49q24 101 -18 164.5t-138 62.5z" />
    <glyph glyph-name="bar.cap" horiz-adv-x="403" 
d="M125 0v1290h154v-1290h-154z" />
    <glyph glyph-name="caron.Slovak" 
d="M498 1020h-97l31 270h189z" />
    <glyph glyph-name="cedilla.alt" horiz-adv-x="1173" 
d="M742 -98q69 -31 70.5 -110t-64.5 -115q-47 -25 -112.5 -34t-143 9.5t-134.5 66.5l35 66q87 -66 187 -66t100 62q0 37 -30 52q-57 29 -144 -9l-41 22l121 177h80l-86 -115q92 26 162 -6z" />
    <glyph glyph-name="acute.cap" 
d="M471 1384h-119l111 258h207z" />
    <glyph glyph-name="breve.cap" 
d="M512 1378q-115 0 -176 67.5t-62 196.5h119q0 -143 119 -143t119 143h119q0 -131 -61.5 -197.5t-176.5 -66.5z" />
    <glyph glyph-name="caron.cap" 
d="M610 1384h-196l-164 258h123l139 -151l139 151h123z" />
    <glyph glyph-name="circumflex.cap" 
d="M414 1642h196l164 -258h-123l-139 152l-139 -152h-123z" />
    <glyph glyph-name="dieresis.cap" 
d="M287 1395v192h168v-192h-168zM569 1395v192h166v-192h-166z" />
    <glyph glyph-name="dotaccent.cap" 
d="M422 1395v192h178v-192h-178z" />
    <glyph glyph-name="grave.cap" 
d="M670 1384h-119l-199 258h207z" />
    <glyph glyph-name="hungarumlaut.cap" 
d="M334 1384h-107l105 258h194zM604 1384h-106l104 258h195z" />
    <glyph glyph-name="macron.cap" 
d="M246 1399v129h530v-129h-530z" />
    <glyph glyph-name="ring.cap" 
d="M382 1399q-50 50 -50 124q0 76 50 124.5t130 48.5t130 -48.5t50 -124.5t-50 -124.5t-130 -48.5q-81 0 -130 49zM576 1588q-24 24 -64 24t-64 -24t-24 -65t22.5 -65t65.5 -24q42 0 65 23.5t23 65.5q0 41 -24 65z" />
    <glyph glyph-name="tilde.cap" 
d="M211 1382q0 113 44 179.5t115 66.5q69 0 148 -59t117 -59q37 0 52.5 26t21.5 86h102q0 -114 -42.5 -180t-114.5 -66t-150 60q-41 32 -73 46.5t-58 13t-41.5 -30t-18.5 -83.5h-102z" />
    <glyph glyph-name="_142" horiz-adv-x="1200" 
d="M50 1142h1107v-129h-1107v129zM1013 766q0 24 -29 47t-68 23q-35 0 -63.5 -16.5t-28.5 -37.5q0 -31 16.5 -49t68.5 -29l47 -10q43 -9 66 -15t52.5 -17t43.5 -24t25 -34t12 -48q2 -74 -64 -119.5t-172 -45.5q-120 0 -183 60t-63 138l128 -2q0 -8 4.5 -20.5t16 -29t38 -28
t62.5 -11.5q43 0 70 15t27 35q0 40 -104 63q-100 21 -164 57q-64 35 -64 111q0 73 65.5 119t166.5 46q104 0 165.5 -53.5t61.5 -124.5h-133zM196 693h267v-123h-267v-179h-145v550h464v-123h-319v-125zM502 458q0 -26 20.5 -45t48.5 -19q30 0 51 18.5t21 45.5
q0 26 -21.5 45.5t-50.5 19.5q-28 0 -48.5 -19.5t-20.5 -45.5zM47 322h1107v-129h-1107v129z" />
    </font>
</defs>
</svg>
