<?xml version="1.0" standalone="no"?>
<!DOCTYPE svg PUBLIC "-//W3C//DTD SVG 1.1//EN" "http://www.w3.org/Graphics/SVG/1.1/DTD/svg11.dtd" >
<svg xmlns="http://www.w3.org/2000/svg" xmlns:xlink="http://www.w3.org/1999/xlink" version="1.1">
<metadata>
Created by FontForge 20170731 at Sun Apr  8 17:53:11 2018
 By Aleksey,,,
Copyright (c) 2018 by Fontastica. All rights reserved.
</metadata>
<defs>
<font id="ExensaGrotesk-Bold" horiz-adv-x="1024" >
  <font-face 
    font-family="Exensa Grotesk Bold"
    font-weight="700"
    font-stretch="normal"
    units-per-em="2048"
    panose-1="0 0 0 0 0 0 0 0 0 0"
    ascent="1290"
    descent="-758"
    x-height="895"
    cap-height="1290"
    bbox="-111 -395 2126 1696"
    underline-thickness="81"
    underline-position="-302"
    unicode-range="U+000D-2265"
  />
<missing-glyph horiz-adv-x="1245" 
 />
    <glyph glyph-name=".notdef" horiz-adv-x="1245" 
 />
    <glyph glyph-name="uni0000" horiz-adv-x="0" 
 />
    <glyph glyph-name="uni0000" horiz-adv-x="0" 
 />
    <glyph glyph-name="uni000D" unicode="&#xd;" horiz-adv-x="681" 
 />
    <glyph glyph-name="space" unicode=" " horiz-adv-x="368" 
 />
    <glyph glyph-name="exclam" unicode="!" horiz-adv-x="391" 
d="M245 330h-96l-46 559v401h186v-401zM94 0v230h205v-230h-205z" />
    <glyph glyph-name="quotedbl" unicode="&#x22;" horiz-adv-x="591" 
d="M94 834v456h164v-456h-164zM334 834v456h164v-456h-164z" />
    <glyph glyph-name="numbersign" unicode="#" horiz-adv-x="1245" 
d="M1180 810h-214l-77 -330h234l-27 -146h-242l-80 -334h-171l79 334h-266l-80 -334h-169l80 334h-209l27 146h217l77 330h-237l28 148h243l80 332h171l-80 -332h265l80 332h171l-80 -332h207zM528 810l-77 -330h266l77 330h-266z" />
    <glyph glyph-name="dollar" unicode="$" horiz-adv-x="1134" 
d="M638 -25v-184h-141v187q-211 24 -331.5 144t-120.5 334h182q6 -142 74.5 -216t195.5 -97v421l-95 20q-151 33 -233 115q-88 89 -88 248t113 259.5t303 110.5v176h141v-183q191 -26 295 -142t106 -319h-181q-4 128 -59.5 198.5t-160.5 94.5v-414l73 -15q182 -35 268 -120
t86 -245q0 -159 -118.5 -260t-308.5 -113zM497 1155q-108 -7 -165 -57q-61 -55 -61 -144q0 -42 13.5 -74t31.5 -51t52.5 -34t59 -22t69.5 -17v399zM649 536l-11 3v-403q111 11 173 65t62 136q-1 84 -51.5 129t-172.5 70z" />
    <glyph glyph-name="percent" unicode="%" horiz-adv-x="1499" 
d="M367 621q-134 0 -222 94t-88 253q0 156 87.5 251.5t222.5 95.5q136 0 224 -95.5t88 -251.5t-87.5 -251.5t-224.5 -95.5zM504 -1h-170l664 1292h167zM368 1175q-139 0 -139 -207q0 -208 139 -208q138 0 138 208q0 207 -138 207zM1133 -24q-135 0 -223.5 96t-88.5 251
q0 156 88 251t224 95q135 0 223 -95.5t88 -251.5q0 -155 -88 -250.5t-223 -95.5zM1132 531q-54 0 -95.5 -53.5t-41.5 -154.5q-1 -208 137 -208t138 207q0 100 -41.5 154t-96.5 55z" />
    <glyph glyph-name="ampersand" unicode="&#x26;" horiz-adv-x="1273" 
d="M857 111q-170 -135 -362 -135q-200 0 -320 97t-120 264q0 119 65.5 206t198.5 160q-124 153 -124 288q0 142 98 232.5t252 91.5q150 1 237.5 -79.5t87.5 -210.5q0 -118 -64.5 -196.5t-213.5 -155.5l283 -315q54 70 76 108q36 62 57 153h174q-31 -123 -77 -207t-122 -177
q52 -57 90 -74.5t109 -15.5v-155q-118 -9 -178 14t-147 107zM546 1161q-72 0 -118.5 -44t-46.5 -111q0 -62 23.5 -105.5t85.5 -113.5q117 54 160.5 102.5t43.5 117.5q0 72 -38.5 113t-109.5 41zM422 587q-90 -49 -130 -105.5t-40 -142.5q0 -88 64.5 -143.5t166.5 -56.5
q142 0 263 88z" />
    <glyph glyph-name="quotesingle" unicode="'" horiz-adv-x="337" 
d="M94 834v456h150v-456h-150z" />
    <glyph glyph-name="parenleft" unicode="(" horiz-adv-x="591" 
d="M359 -172q-131 149 -203 350.5t-72 411.5t72 411t203 351h197q-277 -329 -277 -762t277 -762h-197z" />
    <glyph glyph-name="parenright" unicode=")" horiz-adv-x="591" 
d="M233 -172h-197q277 329 277 762t-277 762h197q131 -149 204 -352q71 -202 71 -410q0 -210 -72 -411.5t-203 -350.5z" />
    <glyph glyph-name="asterisk" unicode="*" horiz-adv-x="733" 
d="M481 938l143 -193l-116 -83l-139 191l-141 -195l-113 87l140 190l-230 74l47 136l223 -79v243h143v-241l228 79l45 -136z" />
    <glyph glyph-name="plus" unicode="+" horiz-adv-x="1265" 
d="M718 554v-439h-170v439h-437v170h437v439h170v-439h439v-170h-439z" />
    <glyph glyph-name="comma" unicode="," horiz-adv-x="360" 
d="M78 -225v121q49 3 66 21t18 68h-84v220h205v-202q0 -116 -45.5 -171t-159.5 -57z" />
    <glyph glyph-name="hyphen" unicode="-" horiz-adv-x="704" 
d="M117 446v152h471v-152h-471z" />
    <glyph glyph-name="period" unicode="." horiz-adv-x="360" 
d="M78 0v205h205v-205h-205z" />
    <glyph glyph-name="slash" unicode="/" horiz-adv-x="649" 
d="M139 -170h-186l512 1520h184z" />
    <glyph glyph-name="zero" unicode="0" horiz-adv-x="1204" 
d="M602 -24q-255 0 -394.5 176t-139.5 493t139.5 493.5t394.5 176.5t396 -176.5t141 -493.5q0 -316 -141 -492.5t-396 -176.5zM602 1145q-326 0 -326 -500t326 -500t326 500t-326 500z" />
    <glyph glyph-name="one" unicode="1" horiz-adv-x="591" 
d="M246 0v965h-226v141q127 0 189.5 43t98.5 149h132v-1298h-194z" />
    <glyph glyph-name="two" unicode="2" horiz-adv-x="1034" 
d="M53 0v175l360 258q82 59 139 118q15 16 30.5 34t35 41.5t33.5 39.5q64 75 86.5 157t8.5 146.5t-55 109.5q-59 65 -178 65q-117 0 -182.5 -73.5t-65.5 -207.5q0 -54 18 -129l-201 10q-16 79 -16 132q0 202 122.5 320.5t333.5 118.5q204 -1 319.5 -110.5t115.5 -282.5
q0 -160 -92.5 -294.5t-286.5 -278.5l-231 -173l654 4v-180h-948z" />
    <glyph glyph-name="three" unicode="3" horiz-adv-x="1056" 
d="M531 -24q-223 0 -354.5 127t-131.5 353l198 -9q2 -149 78.5 -225t210.5 -77q132 0 202 57q69 54 69 154q0 97 -69.5 155t-166.5 58q-119 0 -179 -10v177q60 -8 171 -8q96 0 159 50.5t62 147.5q0 105 -62.5 162t-185.5 57q-126 0 -198.5 -82t-70.5 -235l-196 7
q0 216 127.5 347.5t339.5 132.5q208 1 326.5 -99.5t119.5 -272.5q0 -100 -55.5 -178.5t-141.5 -111.5q100 -31 161.5 -113t61.5 -191q0 -170 -129 -271.5t-346 -101.5z" />
    <glyph glyph-name="four" unicode="4" horiz-adv-x="1120" 
d="M891 336v-336h-198v336h-660v167l627 787h231v-783h215v-171h-215zM693 1077l-447 -570h447v570z" />
    <glyph glyph-name="five" unicode="5" horiz-adv-x="1075" 
d="M541 -25q-224 0 -349 118.5t-115 343.5h195q0 -148 71 -221t205 -73q130 1 203 77.5t73 204.5q0 127 -72.5 203t-196.5 76q-94 0 -159 -34.5t-107 -113.5h-197q73 395 83 734h778v-186h-617q-11 -144 -37 -307q51 43 119.5 59t162.5 16q201 0 320 -124t119 -323
t-131 -325t-348 -125z" />
    <glyph glyph-name="six" unicode="6" horiz-adv-x="1122" 
d="M591 -25q-252 0 -387.5 172.5t-135.5 480.5q0 205 58.5 358t179.5 241t293 88q194 0 314.5 -108t139.5 -302h-194q-19 127 -83 185t-179 58q-327 0 -346 -429q88 151 358 151q205 0 329.5 -123t124.5 -322q0 -200 -129.5 -325t-342.5 -125zM583 703q-133 0 -208.5 -74.5
t-75.5 -203.5q0 -128 78 -204t210 -76t207 75t75 204q0 130 -76 204.5t-210 74.5z" />
    <glyph glyph-name="seven" unicode="7" horiz-adv-x="987" 
d="M532 0h-215q4 332 104.5 615.5t285.5 488.5h-668v186h909v-176q-211 -222 -312 -486.5t-104 -627.5z" />
    <glyph glyph-name="eight" unicode="8" horiz-adv-x="1079" 
d="M541 -25q-225 0 -358 100t-132 274q0 109 64 191t163 114q-181 87 -181 295q0 167 124 267t319 99q195 0 319 -99.5t123 -266.5q0 -208 -181 -295q100 -32 162.5 -114t62.5 -191q0 -175 -130.5 -274.5t-354.5 -99.5zM721 1100q-67 58 -180 58q-115 0 -180.5 -57.5
t-65.5 -159.5t64.5 -157.5t180.5 -55.5t181.5 55.5t64.5 157.5q0 103 -65 159zM750 513q-73 56 -209 56q-139 0 -211 -55t-70 -158q1 -105 72 -163t208 -58q136 0 208 58t72 162t-70 158z" />
    <glyph glyph-name="nine" unicode="9" horiz-adv-x="1122" 
d="M523 -23q-194 -1 -314.5 107.5t-139.5 302.5h194q19 -127 83 -185t179 -58q327 0 346 429q-88 -151 -358 -151q-205 0 -329.5 123t-124.5 322q0 200 129.5 325t342.5 125q252 0 387.5 -172.5t135.5 -480.5q0 -313 -137 -499.5t-394 -187.5zM535 1147q-132 0 -207 -75
t-75 -204q0 -130 76 -204.5t210 -74.5q133 0 208.5 74.5t75.5 203.5q0 128 -78 204t-210 76z" />
    <glyph glyph-name="colon" unicode=":" horiz-adv-x="360" 
d="M78 627v227h205v-227h-205zM78 0v227h205v-227h-205z" />
    <glyph glyph-name="semicolon" unicode=";" horiz-adv-x="360" 
d="M78 625v229h205v-229h-205zM78 -225v126q49 3 65.5 21.5t18.5 71.5h-84v229h205v-211q0 -121 -45.5 -178t-159.5 -59z" />
    <glyph glyph-name="less" unicode="&#x3c;" horiz-adv-x="948" 
d="M82 537v196l799 430v-195l-627 -333l627 -333v-197z" />
    <glyph glyph-name="equal" unicode="=" horiz-adv-x="1294" 
d="M123 711v159h1048v-159h-1048zM123 401v160h1048v-160h-1048z" />
    <glyph glyph-name="greater" unicode="&#x3e;" horiz-adv-x="948" 
d="M68 105v197l624 333l-624 333v195l796 -430v-196z" />
    <glyph glyph-name="question" unicode="?" horiz-adv-x="999" 
d="M676 520q-56 -46 -76.5 -83.5t-22.5 -100.5h-182q0 105 38 177.5t140 148.5q15 11 70 62q92 84 92 215q0 86 -61 145.5t-172 59.5q-116 0 -182 -73.5t-66 -207.5q0 -56 20 -129l-202 10q-15 78 -15 132q-1 201 123 320t333 119q203 -1 316.5 -108.5t112.5 -280.5
q0 -80 -33 -149t-85 -123.5t-148 -133.5zM367 0v230h227v-230h-227z" />
    <glyph glyph-name="at" unicode="@" horiz-adv-x="1556" 
d="M1107 63q-73 0 -124.5 32.5t-76.5 89.5q-84 -122 -242 -122q-124 0 -197.5 79t-74.5 216q0 118 47.5 221t137.5 167t203 64q70 0 127 -27t88 -73l23 84h179l-126 -494q-13 -52 2 -75t57 -23q97 0 155 91.5t58 279.5q0 196 -134 322t-362 127q-185 0 -327 -80.5
t-219 -225.5t-77 -332q0 -239 156.5 -386t392.5 -147q234 0 431 95l57 -111q-207 -124 -497 -124q-146 0 -272.5 47t-221 133t-148.5 217t-54 290q0 161 56.5 302t157.5 242.5t247 160t318 58.5q295 0 473 -165.5t179 -423.5q0 -243 -109.5 -376t-282.5 -133zM915 614
q-35 56 -123 56q-86 0 -149 -92.5t-63 -217.5q0 -68 27 -106t66.5 -42.5t82 10t75.5 43.5q63 55 88 153l11 48q22 88 -15 148z" />
    <glyph glyph-name="A" unicode="A" horiz-adv-x="1306" 
d="M1074 0l-152 370h-555l-147 -370h-202l526 1290h209l536 -1290h-215zM647 1045l-213 -507h420z" />
    <glyph glyph-name="B" unicode="B" horiz-adv-x="1210" 
d="M673 0h-548v1290h525q225 0 339 -91t114 -260q0 -96 -46.5 -167t-129.5 -102q101 -32 156.5 -112t55.5 -197q0 -173 -122 -267t-344 -94zM656 1119h-335v-373h335q245 0 245 185q0 89 -60.5 138.5t-184.5 49.5zM669 582h-348v-411h348q133 0 201.5 53.5t68.5 149.5
q0 98 -68.5 153t-201.5 55z" />
    <glyph glyph-name="C" unicode="C" horiz-adv-x="1363" 
d="M698 -25q-270 0 -451 187q-181 188 -181 483q0 193 82.5 346t226.5 238t323 85q244 0 398 -129t196 -362h-197q-29 152 -131.5 233.5t-267.5 81.5q-186 0 -304.5 -134.5t-118.5 -358.5t118.5 -358t304.5 -134q163 0 267 86t133 240h197q-41 -237 -195.5 -370t-399.5 -134
z" />
    <glyph glyph-name="D" unicode="D" horiz-adv-x="1316" 
d="M595 0h-470v1290h470q304 0 481 -173t177 -472t-177 -472t-481 -173zM585 1119h-257v-948h257q224 0 347 124t122 350q0 226 -123 350t-346 124z" />
    <glyph glyph-name="E" unicode="E" horiz-adv-x="1122" 
d="M125 0v1290h902v-173h-706v-367h644v-171h-644v-406h723v-173h-919z" />
    <glyph glyph-name="F" unicode="F" horiz-adv-x="1056" 
d="M324 1117v-389h584v-174h-584v-554h-199v1290h881v-173h-682z" />
    <glyph glyph-name="G" unicode="G" horiz-adv-x="1409" 
d="M701 -24q-280 0 -457.5 186.5t-177.5 482.5q0 195 80.5 347.5t225.5 237t330 84.5q280 0 457 -186q50 -54 78.5 -119t57.5 -171h-191q-46 146 -150.5 222.5t-252.5 76.5q-195 0 -312.5 -133.5t-117.5 -358.5q0 -226 117.5 -359t313.5 -133q166 0 274.5 94.5t128.5 253.5
l-418 1l1 187h609v-173q-31 -246 -191 -393t-405 -147z" />
    <glyph glyph-name="H" unicode="H" horiz-adv-x="1347" 
d="M1020 0v572h-693v-572h-202v1290h202v-534h693v534h203v-1290h-203z" />
    <glyph glyph-name="I" unicode="I" horiz-adv-x="428" 
d="M115 0v1290h198v-1290h-198z" />
    <glyph glyph-name="J" unicode="J" horiz-adv-x="1044" 
d="M489 -25q-212 0 -334.5 124t-129.5 360h191q10 -160 79 -236t197 -76q247 0 247 301v842h199v-846q0 -226 -119 -347.5t-330 -121.5z" />
    <glyph glyph-name="K" unicode="K" horiz-adv-x="1196" 
d="M970 0l-512 591l-131 -132v-459h-202v1290h202v-601l588 601h246l-555 -569l611 -721h-247z" />
    <glyph glyph-name="L" unicode="L" horiz-adv-x="1073" 
d="M125 0v1290h201v-1117h696v-173h-897z" />
    <glyph glyph-name="M" unicode="M" horiz-adv-x="1527" 
d="M317 1036v-1036h-192v1290h304l333 -1000l341 1000h300v-1290h-203v1034l-351 -1034h-168z" />
    <glyph glyph-name="N" unicode="N" horiz-adv-x="1306" 
d="M1022 0l-706 955v-955h-191v1290h178l688 -935v935h191v-1290h-160z" />
    <glyph glyph-name="O" unicode="O" horiz-adv-x="1411" 
d="M706 -24q-282 0 -461 186.5t-179 482.5t179 482.5t462 186.5t462 -186q179 -188 179 -483q0 -195 -81.5 -347.5t-228 -237t-332.5 -84.5zM706 1137q-197 0 -315 -133t-118 -359t118 -359t316 -133t314.5 132.5t116.5 359.5q-1 227 -118 359.5t-314 132.5z" />
    <glyph glyph-name="P" unicode="P" horiz-adv-x="1138" 
d="M594 470h-269v-470h-200v1290h469q236 0 369 -107.5t133 -300.5t-133 -302.5t-369 -109.5zM591 1119h-266v-477h266q159 0 245 64.5t86 182.5q0 230 -331 230z" />
    <glyph glyph-name="Q" unicode="Q" horiz-adv-x="1411" 
d="M1193 193l123 -136l-133 -111l-123 134q-82 -55 -186.5 -81.5t-213.5 -22t-219.5 53t-195.5 137.5q-179 187 -179 483t179 482.5t462 186.5q284 0 462 -187q179 -187 179 -474q0 -280 -155 -465zM706 1142q-197 0 -315 -133.5t-118 -359.5q0 -229 114 -365t310 -136
q145 0 242 64l-243 271l135 115l232 -261q75 124 75 325q0 216 -118.5 348t-313.5 132z" />
    <glyph glyph-name="R" unicode="R" horiz-adv-x="1226" 
d="M957 0q-37 12 -49 99q-8 54 -15 189q-13 220 -230 220h-340v-508h-198v1290h524q236 0 361.5 -101t125.5 -286q0 -124 -57 -205.5t-160 -110.5q81 -31 121 -97.5t49 -171.5q11 -140 24 -212q5 -28 17 -51t42 -55h-215zM639 1119h-316v-443h316q293 0 293 221
q0 106 -72.5 164t-220.5 58z" />
    <glyph glyph-name="S" unicode="S" horiz-adv-x="1148" 
d="M578 -24q-115 0 -210 28t-168 83.5t-114 146t-41 208.5h184q2 -58 16 -97.5t32.5 -61t57.5 -55.5q101 -87 246 -87q146 0 224 54t78 142q0 85 -51.5 129.5t-175.5 68.5l-248 48q-325 62 -325 347q0 175 127.5 279.5t349.5 104.5q230 0 363 -117t135 -344h-187
q-7 299 -313 299q-137 0 -208 -55.5t-71 -147.5q0 -87 46.5 -125t168.5 -62l227 -44q183 -35 269.5 -122.5t86.5 -249.5q0 -168 -137.5 -269t-361.5 -101z" />
    <glyph glyph-name="T" unicode="T" horiz-adv-x="1208" 
d="M700 1117v-1117h-200v1117h-457v173h1122v-173h-465z" />
    <glyph glyph-name="U" unicode="U" horiz-adv-x="1261" 
d="M631 -25q-243 -1 -382.5 129.5t-139.5 392.5v793h200v-795q0 -174 80 -259t242 -85q160 0 243 86t83 255v798h198v-793q0 -259 -140.5 -390.5t-383.5 -131.5z" />
    <glyph glyph-name="V" unicode="V" horiz-adv-x="1280" 
d="M743 0h-208l-517 1290h209l419 -1036l409 1036h207z" />
    <glyph glyph-name="W" unicode="W" horiz-adv-x="1671" 
d="M1320 0h-226l-256 965l-263 -965h-224l-330 1290h199l258 -1001l268 1001h186l274 -1005l252 1005h193z" />
    <glyph glyph-name="X" unicode="X" horiz-adv-x="1245" 
d="M995 0l-381 513l-374 -513h-230l496 664l-453 626h239l335 -467l334 467h231l-455 -615l498 -675h-240z" />
    <glyph glyph-name="Y" unicode="Y" horiz-adv-x="1224" 
d="M710 505v-505h-195v505l-502 785h224l386 -591l371 591h218z" />
    <glyph glyph-name="Z" unicode="Z" horiz-adv-x="1146" 
d="M61 0v163l742 954h-731v173h994v-163l-741 -954h760v-173h-1024z" />
    <glyph glyph-name="bracketleft" unicode="[" horiz-adv-x="569" 
d="M135 -172v1524h344v-156h-169v-1212h169v-156h-344z" />
    <glyph glyph-name="backslash" unicode="\" horiz-adv-x="649" 
d="M512 -170l-512 1520h186l510 -1520h-184z" />
    <glyph glyph-name="bracketright" unicode="]" horiz-adv-x="569" 
d="M88 -172v156h169v1212h-169v156h346v-1524h-346z" />
    <glyph glyph-name="asciicircum" unicode="^" horiz-adv-x="772" 
d="M567 877l-182 256l-182 -256h-196l294 413h168l296 -413h-198z" />
    <glyph glyph-name="underscore" unicode="_" horiz-adv-x="780" 
d="M41 -246v133h698v-133h-698z" />
    <glyph glyph-name="grave" unicode="`" 
d="M541 1032l-203 258h226l113 -258h-136z" />
    <glyph glyph-name="a" unicode="a" horiz-adv-x="928" 
d="M648 -1v99q-89 -122 -298 -122q-121 0 -199.5 70t-78.5 187q0 121 92 193.5t267 92.5l220 25v21q0 86 -50.5 142t-131.5 56q-90 0 -145 -44.5t-49 -129.5h-175q-10 144 91.5 237.5t263.5 93.5q167 0 275 -91t108 -255v-575h-190zM651 406l-177 -20q-114 -12 -162 -46.5
t-48 -93.5q0 -57 34.5 -89t98.5 -32q111 0 182.5 76.5t71.5 199.5v5z" />
    <glyph glyph-name="b" unicode="b" horiz-adv-x="1077" 
d="M605 -25q-212 0 -298 130v-106h-190v1291h194v-486q83 124 296 124q191 1 301 -133t110 -345q0 -210 -110.5 -342.5t-302.5 -132.5zM572 764q-119 0 -192 -77t-73 -210v-50q0 -134 73 -212t192 -78q116 0 181.5 82.5t65.5 230.5q0 149 -65.5 231.5t-181.5 82.5z" />
    <glyph glyph-name="c" unicode="c" horiz-adv-x="997" 
d="M510 -25q-198 0 -324.5 130.5t-126.5 340.5q0 211 127 342.5t324 131.5q176 0 286 -96t140 -263h-173q-40 196 -251 196q-116 0 -195 -85.5t-79 -225.5t79 -224.5t196 -85.5q210 -2 250 197h173q-31 -168 -140.5 -263t-285.5 -95z" />
    <glyph glyph-name="d" unicode="d" horiz-adv-x="1075" 
d="M769 -1v106q-43 -65 -120.5 -98t-177.5 -32q-192 1 -302.5 133t-110.5 342q0 211 110 345t301 133q214 -2 296 -124v486h194v-1291h-190zM769 477q0 133 -73 210t-192 77q-116 0 -181.5 -82.5t-65.5 -231.5q0 -148 65.5 -230.5t181.5 -82.5q119 0 192 78t73 212v50z" />
    <glyph glyph-name="e" unicode="e" horiz-adv-x="1001" 
d="M253 393q10 -114 85.5 -186.5t182.5 -72.5q110 0 169.5 37t85.5 135h166q-20 -86 -55.5 -142.5t-93.5 -102.5q-110 -86 -291 -86q-91 0 -172.5 33.5t-141 92.5t-94.5 146t-35 189q0 209 129 346.5t328 137.5q197 0 311.5 -125.5t114.5 -322.5v-79h-689zM680 695
q-59 71 -166 71q-101 0 -168.5 -66t-86.5 -172h494q-8 89 -73 167z" />
    <glyph glyph-name="f" unicode="f" horiz-adv-x="583" 
d="M580 1038q-20 66 -48 90.5t-79 24.5q-60 0 -89 -32.5t-29 -110.5v-106h242v-149h-242v-755h-189v755h-132v149h132v87q0 148 80 236t220 88q110 0 179 -56t103 -172z" />
    <glyph glyph-name="g" unicode="g" horiz-adv-x="983" 
d="M769 799v97h188v-833q0 -201 -113 -307.5t-340 -106.5q-158 0 -264 62q-133 75 -141 231h183q3 -77 80 -115q64 -30 152 -30q138 0 204 89q34 45 48.5 86t14.5 109v11q-46 -63 -121.5 -95t-162.5 -32q-207 0 -325 139q-110 131 -110 327q0 194 98 325q55 75 144.5 118.5
t209.5 43.5q165 0 255 -119zM717 665q-63 94 -196 94q-134 0 -204 -93q-61 -83 -61 -218q0 -137 53 -223q66 -103 198 -103q137 0 206 104q61 92 61 227q0 124 -57 212z" />
    <glyph glyph-name="h" unicode="h" horiz-adv-x="1015" 
d="M718 0v543q0 108 -48 165.5t-141 57.5q-94 0 -156.5 -69t-62.5 -180v-517h-193v1290h193v-489q42 60 114 93.5t157 33.5q165 1 247.5 -99t82.5 -272v-557h-193z" />
    <glyph glyph-name="i" unicode="i" horiz-adv-x="401" 
d="M105 1073v217h192v-217h-192zM108 0v904h187v-904h-187z" />
    <glyph glyph-name="j" unicode="j" horiz-adv-x="401" 
d="M97 1072v218h192v-218h-192zM50 -369q-60 0 -88 7.5t-73 39.5v166q84 -57 144 -57q35 0 51.5 21t16.5 68v1026h186v-1015q0 -256 -237 -256z" />
    <glyph glyph-name="k" unicode="k" horiz-adv-x="980" 
d="M753 0l-338 418l-105 -93v-325h-193v1290h193v-764l415 378h249l-415 -375l426 -529h-232z" />
    <glyph glyph-name="l" unicode="l" horiz-adv-x="401" 
d="M109 0v1290h186v-1290h-186z" />
    <glyph glyph-name="m" unicode="m" horiz-adv-x="1587" 
d="M1285 0v538q0 114 -44.5 168t-135.5 53q-90 0 -149.5 -67.5t-59.5 -179.5v-512h-196v538q0 114 -44.5 168t-135.5 53q-88 0 -147.5 -68t-59.5 -179v-512h-196v896h196v-110q42 63 110.5 98.5t152.5 35.5q103 0 162 -39.5t94 -124.5q45 74 136 119t189 45q164 1 244 -98
t80 -270v-552h-196z" />
    <glyph glyph-name="n" unicode="n" horiz-adv-x="1015" 
d="M718 0v538q0 108 -48 164.5t-141 56.5q-94 0 -156.5 -68.5t-62.5 -178.5v-512h-193v896h193v-112q43 62 115 99t156 37q165 1 247.5 -98t82.5 -270v-552h-193z" />
    <glyph glyph-name="o" unicode="o" horiz-adv-x="1032" 
d="M514 -24q-199 0 -327 132.5t-128 339.5t129 339.5t327 132.5q197 0 328 -134q130 -134 130 -340q0 -205 -130 -337.5t-329 -132.5zM515 761q-124 0 -190 -85q-68 -85 -68 -230t68.5 -229.5t188.5 -85.5t190.5 85t70.5 232q0 145 -69 229t-191 84z" />
    <glyph glyph-name="p" unicode="p" horiz-adv-x="1077" 
d="M607 -35q-214 0 -296 124v-439h-194v1243h190v-106q86 128 298 130q191 1 302 -131.5t111 -343.5t-110 -344t-301 -133zM572 755q-119 0 -192 -78t-73 -211v-50q0 -133 73 -210t192 -77q116 0 181.5 82.5t65.5 230.5q0 149 -65.5 231t-181.5 82z" />
    <glyph glyph-name="q" unicode="q" horiz-adv-x="1075" 
d="M766 -350v439q-82 -124 -296 -124q-191 0 -301 133t-110 344t111 343.5t302 131.5q212 -2 298 -130v106h190v-1243h-194zM770 466q0 133 -73 211t-192 78q-116 0 -181.5 -82t-65.5 -231q0 -148 65.5 -230.5t181.5 -82.5q119 0 192 77t73 210v50z" />
    <glyph glyph-name="r" unicode="r" horiz-adv-x="677" 
d="M301 743q57 91 135.5 131.5t203.5 37.5v-181q-100 0 -161 -21t-101 -64q-73 -79 -73 -246v-399h-186v893h182v-151z" />
    <glyph glyph-name="s" unicode="s" horiz-adv-x="886" 
d="M454 -25q-173 0 -282.5 82.5t-121.5 249.5h167q12 -97 70.5 -139.5t160.5 -42.5q97 0 147 30t50 82q0 51 -33 77t-119 41l-146 25q-270 48 -270 259q0 128 96 204.5t260 76.5q170 0 270 -81t114 -247h-160q-15 97 -70.5 137.5t-163.5 40.5q-77 0 -121 -32t-44 -83
q0 -87 120 -106l162 -27q146 -23 217 -86t71 -186q0 -126 -103.5 -200.5t-270.5 -74.5z" />
    <glyph glyph-name="t" unicode="t" horiz-adv-x="626" 
d="M140 218v534h-128v149h134v242h183v-242h239v-149h-239v-515q0 -50 22.5 -73.5t61.5 -21t84 19.5t97 47v-153q-41 -32 -97.5 -54t-119 -26t-115.5 14t-87.5 76.5t-34.5 151.5z" />
    <glyph glyph-name="u" unicode="u" horiz-adv-x="1005" 
d="M696 -1v100q-41 -59 -112 -91.5t-155 -32.5q-161 -1 -242 92t-81 274v554h193v-538q0 -108 47 -166t138 -58q92 0 152 68.5t60 181.5v512h193v-896h-193z" />
    <glyph glyph-name="v" unicode="v" horiz-adv-x="931" 
d="M556 0h-180l-369 895h205l263 -642l258 642h192z" />
    <glyph glyph-name="w" unicode="w" horiz-adv-x="1314" 
d="M1019 0h-183l-174 609l-182 -609h-182l-289 895h197l198 -620l178 620h162l182 -620l195 620h184z" />
    <glyph glyph-name="x" unicode="x" horiz-adv-x="956" 
d="M728 0l-259 328l-254 -328h-217l368 461l-339 434h228l224 -290l221 290h213l-330 -427l373 -468h-228z" />
    <glyph glyph-name="y" unicode="y" horiz-adv-x="942" 
d="M424 -344h-193l147 352l-371 887h205l268 -648l261 648h194z" />
    <glyph glyph-name="z" unicode="z" horiz-adv-x="876" 
d="M61 0v147l502 592h-486v156h728v-147l-512 -592h524v-156h-756z" />
    <glyph glyph-name="braceleft" unicode="{" horiz-adv-x="600" 
d="M382 -172q-188 0 -188 218v333q0 85 -14 108.5t-63 23.5h-62v157h62q48 0 62.5 24.5t14.5 108.5v333q0 218 188 218h128v-156h-91q-45 0 -45 -60v-341q0 -161 -98 -205q98 -44 98 -207v-339q0 -60 45 -60h91v-156h-128z" />
    <glyph glyph-name="bar" unicode="|" horiz-adv-x="403" 
d="M125 -170v1520h154v-1520h-154z" />
    <glyph glyph-name="braceright" unicode="}" horiz-adv-x="600" 
d="M483 511q-48 0 -62.5 -24t-14.5 -108v-333q0 -218 -189 -218h-129v156h91q45 0 45 60v339q0 163 102 207q-102 48 -102 205v341q0 60 -45 60h-91v156h129q189 0 189 -218v-333q0 -85 14.5 -109t62.5 -24h62v-157h-62z" />
    <glyph glyph-name="asciitilde" unicode="~" horiz-adv-x="802" 
d="M529 418q-62 0 -141 56q-116 83 -146 34q-13 -20 -18 -85h-128q0 116 44.5 184.5t122.5 68.5q72 0 153 -56q72 -52 104 -52q28 -1 41.5 20.5t17.5 82.5h130q0 -120 -45.5 -187t-134.5 -66z" />
    <glyph glyph-name="exclamdown" unicode="&#xa1;" horiz-adv-x="391" 
d="M96 833v230h205v-230h-205zM105 -227v401l46 559h96l44 -559v-401h-186z" />
    <glyph glyph-name="cent" unicode="&#xa2;" 
d="M600 -23v-178h-140v178q-178 20 -289.5 149t-111.5 320t111.5 320t289.5 152v192h140v-192q162 -19 257 -120.5t109 -268.5h-170q-10 100 -59 155t-137 73v-619q92 17 139.5 68t60.5 161h166q-13 -169 -108 -269.5t-258 -120.5zM460 755q-97 -21 -153 -102t-56 -207
q-1 -124 55.5 -205t153.5 -103v617z" />
    <glyph glyph-name="sterling" unicode="&#xa3;" horiz-adv-x="1157" 
d="M815 -24q-149 0 -319 140q-83 -141 -243 -141q-98 1 -162.5 58.5t-65.5 152.5t63 156.5t153 60.5q71 0 137 -26q-6 90 -53 198h-209v143h144q-38 103 -38 198q0 182 110.5 291t301.5 108q195 -1 307.5 -119t111.5 -328l-181 -10q-1 152 -64 221q-60 69 -172 69
q-107 0 -161.5 -61t-54.5 -163q2 -104 38 -206h316v-143h-262q58 -172 33 -304q52 -40 82 -59q97 -61 185 -61q73 1 109.5 55.5t36.5 175.5l164 -8q4 -190 -74 -294t-233 -104zM263 265q-90 0 -90 -76q0 -36 22.5 -56t59.5 -20q85 0 111 109q-60 43 -103 43z" />
    <glyph glyph-name="yen" unicode="&#xa5;" horiz-adv-x="1177" 
d="M775 682h253v-147h-342v-114h342v-146h-342v-275h-194v275h-342v146h342v114h-342v147h251l-397 608h225l369 -572l357 572h218z" />
    <glyph glyph-name="section" unicode="&#xa7;" horiz-adv-x="913" 
d="M739 265q66 -73 66 -182q0 -121 -98.5 -200.5t-253.5 -79.5q-161 0 -265 88.5t-116 251.5l158 10q14 -97 76 -148.5t148 -51.5q81 0 126 32.5t46 84.5q0 53 -18 79t-74 51l-253 115q-242 109 -242 292q0 164 133 246q-66 75 -66 184q0 122 98.5 200t254.5 78
q161 0 264.5 -88.5t116.5 -251.5l-159 -10q-14 96 -76 148t-147 52q-81 0 -127 -32t-46 -82q0 -52 19.5 -79t73.5 -52l253 -116q124 -57 182.5 -129t58.5 -185q0 -67 -36 -126.5t-97 -98.5zM600 360q97 34 97 124q0 50 -31 84t-109 72l-241 117q-1 1 -3 1t-3 1
q-96 -41 -96 -124q0 -52 31 -86t109 -71z" />
    <glyph glyph-name="dieresis" unicode="&#xa8;" 
d="M287 1081v193h186v-193h-186zM551 1081v193h184v-193h-184z" />
    <glyph glyph-name="copyright" unicode="&#xa9;" horiz-adv-x="1482" 
d="M741 -24q-282 0 -475 190q-194 191 -194 479q0 189 89.5 343t242.5 240t338 86t338 -86t242.5 -240t89.5 -343q0 -142 -52.5 -266.5t-142 -212.5t-213.5 -139t-263 -51zM741 1194q-227 0 -388 -156q-158 -156 -158 -393q0 -155 73 -281t198 -196.5t276 -70.5t276 71
t197.5 197t72.5 280q0 235 -158.5 392t-388.5 157zM749 261q-160 -2 -260 107q-103 109 -103 277t103.5 275.5t259.5 107.5q141 0 230 -75t114 -214h-124q-35 175 -221 177q-102 1 -167.5 -73.5t-65.5 -197.5q0 -124 65.5 -198t167.5 -74q91 0 148 48t74 136h124
q-26 -141 -114.5 -218t-230.5 -78z" />
    <glyph glyph-name="ordfeminine" unicode="&#xaa;" horiz-adv-x="796" 
d="M519 618v67q-70 -84 -218 -84q-91 0 -150.5 53t-59.5 142q0 91 69.5 146t200.5 71l161 18v12q0 62 -37 102.5t-96 40.5q-66 0 -105.5 -33t-34.5 -96h-137q-7 112 69 183t198 71q125 0 206.5 -68.5t81.5 -192.5v-432h-148zM394 906q-84 -9 -118.5 -33.5t-34.5 -66.5
q0 -41 24.5 -63.5t70.5 -22.5q81 0 133.5 55.5t52.5 144.5z" />
    <glyph glyph-name="guillemotleft" unicode="&#xab;" horiz-adv-x="831" 
d="M94 375v143l322 277v-197l-174 -152l174 -149v-199zM415 375v143l322 277v-197l-174 -152l174 -149v-199z" />
    <glyph glyph-name="registered" unicode="&#xae;" horiz-adv-x="825" 
d="M412 584q-153 0 -257.5 104.5t-104.5 260.5t104.5 260.5t257.5 104.5q151 0 258 -104q106 -103 106 -261q0 -156 -105.5 -260.5t-258.5 -104.5zM412 1227q-115 0 -193 -79t-78 -199t78 -199t193 -79t192 79q79 79 79 199t-78 199t-193 79zM512 756q-25 11 -28 93
q-2 27 -14.5 39.5t-40.5 12.5h-87v-145h-77v389h160q70 0 109.5 -32t39.5 -89q0 -66 -48 -92q28 -21 35 -73q2 -17 4.5 -37t2.5 -23q2 -11 25 -43h-81zM423 1076h-81v-107h81q39 0 55.5 13t17.5 40q0 54 -73 54z" />
    <glyph glyph-name="macron" unicode="&#xaf;" 
d="M248 1055v131h526v-131h-526z" />
    <glyph glyph-name="degree" unicode="&#xb0;" horiz-adv-x="694" 
d="M550 836q-83 -80 -204 -80q-120 0 -202.5 80t-82.5 199q0 118 83 199t203 81t203 -81t83 -199q0 -119 -83 -199zM346 1177q-62 0 -100 -40t-38 -101t38.5 -102t99.5 -41q62 0 101 41t39 102t-39 101t-101 40z" />
    <glyph glyph-name="plusminus" unicode="&#xb1;" horiz-adv-x="1265" 
d="M715 701v-373h-167v373h-439v167h439v373h167v-373h442v-167h-442zM109 80v169h1048v-169h-1048z" />
    <glyph glyph-name="acute" unicode="&#xb4;" 
d="M481 1032h-136l113 258h226z" />
    <glyph glyph-name="paragraph" unicode="&#xb6;" horiz-adv-x="1028" 
d="M743 0v1133h-103v-1133h-157v548q-207 4 -324.5 102.5t-117.5 269.5q0 174 121.5 272t334.5 98h404v-1290h-158z" />
    <glyph glyph-name="periodcentered" unicode="&#xb7;" horiz-adv-x="374" 
d="M84 420v205h205v-205h-205z" />
    <glyph glyph-name="cedilla" unicode="&#xb8;" horiz-adv-x="1173" 
d="M354 -276l46 85q92 -68 180 -68q80 0 80 44q0 26 -20 35q-47 24 -130 -11l-58 31l127 183h110l-75 -99q66 10 124 -14q48 -21 66.5 -68t2 -94.5t-61.5 -71.5q-46 -25 -110.5 -33t-142.5 11.5t-138 69.5z" />
    <glyph glyph-name="ordmasculine" unicode="&#xba;" horiz-adv-x="815" 
d="M408 586q-156 0 -257 102.5t-101 262.5t101 262.5t257 102.5t258 -102q102 -104 102 -263q0 -160 -101.5 -262.5t-258.5 -102.5zM408 1174q-84 0 -131 -59.5t-47 -164.5q-1 -105 46.5 -163.5t131.5 -58.5t132 60t48 164t-48 163t-132 59z" />
    <glyph glyph-name="guillemotright" unicode="&#xbb;" horiz-adv-x="831" 
d="M94 98v199l175 149l-175 152v197l322 -277v-143zM415 98v199l175 149l-175 152v197l322 -277v-143z" />
    <glyph glyph-name="questiondown" unicode="&#xbf;" horiz-adv-x="999" 
d="M406 831v230h227v-230h-227zM486 -254q-203 0 -316 108t-113 281q0 80 33 149t85.5 123.5t149.5 133.5q53 43 74 81.5t23 102.5h183q0 -105 -37 -176.5t-141 -149.5l-18 -14q-7 -6 -18.5 -16.5t-16.5 -14.5q-28 -25 -49 -50q-22 -25 -36 -55q-24 -48 -24 -128
q0 -85 60.5 -144.5t172.5 -59.5q116 0 181.5 73.5t65.5 207.5q0 54 -18 129l201 -10q14 -73 14 -132q0 -201 -123.5 -320t-332.5 -119z" />
    <glyph glyph-name="multiply" unicode="&#xd7;" horiz-adv-x="1083" 
d="M855 195l-316 323l-315 -323l-117 117l318 319l-318 321l117 117l315 -324l316 324l118 -117l-319 -321l319 -319z" />
    <glyph glyph-name="divide" unicode="&#xf7;" horiz-adv-x="1265" 
d="M516 938v231h237v-231h-237zM111 554v170h1046v-170h-1046zM516 109v230h237v-230h-237z" />
    <glyph glyph-name="circumflex" unicode="&#x2c6;" 
d="M637 1032l-125 130l-125 -130h-149l174 258h200l174 -258h-149z" />
    <glyph glyph-name="caron" unicode="&#x2c7;" 
d="M612 1032h-200l-174 258h149l125 -131l125 131h149z" />
    <glyph glyph-name="breve" unicode="&#x2d8;" 
d="M512 1026q-115 0 -176 67t-62 197h140q0 -69 24 -98.5t74 -29.5t74 29.5t24 98.5h140q0 -132 -61 -198t-177 -66z" />
    <glyph glyph-name="dotaccent" unicode="&#x2d9;" 
d="M422 1098v192h178v-192h-178z" />
    <glyph glyph-name="ring" unicode="&#x2da;" 
d="M512 998q-79 0 -129.5 48.5t-50.5 123.5t50.5 124t129.5 49t129.5 -49t50.5 -124q0 -76 -50.5 -124t-129.5 -48zM512 1239q-31 0 -49 -18.5t-18 -50.5q0 -68 67 -68q33 0 50 18t17 50t-18 50.5t-49 18.5z" />
    <glyph glyph-name="ogonek" unicode="&#x2db;" 
d="M518 -358q-75 0 -118.5 37t-43.5 104q0 63 43.5 117t136.5 125h137q-108 -95 -144 -140q-30 -39 -30 -73q0 -88 167 -5v-117q-74 -48 -148 -48z" />
    <glyph glyph-name="tilde" unicode="&#x2dc;" 
d="M647 1030q-72 0 -151 56q-75 59 -115 49.5t-45 -100.5h-125q0 113 45 180t121 67q69 0 149 -55q69 -50 103 -50q28 0 40 20t18 80h124q0 -115 -43 -181t-121 -66z" />
    <glyph glyph-name="hungarumlaut" unicode="&#x2dd;" 
d="M350 1032h-130l111 258h223zM607 1032h-129l110 258h223z" />
    <glyph glyph-name="endash" unicode="&#x2013;" 
d="M117 459v125h790v-125h-790z" />
    <glyph glyph-name="emdash" unicode="&#x2014;" horiz-adv-x="2048" 
d="M117 459v125h1814v-125h-1814z" />
    <glyph glyph-name="quoteleft" unicode="&#x2018;" horiz-adv-x="358" 
d="M78 893v191q0 118 44 171t159 54v-119q-49 -4 -66 -21t-18 -67h84v-209h-203z" />
    <glyph glyph-name="quoteright" unicode="&#x2019;" horiz-adv-x="358" 
d="M78 872v121q49 4 65.5 21t17.5 67h-83v209h203v-193q0 -118 -43 -170t-160 -55z" />
    <glyph glyph-name="quotesinglbase" unicode="&#x201a;" horiz-adv-x="358" 
d="M78 -223v120q49 4 65.5 21t17.5 67h-83v210h203v-194q0 -116 -44 -169t-159 -55z" />
    <glyph glyph-name="quotedblleft" unicode="&#x201c;" horiz-adv-x="661" 
d="M78 893v191q0 118 48 171t172 54v-119q-54 -4 -72 -21t-19 -67h91v-209h-220zM364 893v191q0 116 48.5 170t171.5 55v-119q-54 -4 -72 -21t-19 -67h91v-209h-220z" />
    <glyph glyph-name="quotedblright" unicode="&#x201d;" horiz-adv-x="661" 
d="M78 872v121q54 4 71.5 21t18.5 67h-90v209h220v-193q0 -118 -47 -170t-173 -55zM364 872v121q54 4 71.5 21t18.5 67h-90v209h220v-193q0 -118 -47 -170t-173 -55z" />
    <glyph glyph-name="quotedblbase" unicode="&#x201e;" horiz-adv-x="661" 
d="M78 -223v120q53 4 71 21t19 67h-90v210h220v-194q0 -116 -48 -169t-172 -55zM364 -223v120q53 4 71 21t19 67h-90v210h220v-194q0 -116 -48 -169t-172 -55z" />
    <glyph glyph-name="dagger" unicode="&#x2020;" horiz-adv-x="641" 
d="M394 972v-450h-145v450h-204v143h204v194h145v-194h202v-143h-202z" />
    <glyph glyph-name="daggerdbl" unicode="&#x2021;" horiz-adv-x="661" 
d="M402 708v-186h-143v186h-204v139h204v139h-204v137h204v186h143v-186h204v-137h-204v-139h204v-139h-204z" />
    <glyph glyph-name="bullet" unicode="&#x2022;" horiz-adv-x="684" 
d="M341 276q-106 0 -176.5 70t-70.5 177t70.5 178t175.5 71q103 0 177 -71q73 -70 73 -179q0 -107 -72 -176.5t-177 -69.5z" />
    <glyph glyph-name="ellipsis" unicode="&#x2026;" horiz-adv-x="1079" 
d="M78 0v205h228v-205h-228zM427 0v205h227v-205h-227zM774 0v205h227v-205h-227z" />
    <glyph glyph-name="perthousand" unicode="&#x2030;" horiz-adv-x="2174" 
d="M369 621q-135 0 -223 94q-89 93 -89 253q0 156 88 251.5t224 95.5q137 0 225.5 -95.5t88.5 -251.5t-88 -251.5t-226 -95.5zM507 -1h-171l668 1292h168zM370 1175q-140 0 -140 -207q0 -208 140 -208q139 0 139 208q0 207 -139 207zM1140 -24q-136 0 -224.5 96t-88.5 251
q0 156 88.5 251t224.5 95t225 -95.5t89 -251.5q0 -155 -89 -250.5t-225 -95.5zM1814 -24q-137 0 -225 95.5t-88 251.5t88 251t225 95q136 0 224 -95.5t88 -251.5q0 -155 -88 -250.5t-224 -95.5zM1140 531q-55 0 -96.5 -53.5t-42.5 -154.5q0 -208 138 -208q139 0 139 207
q0 100 -41.5 154t-96.5 55zM1812 531q-55 0 -96.5 -53.5t-41.5 -154.5q-1 -208 138 -208t139 207q0 100 -42 154t-97 55z" />
    <glyph glyph-name="guilsinglleft" unicode="&#x2039;" horiz-adv-x="495" 
d="M94 375v143l307 277v-197l-166 -152l166 -149v-199z" />
    <glyph glyph-name="guilsinglright" unicode="&#x203a;" horiz-adv-x="495" 
d="M94 98v199l167 149l-167 152v197l307 -277v-143z" />
    <glyph glyph-name="fraction" unicode="&#x2044;" horiz-adv-x="1003" 
d="M178 0h-170l826 1290h169z" />
    <glyph glyph-name="Euro" unicode="&#x20ac;" horiz-adv-x="1255" 
d="M692 -24q-210 0 -346 125t-179 347h-136v137h119q-1 15 -1 58q0 42 1 56h-119v137h134q44 225 180.5 352.5t347.5 126.5q218 -1 349 -136.5t147 -384.5h-191q-23 345 -316 345q-253 0 -315 -303h362v-137h-378q-1 -14 -1 -56q0 -43 1 -58h359v-137h-341q64 -297 321 -297
q142 0 219 82t89 264h191q-16 -252 -147.5 -386.5t-349.5 -134.5z" />
    <glyph glyph-name="uni2117" unicode="&#x2117;" horiz-adv-x="1482" 
d="M741 -24q-282 0 -475 190q-194 191 -194 479q0 189 89.5 343t242.5 240t338 86t338 -86t242.5 -240t89.5 -343q0 -142 -52.5 -266.5t-142 -212.5t-213.5 -139t-263 -51zM741 1194q-227 0 -388 -156q-158 -156 -158 -393q0 -155 73 -281t198 -196.5t276 -70.5t276 71
t197.5 197t72.5 280q0 235 -158.5 392t-388.5 157zM773 532h-146v-266h-127v743h273q136 0 214.5 -63t78.5 -175q0 -111 -78 -175t-215 -64zM771 899h-144v-257h144q89 0 135.5 35t46.5 99q0 123 -182 123z" />
    <glyph glyph-name="trademark" unicode="&#x2122;" horiz-adv-x="1292" 
d="M350 1187v-429h-116v429h-185v103h502v-103h-201zM692 1135v-377h-101v532h147l140 -383l143 383h144v-532h-104v379l-140 -379h-85z" />
    <glyph glyph-name="minus" unicode="&#x2212;" horiz-adv-x="1265" 
d="M111 567v144h1046v-144h-1046z" />
    <glyph glyph-name="approxequal" unicode="&#x2248;" horiz-adv-x="1294" 
d="M876 660q-84 0 -235 43q-145 42 -228 42q-132 0 -290 -99v168q152 95 290 95q86 0 237 -43q145 -42 226 -42q135 0 295 99v-167q-147 -96 -295 -96zM876 369q-86 0 -235 44q-144 43 -228 43q-130 0 -290 -101v167q147 96 290 96q90 0 237 -44q144 -43 226 -43
q135 0 295 101v-168q-152 -95 -295 -95z" />
    <glyph glyph-name="notequal" unicode="&#x2260;" horiz-adv-x="1294" 
d="M553 396l-184 -242h-179l183 242h-250v162h372l119 156h-491v162h612l190 248h179l-189 -248h256v-162h-377l-119 -156h496v-162h-618z" />
    <glyph glyph-name="lessequal" unicode="&#x2264;" horiz-adv-x="960" 
d="M80 680v182l801 367v-184l-604 -274l604 -276v-183zM80 80v169h801v-169h-801z" />
    <glyph glyph-name="greaterequal" unicode="&#x2265;" horiz-adv-x="960" 
d="M80 312v183l603 276l-603 274v184l801 -367v-182zM80 80v169h801v-169h-801z" />
    <glyph glyph-name="backslash.cap" horiz-adv-x="667" 
d="M489 0l-496 1290h186l496 -1290h-186z" />
    <glyph glyph-name="periodcentered.cap" horiz-adv-x="374" 
d="M84 543v205h205v-205h-205z" />
    <glyph glyph-name="bullet.cap" horiz-adv-x="684" 
d="M341 399q-106 0 -176.5 70t-70.5 177t70.5 178t175.5 71q103 0 177 -71q73 -70 73 -178q0 -107 -71.5 -177t-177.5 -70z" />
    <glyph glyph-name="exclamdown.cap" horiz-adv-x="391" 
d="M94 1060v230h205v-230h-205zM103 0v367l46 593h96l44 -593v-367h-186z" />
    <glyph glyph-name="questiondown.cap" horiz-adv-x="999" 
d="M406 1060v230h227v-230h-227zM486 -25q-203 0 -316 108t-113 281q0 80 33 149t85.5 123.5t148.5 133.5q55 46 75.5 83.5t22.5 100.5h183q0 -105 -35.5 -172.5t-141.5 -153.5l-29 -23q-7 -7 -25 -22q-24 -20 -49 -49q-11 -12 -21 -27q-3 -4 -6 -10l-8 -16l-9 -18
q-16 -30 -16 -113q0 -85 60.5 -144.5t172.5 -59.5q116 0 181.5 73.5t65.5 207.5q0 55 -18 130l201 -11q14 -73 14 -131q0 -201 -123.5 -320.5t-332.5 -119.5z" />
    <glyph glyph-name="slash.cap" horiz-adv-x="667" 
d="M179 0h-186l496 1290h186z" />
    <glyph glyph-name="colon.tab" horiz-adv-x="614" 
d="M205 627v227h205v-227h-205zM205 0v227h205v-227h-205z" />
    <glyph glyph-name="comma.tab" horiz-adv-x="614" 
d="M205 -225v121q49 3 66 21t18 68h-84v220h205v-202q0 -116 -45.5 -171t-159.5 -57z" />
    <glyph glyph-name="period.tab" horiz-adv-x="614" 
d="M205 0v205h205v-205h-205z" />
    <glyph glyph-name="semicolon.tab" horiz-adv-x="614" 
d="M205 625v229h205v-229h-205zM205 -225v126q49 3 65.5 21.5t18.5 71.5h-84v229h205v-211q0 -121 -45.5 -178t-159.5 -59z" />
    <glyph glyph-name="braceleft.cap" horiz-adv-x="600" 
d="M382 -139q-188 0 -188 218v335q0 85 -14 108.5t-63 23.5h-62v155h62q48 0 62.5 24.5t14.5 108.5v333q0 217 188 217h128v-156h-91q-45 0 -45 -59v-342q0 -81 -22.5 -131t-74.5 -73q97 -42 97 -205v-341q0 -60 45 -60h91v-156h-128z" />
    <glyph glyph-name="braceright.cap" horiz-adv-x="600" 
d="M483 546q-47 0 -62 -24.5t-15 -107.5v-335q0 -218 -189 -218h-129v156h91q45 0 45 60v341q0 157 103 205q-103 48 -103 204v342q0 32 -11 45.5t-34 13.5h-91v156h129q189 0 189 -217v-333q0 -85 14.5 -109t62.5 -24h62v-155h-62z" />
    <glyph glyph-name="bracketleft.cap" horiz-adv-x="569" 
d="M135 -139v1523h344v-156h-169v-1211h169v-156h-344z" />
    <glyph glyph-name="bracketright.cap" horiz-adv-x="569" 
d="M88 -139v156h169v1211h-169v156h346v-1523h-346z" />
    <glyph glyph-name="parenleft.cap" horiz-adv-x="591" 
d="M359 -139q-131 149 -204 352q-71 202 -71 410q0 210 72 411.5t203 349.5h197q-277 -327 -277 -761q0 -433 277 -762h-197z" />
    <glyph glyph-name="parenright.cap" horiz-adv-x="591" 
d="M233 -139h-197q277 327 277 761q0 433 -277 762h197q131 -147 204 -351q71 -202 71 -410q0 -210 -72 -411.5t-203 -350.5z" />
    <glyph glyph-name="emdash.cap" horiz-adv-x="2048" 
d="M117 582v125h1814v-125h-1814z" />
    <glyph glyph-name="endash.cap" 
d="M117 582v125h790v-125h-790z" />
    <glyph glyph-name="hyphen.cap" horiz-adv-x="704" 
d="M117 569v152h471v-152h-471z" />
    <glyph glyph-name="guillemotleft.cap" horiz-adv-x="831" 
d="M94 555v143l322 277v-196l-174 -152l174 -152v-197zM415 555v143l322 277v-196l-174 -152l174 -152v-197z" />
    <glyph glyph-name="guillemotright.cap" horiz-adv-x="831" 
d="M94 278v197l175 152l-175 152v196l322 -277v-143zM415 278v197l175 152l-175 152v196l322 -277v-143z" />
    <glyph glyph-name="guilsinglleft.cap" horiz-adv-x="495" 
d="M94 555v143l307 277v-196l-166 -152l166 -152v-197z" />
    <glyph glyph-name="guilsinglright.cap" horiz-adv-x="495" 
d="M94 278v197l167 152l-167 152v196l307 -277v-143z" />
    <glyph glyph-name="space.tab" horiz-adv-x="614" 
 />
    <glyph glyph-name="space_dotbelowcomb" 
d="M422 -352v194h178v-194h-178z" />
    <glyph glyph-name="uni00200326" 
d="M420 -395v92q36 0 49.5 9t17.5 34h-67v156h184v-114q0 -177 -184 -177z" />
    <glyph glyph-name="uni00200326.alt" 
d="M420 1065v114q0 177 184 177v-92q-36 0 -50 -9t-17 -35h67v-155h-184z" />
    <glyph glyph-name="at.cap" horiz-adv-x="1556" 
d="M1107 272q-148 -1 -201 122q-42 -61 -104.5 -92t-124 -30.5t-118 21.5t-92.5 59q-51 53 -68.5 141.5t7 194t92.5 192.5q108 139 282 139q70 0 127 -27t88 -73l23 84h179l-126 -494q-13 -52 2 -75t57 -23q97 0 155 90.5t58 279.5q0 197 -133.5 323t-362.5 126
q-280 0 -451.5 -176.5t-171.5 -460.5q0 -239 156.5 -386.5t392.5 -147.5q235 0 431 96l57 -111q-207 -124 -497 -124q-146 0 -272.5 47t-221 133t-148.5 217t-54 290q0 161 56.5 302t157.5 242.5t247 160t318 58.5q295 0 473 -165.5t179 -423.5q0 -242 -109.5 -375
t-282.5 -134zM792 879q-86 0 -149 -92.5t-63 -217.5q0 -77 30 -112.5t90 -35.5q73 0 134 54.5t85 151.5l11 48q23 93 -15 149t-123 55z" />
    <glyph glyph-name="bar.cap" horiz-adv-x="403" 
d="M125 0v1290h154v-1290h-154z" />
    <glyph glyph-name="caron.Slovak" 
d="M508 1020h-109l31 270h198z" />
    <glyph glyph-name="cedilla.alt" horiz-adv-x="1173" 
d="M354 -276l46 85q92 -68 180 -68q80 0 80 44q0 26 -20 35q-47 24 -130 -11l-58 31l127 183h110l-75 -99q66 10 124 -14q48 -21 66.5 -68t2 -94.5t-61.5 -71.5q-46 -25 -110.5 -33t-142.5 11.5t-138 69.5z" />
    <glyph glyph-name="acute.cap" 
d="M481 1384h-136l113 258h226z" />
    <glyph glyph-name="breve.cap" 
d="M512 1378q-115 0 -176 67t-62 197h140q0 -69 24 -98.5t74 -29.5t74 29.5t24 98.5h140q0 -132 -61 -198t-177 -66z" />
    <glyph glyph-name="caron.cap" 
d="M612 1384h-200l-174 258h149l125 -129l125 129h149z" />
    <glyph glyph-name="circumflex.cap" 
d="M637 1384l-125 130l-125 -130h-149l174 258h200l174 -258h-149z" />
    <glyph glyph-name="dieresis.cap" 
d="M287 1395v192h186v-192h-186zM551 1395v192h184v-192h-184z" />
    <glyph glyph-name="dotaccent.cap" 
d="M422 1395v192h178v-192h-178z" />
    <glyph glyph-name="grave.cap" 
d="M541 1384l-203 258h226l113 -258h-136z" />
    <glyph glyph-name="hungarumlaut.cap" 
d="M350 1384h-130l111 258h223zM607 1384h-129l110 258h223z" />
    <glyph glyph-name="macron.cap" 
d="M246 1399v129h530v-129h-530z" />
    <glyph glyph-name="ring.cap" 
d="M512 1350q-80 0 -130 49q-50 50 -50 124q0 75 50.5 124t129.5 49t129.5 -49t50.5 -124t-50.5 -124t-129.5 -49zM561 1573q-17 18 -49 18q-31 0 -49 -18t-18 -50q0 -68 67 -68t67 68q0 32 -18 50z" />
    <glyph glyph-name="tilde.cap" 
d="M647 1376q-72 0 -151 56q-75 59 -115 49.5t-45 -100.5h-125q0 114 44.5 180.5t121.5 66.5q69 0 149 -55q69 -50 103 -50q28 0 40 20t18 80h124q0 -115 -43 -181t-121 -66z" />
    <glyph glyph-name="_142" horiz-adv-x="1200" 
d="M50 1142h1107v-129h-1107v129zM1013 766q0 24 -29 47t-68 23q-35 0 -63.5 -16.5t-28.5 -37.5q0 -31 16.5 -49t68.5 -29l47 -10q43 -9 66 -15t52.5 -17t43.5 -24t25 -34t12 -48q2 -74 -64 -119.5t-172 -45.5q-120 0 -183 60t-63 138l128 -2q0 -8 4.5 -20.5t16 -29t38 -28
t62.5 -11.5q43 0 70 15t27 35q0 40 -104 63q-100 21 -164 57q-64 35 -64 111q0 73 65.5 119t166.5 46q104 0 165.5 -53.5t61.5 -124.5h-133zM196 693h267v-123h-267v-179h-145v550h464v-123h-319v-125zM502 458q0 -26 20.5 -45t48.5 -19q30 0 51 18.5t21 45.5
q0 26 -21.5 45.5t-50.5 19.5q-28 0 -48.5 -19.5t-20.5 -45.5zM47 322h1107v-129h-1107v129z" />
    </font>
</defs>
</svg>
