<?xml version="1.0" standalone="no"?>
<!DOCTYPE svg PUBLIC "-//W3C//DTD SVG 1.1//EN" "http://www.w3.org/Graphics/SVG/1.1/DTD/svg11.dtd" >
<svg xmlns="http://www.w3.org/2000/svg" xmlns:xlink="http://www.w3.org/1999/xlink" version="1.1">
<metadata>
Created by FontForge 20170731 at Sun Apr  8 17:52:21 2018
 By Aleksey,,,
Copyright (c) 2018 by Fontastica. All rights reserved.
</metadata>
<defs>
<font id="ExensaGrotesk-Black" horiz-adv-x="1024" >
  <font-face 
    font-family="Exensa Grotesk Black"
    font-weight="900"
    font-stretch="normal"
    units-per-em="2048"
    panose-1="0 0 0 0 0 0 0 0 0 0"
    ascent="1290"
    descent="-758"
    x-height="895"
    cap-height="1290"
    bbox="-111 -395 2126 1696"
    underline-thickness="81"
    underline-position="-302"
    unicode-range="U+000D-2265"
  />
<missing-glyph horiz-adv-x="1245" 
 />
    <glyph glyph-name=".notdef" horiz-adv-x="1245" 
 />
    <glyph glyph-name="uni0000" horiz-adv-x="0" 
 />
    <glyph glyph-name="uni0000" horiz-adv-x="0" 
 />
    <glyph glyph-name="uni000D" unicode="&#xd;" horiz-adv-x="681" 
 />
    <glyph glyph-name="space" unicode=" " horiz-adv-x="368" 
 />
    <glyph glyph-name="exclam" unicode="!" horiz-adv-x="391" 
d="M256 315h-118l-38 562v413h192v-413zM94 0v278h205v-278h-205z" />
    <glyph glyph-name="quotedbl" unicode="&#x22;" horiz-adv-x="591" 
d="M94 834v456h196v-456h-196zM302 834v456h196v-456h-196z" />
    <glyph glyph-name="numbersign" unicode="#" horiz-adv-x="1245" 
d="M1176 774h-203l-60 -258h221l-38 -197h-230l-76 -319h-223l76 319h-195l-76 -319h-220l76 319h-195l36 197h206l60 258h-224l39 199h231l76 317h223l-76 -317h193l76 317h222l-76 -317h193zM556 774l-60 -258h193l60 258h-193z" />
    <glyph glyph-name="dollar" unicode="$" horiz-adv-x="1134" 
d="M662 -29v-180h-191v184q-199 30 -312.5 157.5t-113.5 359.5h229q5 -135 54 -203t143 -93v347l-66 14q-149 30 -235 119q-92 93 -92 260q0 161 107.5 264.5t285.5 120.5v172h191v-180q181 -32 278.5 -156.5t99.5 -343.5h-227q-4 121 -42 184.5t-109 88.5v-337l45 -9
q180 -34 269 -124t89 -257q0 -162 -112.5 -265.5t-290.5 -122.5zM471 1105q-69 -10 -107 -45q-48 -42 -48 -117q0 -71 37.5 -102t117.5 -52v316zM662 504v-317q80 15 122 58t42 103q0 61 -34.5 94.5t-129.5 61.5z" />
    <glyph glyph-name="percent" unicode="%" horiz-adv-x="1499" 
d="M383 593q-141 0 -234 99q-92 98 -92 261q0 161 91.5 261.5t234.5 100.5q144 0 236 -100.5t92 -261.5q0 -160 -91.5 -260t-236.5 -100zM532 -2h-229l667 1294h226zM384 1123q-50 0 -77 -38t-27 -132q0 -93 27 -131t77 -38t76.5 37.5t26.5 131.5q0 95 -26.5 132.5
t-76.5 37.5zM1117 -24q-143 0 -235.5 100.5t-92.5 261.5q0 160 92.5 259.5t235.5 99.5q142 0 234.5 -100t92.5 -260t-92.5 -260.5t-234.5 -100.5zM1116 507q-37 0 -69 -41t-33 -128q0 -95 26 -133t76 -38t76.5 37.5t26.5 132.5q0 86 -32.5 128t-70.5 42z" />
    <glyph glyph-name="ampersand" unicode="&#x26;" horiz-adv-x="1273" 
d="M1003 255q37 -39 70 -50t109 -8v-206q-130 -10 -195.5 11t-144.5 94q-160 -120 -340 -120q-200 0 -323.5 100t-123.5 274q0 117 60 203.5t177 156.5q-105 141 -105 266q0 150 102 244t260 95q154 1 245.5 -84t91.5 -222q0 -117 -59 -195.5t-188 -149.5l221 -247
q27 35 48 72q34 56 57 161h225q-33 -139 -76.5 -225t-110.5 -170zM550 1110q-57 0 -92.5 -34t-35.5 -86q0 -49 17.5 -83.5t65.5 -90.5q93 46 125 84t32 91q0 57 -29 88t-83 31zM426 552q-68 -40 -97 -85.5t-29 -114.5q0 -70 52 -116t138 -46q110 0 205 61z" />
    <glyph glyph-name="quotesingle" unicode="'" horiz-adv-x="337" 
d="M94 834v456h150v-456h-150z" />
    <glyph glyph-name="parenleft" unicode="(" horiz-adv-x="591" 
d="M342 -172q-125 154 -191.5 353.5t-66.5 408.5q0 208 66.5 407.5t191.5 354.5h245q-148 -192 -211.5 -372.5t-63.5 -389.5t63.5 -389.5t211.5 -372.5h-245z" />
    <glyph glyph-name="parenright" unicode=")" horiz-adv-x="591" 
d="M249 -172h-244q148 192 211.5 372.5t63.5 389.5t-63.5 389.5t-211.5 372.5h244q128 -156 195 -359q64 -195 64 -403q0 -209 -67 -408.5t-192 -353.5z" />
    <glyph glyph-name="asterisk" unicode="*" horiz-adv-x="733" 
d="M518 927l125 -167l-154 -110l-120 166l-124 -170l-149 114l122 164l-201 65l62 179l193 -69v210h189v-209l198 70l60 -179z" />
    <glyph glyph-name="plus" unicode="+" horiz-adv-x="1265" 
d="M742 530v-415h-218v415h-413v218h413v415h218v-415h415v-218h-415z" />
    <glyph glyph-name="comma" unicode="," horiz-adv-x="360" 
d="M78 -225v159q35 2 47 7t14 17h-61v247h205v-203q0 -112 -45 -168.5t-160 -58.5z" />
    <glyph glyph-name="hyphen" unicode="-" horiz-adv-x="704" 
d="M117 446v152h471v-152h-471z" />
    <glyph glyph-name="period" unicode="." horiz-adv-x="360" 
d="M78 0v205h205v-205h-205z" />
    <glyph glyph-name="slash" unicode="/" horiz-adv-x="649" 
d="M173 -170h-231l489 1520h229z" />
    <glyph glyph-name="zero" unicode="0" horiz-adv-x="1204" 
d="M602 -24q-256 0 -395 178t-139 491t139 491.5t395 178.5t396.5 -178.5t140.5 -491.5t-140.5 -491t-396.5 -178zM602 1094q-137 0 -208 -107t-71 -342t71 -342t208 -107q138 0 208.5 107t70.5 342t-70.5 342t-208.5 107z" />
    <glyph glyph-name="one" unicode="1" horiz-adv-x="591" 
d="M216 0v922h-196v192q83 0 131.5 17.5t76 55.5t50.5 111h162v-1298h-224z" />
    <glyph glyph-name="two" unicode="2" horiz-adv-x="1034" 
d="M53 0v211l349 255q75 55 127 109q19 20 50.5 59t42.5 51q56 67 75.5 138.5t7.5 125.5t-45 91q-48 53 -147 53q-97 0 -150.5 -61t-53.5 -177q0 -50 25 -156l-248 13q-20 96 -20 155q0 205 123.5 326.5t332.5 121.5q203 -1 320.5 -114t117.5 -291q0 -161 -91 -295
t-276 -275l-148 -113l556 4v-231h-948z" />
    <glyph glyph-name="three" unicode="3" horiz-adv-x="1056" 
d="M531 -24q-223 0 -354.5 135t-131.5 384l243 -12q4 -285 244 -287q111 0 171 49q55 44 55 123t-56 127t-138 48q-108 0 -196 -15v237q80 -11 189 -11q80 0 130 40.5t49 119.5q0 180 -204 180q-107 0 -166.5 -74t-57.5 -231l-242 10q0 238 127 376.5t341 139.5
q205 1 325.5 -103t121.5 -281q0 -86 -40 -158.5t-105 -116.5q79 -43 124.5 -120.5t45.5 -174.5q0 -177 -130.5 -281t-344.5 -104z" />
    <glyph glyph-name="four" unicode="4" horiz-adv-x="1120" 
d="M903 321v-321h-245v321h-625v198l608 771h262v-748h203v-221h-203zM658 974l-335 -432h335v432z" />
    <glyph glyph-name="five" unicode="5" horiz-adv-x="1075" 
d="M541 -25q-224 1 -349 127.5t-114 373.5h240q0 -151 57.5 -216.5t172.5 -65.5q109 0 169.5 64.5t60.5 175.5q0 110 -60 174t-163 64q-82 0 -137 -32t-97 -110h-236q75 415 85 760h787v-237h-582q-10 -110 -24 -204q83 42 228 42q202 0 321.5 -128t119.5 -329
q0 -202 -132 -331t-347 -128z" />
    <glyph glyph-name="six" unicode="6" horiz-adv-x="1122" 
d="M590 -25q-253 0 -387.5 174.5t-134.5 478.5q0 202 57.5 354.5t178.5 242.5t294 90q195 0 316.5 -116t142.5 -334h-241q-18 128 -70 180t-150 52q-249 0 -289 -292q100 85 299 85q205 0 331 -126.5t126 -329.5t-130.5 -331t-342.5 -128zM582 671q-114 0 -176.5 -63
t-62.5 -174q0 -109 65 -173.5t178 -64.5q112 0 174 62.5t62 174.5t-62.5 175t-177.5 63z" />
    <glyph glyph-name="seven" unicode="7" horiz-adv-x="987" 
d="M559 0h-261q4 321 89.5 588t243.5 466h-592v236h909v-208q-200 -216 -293 -468t-96 -614z" />
    <glyph glyph-name="eight" unicode="8" horiz-adv-x="1079" 
d="M541 -25q-221 0 -356 102.5t-134 283.5q0 98 49 175.5t129 121.5q-135 96 -135 278q0 174 126.5 277t319.5 102q126 0 226.5 -44.5t159.5 -131.5t59 -203q0 -182 -135 -278q80 -43 128 -121t48 -176q0 -182 -132.5 -284t-352.5 -102zM692 1057q-58 50 -151 50
q-98 0 -150.5 -47.5t-52.5 -130.5q0 -85 51.5 -130t150.5 -45t151.5 45t51.5 129q-1 87 -51 129zM719 496q-58 47 -178 47q-122 0 -179.5 -45.5t-56.5 -129.5q3 -182 235 -182q119 0 177 48t58 133q0 87 -56 129z" />
    <glyph glyph-name="nine" unicode="9" horiz-adv-x="1122" 
d="M526 -23q-196 -1 -317.5 115.5t-143.5 334.5h241q18 -128 70 -180t150 -52q249 0 289 292q-100 -85 -299 -85q-205 0 -331 126.5t-126 329.5t130.5 331t342.5 128q253 0 387.5 -174.5t134.5 -478.5q0 -202 -57.5 -354.5t-178 -242.5t-292.5 -90zM536 1096
q-112 0 -174 -62.5t-62 -174.5t62.5 -175t177.5 -63q114 0 176.5 63t62.5 174q0 109 -65 173.5t-178 64.5z" />
    <glyph glyph-name="colon" unicode=":" horiz-adv-x="360" 
d="M78 584v270h205v-270h-205zM78 0v270h205v-270h-205z" />
    <glyph glyph-name="semicolon" unicode=";" horiz-adv-x="360" 
d="M78 580v274h205v-274h-205zM78 -225v175q36 3 47.5 9t14.5 23h-62v276h205v-230q0 -125 -44.5 -188t-160.5 -65z" />
    <glyph glyph-name="less" unicode="&#x3c;" horiz-adv-x="948" 
d="M82 525v220l799 438v-250l-551 -298l551 -298v-252z" />
    <glyph glyph-name="equal" unicode="=" horiz-adv-x="1294" 
d="M123 675v195h1048v-195h-1048zM123 401v196h1048v-196h-1048z" />
    <glyph glyph-name="greater" unicode="&#x3e;" horiz-adv-x="948" 
d="M68 85v252l548 298l-548 298v250l796 -438v-220z" />
    <glyph glyph-name="question" unicode="?" horiz-adv-x="999" 
d="M683 504q-49 -41 -65 -75t-18 -108h-228q0 128 38.5 207.5t139.5 156.5q23 18 65 58q76 71 76 184q0 69 -49 117.5t-140 48.5q-96 0 -150 -61t-54 -177q0 -52 29 -156l-251 13q-19 102 -19 155q-1 204 123.5 326t332.5 122q201 -1 315.5 -112t113.5 -289q0 -120 -61 -208
t-198 -202zM347 0v278h270v-278h-270z" />
    <glyph glyph-name="at" unicode="@" horiz-adv-x="1556" 
d="M972 758l14 51h228q-57 75 -151.5 117.5t-218.5 43.5q-255 1 -411.5 -160.5t-156.5 -422.5q0 -218 141 -351t356 -133q216 0 427 102l80 -158q-231 -136 -516 -136q-145 0 -271.5 47t-221 133t-149 217.5t-54.5 290.5q0 161 56.5 301.5t157 242t246.5 160t316 58.5
q147 0 270 -44.5t207 -123.5t131 -188.5t47 -237.5q0 -244 -112 -381.5t-293 -137.5q-131 0 -197 95q-89 -95 -229 -95q-131 0 -209.5 85.5t-79.5 228.5q0 119 48 224t141.5 172t211.5 67q114 0 192 -67zM1087 299q-8 -41 -2 -49.5t30 -8.5q76 0 126 77t50 250
q0 140 -75 238zM895 471q18 73 -11 120q-25 40 -92 40t-121 -77.5t-54 -189.5q0 -66 31.5 -95.5t76 -20.5t86.5 45q53 48 73 133z" />
    <glyph glyph-name="A" unicode="A" horiz-adv-x="1306" 
d="M1035 0l-145 354h-491l-140 -354h-256l526 1290h239l536 -1290h-269zM647 951l-159 -378h314z" />
    <glyph glyph-name="B" unicode="B" horiz-adv-x="1210" 
d="M670 0h-545v1290h524q222 0 339.5 -94t117.5 -270q0 -81 -33.5 -147.5t-93.5 -107.5q77 -41 118.5 -118t41.5 -180q0 -180 -125 -276.5t-344 -96.5zM655 1068h-287v-298h287q108 0 155 37.5t47 111.5q0 149 -202 149zM666 555h-298v-333h298q226 0 226 164q0 79 -55 124
t-171 45z" />
    <glyph glyph-name="C" unicode="C" horiz-adv-x="1363" 
d="M698 -25q-270 0 -451 187q-181 188 -181 483q0 192 82 345t226.5 238.5t323.5 85.5q244 0 399 -136t200 -391h-245q-57 300 -356 300q-164 0 -269.5 -119.5t-105.5 -322.5t105.5 -322t269.5 -119q146 0 237 79t119 232h246q-44 -259 -199 -399t-401 -141z" />
    <glyph glyph-name="D" unicode="D" horiz-adv-x="1316" 
d="M599 0h-474v1290h474q301 0 477.5 -173.5t176.5 -471.5t-176.5 -471.5t-477.5 -173.5zM590 1068h-215v-846h215q200 0 308.5 109.5t108.5 313.5q-1 204 -109.5 313.5t-307.5 109.5z" />
    <glyph glyph-name="E" unicode="E" horiz-adv-x="1122" 
d="M125 0v1290h903v-224h-662v-292h603v-222h-603v-328h678v-224h-919z" />
    <glyph glyph-name="F" unicode="F" horiz-adv-x="1056" 
d="M368 1066v-313h547v-223h-547v-530h-243v1290h881v-224h-638z" />
    <glyph glyph-name="G" unicode="G" horiz-adv-x="1409" 
d="M1063 801q-89 285 -362 285q-173 0 -277.5 -118t-104.5 -323t104.5 -323t278.5 -118q139 0 231 73.5t117 200.5l-393 1l3 237h637v-196q-31 -247 -191.5 -395.5t-404.5 -148.5q-184 0 -329 85t-225.5 237.5t-80.5 346.5q0 294 178 481.5t458 187.5q279 0 456 -187
q37 -38 64 -91t41.5 -97t40.5 -138h-241z" />
    <glyph glyph-name="H" unicode="H" horiz-adv-x="1347" 
d="M973 0v546h-599v-546h-249v1290h249v-510h599v510h250v-1290h-250z" />
    <glyph glyph-name="I" unicode="I" horiz-adv-x="428" 
d="M93 0v1290h242v-1290h-242z" />
    <glyph glyph-name="J" unicode="J" horiz-adv-x="1044" 
d="M489 -25q-213 0 -335 132t-129 388h234q10 -162 67 -229.5t166 -67.5q101 0 151.5 61.5t50.5 196.5v834h244v-838q0 -227 -119.5 -352t-329.5 -125z" />
    <glyph glyph-name="K" unicode="K" horiz-adv-x="1196" 
d="M942 0l-473 551l-95 -96v-455h-249v1290h249v-532l517 532h313l-555 -573l603 -717h-310z" />
    <glyph glyph-name="L" unicode="L" horiz-adv-x="1073" 
d="M125 0v1290h245v-1066h652v-224h-897z" />
    <glyph glyph-name="M" unicode="M" horiz-adv-x="1527" 
d="M1152 0v841l-287 -841h-200l-299 848v-848h-241v1290h340l297 -893l305 893h336v-1290h-251z" />
    <glyph glyph-name="N" unicode="N" horiz-adv-x="1306" 
d="M987 0l-624 852v-852h-238v1290h213l606 -833v833h238v-1290h-195z" />
    <glyph glyph-name="O" unicode="O" horiz-adv-x="1411" 
d="M706 -24q-186 0 -332 85t-227 237.5t-81 346.5t81 346.5t227.5 237.5t332.5 85q283 0 462 -186q179 -188 179 -483q0 -194 -81.5 -346.5t-228 -237.5t-332.5 -85zM706 1086q-174 0 -279.5 -118.5t-105.5 -322.5t105 -322.5t281 -118.5t280 117.5t103 323.5
q0 205 -104.5 323t-279.5 118z" />
    <glyph glyph-name="P" unicode="P" horiz-adv-x="1138" 
d="M594 450h-223v-450h-246v1290h469q232 0 367 -109.5t135 -309.5q0 -198 -134.5 -309.5t-367.5 -111.5zM592 1068h-221v-398h221q140 0 211.5 55t71.5 153q0 190 -283 190z" />
    <glyph glyph-name="Q" unicode="Q" horiz-adv-x="1411" 
d="M1209 213l122 -136l-172 -143l-120 131q-83 -50 -184.5 -72.5t-208 -15.5t-212.5 55.5t-189 134.5q-179 187 -179 483q0 194 81 346.5t227.5 237.5t332.5 85q284 0 462 -188q179 -188 179 -474q0 -267 -139 -444zM706 1091q-174 0 -279.5 -118.5t-105.5 -323.5
q0 -210 101.5 -331t274.5 -121q108 0 186 40l-227 254l172 150l214 -241q48 107 48 261q0 196 -105.5 313t-278.5 117z" />
    <glyph glyph-name="R" unicode="R" horiz-adv-x="1226" 
d="M936 0q-56 19 -71 119q-9 61 -14 184q-5 94 -50.5 138t-137.5 44h-293v-485h-245v1290h524q233 0 361.5 -103.5t128.5 -295.5q0 -107 -43 -185.5t-122 -119.5q106 -74 120 -252q9 -127 23 -200q4 -22 20.5 -48t74.5 -86h-276zM640 1068h-270v-364h270q132 0 190.5 45.5
t58.5 135.5q0 183 -249 183z" />
    <glyph glyph-name="S" unicode="S" horiz-adv-x="1148" 
d="M578 -24q-90 0 -168.5 17.5t-146 56.5t-115.5 97t-75.5 143t-27.5 191h231q3 -94 22 -132t69 -81q85 -76 213 -76q130 0 193 45t63 113q0 69 -40 104.5t-151 56.5q-24 5 -74 13q-66 12 -101 19t-96 23.5t-94.5 33.5t-77.5 47t-66.5 66t-39 88.5t-16.5 116.5
q0 182 130.5 289t349.5 107q150 0 259.5 -52t174 -165.5t65.5 -282.5h-233q-4 156 -71 221.5t-197 65.5q-120 0 -177.5 -46t-57.5 -119q0 -69 35.5 -98.5t144.5 -51.5l214 -43q182 -37 271 -127t89 -258q0 -175 -140 -278.5t-359 -103.5z" />
    <glyph glyph-name="T" unicode="T" horiz-adv-x="1208" 
d="M724 1066v-1066h-248v1066h-433v224h1122v-224h-441z" />
    <glyph glyph-name="U" unicode="U" horiz-adv-x="1261" 
d="M631 -25q-241 -1 -381.5 132t-140.5 397v786h247v-788q0 -155 67.5 -227.5t207.5 -72.5q279 0 279 297v791h245v-786q0 -261 -141.5 -394.5t-382.5 -134.5z" />
    <glyph glyph-name="V" unicode="V" horiz-adv-x="1280" 
d="M758 0h-238l-517 1290h263l380 -941l370 941h261z" />
    <glyph glyph-name="W" unicode="W" horiz-adv-x="1671" 
d="M1325 0h-263l-224 839l-231 -839h-261l-333 1290h251l227 -871l236 871h224l240 -875l223 875h245z" />
    <glyph glyph-name="X" unicode="X" horiz-adv-x="1245" 
d="M963 0l-349 470l-342 -470h-291l494 664l-453 626h301l304 -424l303 424h293l-455 -616l495 -674h-300z" />
    <glyph glyph-name="Y" unicode="Y" horiz-adv-x="1224" 
d="M734 502v-502h-243v502l-502 788h282l351 -540l337 540h277z" />
    <glyph glyph-name="Z" unicode="Z" horiz-adv-x="1146" 
d="M61 0v195l671 871h-660v224h995v-195l-669 -871h687v-224h-1024z" />
    <glyph glyph-name="bracketleft" unicode="[" horiz-adv-x="569" 
d="M135 -172v1524h344v-208h-143v-1108h143v-208h-344z" />
    <glyph glyph-name="backslash" unicode="\" horiz-adv-x="649" 
d="M478 -170l-489 1520h231l487 -1520h-229z" />
    <glyph glyph-name="bracketright" unicode="]" horiz-adv-x="569" 
d="M88 -172v208h143v1108h-143v208h346v-1524h-346z" />
    <glyph glyph-name="asciicircum" unicode="^" horiz-adv-x="772" 
d="M540 877l-155 203l-154 -203h-252l314 413h184l316 -413h-253z" />
    <glyph glyph-name="underscore" unicode="_" horiz-adv-x="780" 
d="M41 -246v133h698v-133h-698z" />
    <glyph glyph-name="grave" unicode="`" 
d="M522 1032l-215 258h265l121 -258h-171z" />
    <glyph glyph-name="a" unicode="a" horiz-adv-x="928" 
d="M608 564q-2 68 -40.5 109.5t-99.5 41.5q-161 0 -149 -163h-219q-12 167 90 267.5t265 100.5q165 0 274 -93t109 -261v-568h-233v50q-93 -72 -247 -72q-122 0 -204 73t-82 196q0 129 94 203.5t264 94.5zM475 362q-99 -11 -133.5 -37t-34.5 -67q0 -85 94 -85q84 0 141 55
t65 148z" />
    <glyph glyph-name="b" unicode="b" horiz-adv-x="1077" 
d="M602 -25q-157 0 -250 77v-54h-235v1292h239v-420q91 74 248 74q129 0 224 -65t142.5 -174t47.5 -247t-48 -246.5t-143.5 -172.5t-224.5 -64zM572 729q-99 0 -159.5 -65t-60.5 -180v-49q0 -116 60.5 -181.5t159.5 -65.5q94 0 148.5 69.5t54.5 200.5q0 132 -54.5 201.5
t-148.5 69.5z" />
    <glyph glyph-name="c" unicode="c" horiz-adv-x="997" 
d="M510 -25q-197 0 -324 131t-127 340q0 210 127 342t324 132q178 0 288 -102.5t143 -291.5h-218q-20 97 -71.5 140.5t-139.5 43.5q-96 0 -162 -71.5t-66 -192.5q0 -120 66 -191t163 -72q88 0 139 43.5t70 142.5h219q-34 -190 -143.5 -292t-287.5 -102z" />
    <glyph glyph-name="d" unicode="d" horiz-adv-x="1075" 
d="M724 -2v54q-95 -79 -250 -77q-129 1 -224.5 65t-143.5 172t-48 246q0 212 110.5 349.5t303.5 136.5q157 -2 248 -74v420h239v-1292h-235zM724 484q0 115 -60.5 180t-159.5 65q-94 0 -148.5 -69.5t-54.5 -201.5q0 -131 54.5 -200.5t148.5 -69.5q99 0 159.5 65.5
t60.5 181.5v49z" />
    <glyph glyph-name="e" unicode="e" horiz-adv-x="1001" 
d="M793 62q-109 -87 -291 -87q-188 0 -315.5 128.5t-127.5 332.5q0 208 128.5 346t328.5 138q197 0 311.5 -127t114.5 -322v-103h-640q18 -84 78 -135.5t140 -51.5q94 0 142.5 33.5t74.5 128.5h213q-26 -110 -62.5 -172t-94.5 -109zM646 662q-47 56 -132 56
q-75 0 -128.5 -44.5t-74.5 -121.5h392q-12 53 -57 110z" />
    <glyph glyph-name="f" unicode="f" horiz-adv-x="583" 
d="M545 983q-22 76 -42 97.5t-57 21.5q-42 0 -61 -22t-19 -86v-71h223v-201h-223v-722h-231v722h-121v201h121v53q0 152 81.5 245.5t223.5 93.5q113 0 184.5 -64.5t110.5 -202.5z" />
    <glyph glyph-name="g" unicode="g" horiz-adv-x="983" 
d="M504 -351q-152 0 -261 63q-47 27 -74 51t-49 74t-25 124h230q6 -27 14.5 -42.5t16.5 -23t29 -21.5q38 -26 129 -26q114 0 168 74q40 52 48 103q-92 -75 -233 -75q-209 0 -325 143q-110 134 -110 331q0 195 98 328q55 77 145 121.5t209 44.5q122 0 210 -71v49h233v-822
q0 -205 -114 -315t-339 -110zM680 632q-50 76 -159 76q-112 0 -169 -77q-51 -71 -51 -191q0 -57 10.5 -105t33.5 -89t64 -64.5t98 -23.5q113 0 169 87q52 80 52 200q0 111 -48 187z" />
    <glyph glyph-name="h" unicode="h" horiz-adv-x="1015" 
d="M675 0v547q0 184 -147 184q-74 0 -124.5 -57t-50.5 -152v-522h-236v1290h236v-423q92 77 224 77q166 1 250 -104t84 -279v-561h-236z" />
    <glyph glyph-name="i" unicode="i" horiz-adv-x="401" 
d="M92 1025v265h218v-265h-218zM95 0v921h213v-921h-213z" />
    <glyph glyph-name="j" unicode="j" horiz-adv-x="401" 
d="M69 1021v269h220v-269h-220zM55 -369q-56 0 -86 9.5t-80 50.5v233q66 -52 98 -68.5t54 -16.5q10 0 16 3t10.5 16t4.5 38v1019h215v-1008q0 -133 -59 -204.5t-173 -71.5z" />
    <glyph glyph-name="k" unicode="k" horiz-adv-x="980" 
d="M726 0l-306 386l-66 -60v-326h-237v1290h237v-693l348 324h319l-423 -389l419 -532h-291z" />
    <glyph glyph-name="l" unicode="l" horiz-adv-x="401" 
d="M95 0v1290h214v-1290h-214z" />
    <glyph glyph-name="m" unicode="m" horiz-adv-x="1587" 
d="M1234 0v534q0 97 -34.5 137.5t-106.5 40.5q-74 0 -123.5 -54.5t-49.5 -149.5v-508h-244v534q0 96 -35.5 137t-108.5 41q-72 0 -120 -54.5t-48 -149.5v-508h-247v897h247v-55q91 78 221 78q93 0 153.5 -31.5t97.5 -96.5q53 59 136.5 93.5t168.5 34.5q87 0 153.5 -27.5
t106.5 -78.5t60 -118t20 -149v-547h-247z" />
    <glyph glyph-name="n" unicode="n" horiz-adv-x="1015" 
d="M675 0v534q0 178 -147 178q-74 0 -124.5 -56t-50.5 -148v-508h-236v897h236v-59q95 82 224 82q85 0 149.5 -27.5t104.5 -78t60 -118t20 -149.5v-547h-236z" />
    <glyph glyph-name="o" unicode="o" horiz-adv-x="1032" 
d="M514 -24q-199 0 -327 133t-128 339t129 339t327 133q197 0 328 -134q130 -134 130 -340q0 -204 -130 -337t-329 -133zM515 714q-100 0 -155 -70q-58 -74 -58 -198q0 -126 57 -196.5t155 -70.5q99 -1 157.5 70.5t58.5 198.5q0 126 -57.5 196t-157.5 70z" />
    <glyph glyph-name="p" unicode="p" horiz-adv-x="1077" 
d="M604 -50q-157 0 -248 74v-374h-239v1244h235v-55q92 76 250 78q193 1 304.5 -135.5t111.5 -347.5q0 -137 -47.5 -245.5t-142.5 -173.5t-224 -65zM572 704q-99 0 -159.5 -65.5t-60.5 -180.5v-49q0 -115 60.5 -179.5t159.5 -64.5q94 0 148.5 69t54.5 200q0 132 -54.5 201
t-148.5 69z" />
    <glyph glyph-name="q" unicode="q" horiz-adv-x="1075" 
d="M721 -350v374q-91 -74 -248 -74q-129 0 -224 65t-142.5 173.5t-47.5 245.5q0 211 111.5 347.5t304.5 135.5q158 -2 250 -78v55h235v-1244h-239zM725 458q0 115 -60.5 180.5t-159.5 65.5q-94 0 -148.5 -69t-54.5 -201q0 -131 54.5 -200t148.5 -69q99 0 159.5 64.5
t60.5 179.5v49z" />
    <glyph glyph-name="r" unicode="r" horiz-adv-x="677" 
d="M398 615q-58 -67 -58 -211v-403h-221v894h217v-85q51 55 122 79.5t182 22.5v-228q-104 0 -157.5 -17t-84.5 -52z" />
    <glyph glyph-name="s" unicode="s" horiz-adv-x="886" 
d="M453 -25q-83 0 -151.5 20.5t-124 63t-89.5 115t-41 170.5h211q12 -96 57.5 -133.5t132.5 -37.5q83 0 118.5 22.5t35.5 53.5q0 34 -22.5 52t-94.5 31l-137 24q-274 49 -274 271q0 135 99 214t260 79q356 0 388 -365h-204q-15 97 -58 132t-135 35q-63 0 -93.5 -23
t-30.5 -56q0 -56 87 -71l150 -26q144 -26 217.5 -90.5t73.5 -193.5q0 -134 -106 -210.5t-269 -76.5z" />
    <glyph glyph-name="t" unicode="t" horiz-adv-x="626" 
d="M128 234v479h-116v200h122v230h220v-230h217v-200h-217v-460q0 -77 78 -56q54 15 162 80v-210q-27 -22 -64.5 -41.5t-81.5 -32.5t-88.5 -16.5t-86.5 9t-74 39.5t-51.5 80.5t-19.5 128.5z" />
    <glyph glyph-name="u" unicode="u" horiz-adv-x="1005" 
d="M653 -2v51q-89 -74 -219 -74q-163 -1 -245.5 95t-82.5 277v548h236v-534q0 -181 143 -181q73 0 120.5 55t47.5 152v508h236v-897h-236z" />
    <glyph glyph-name="v" unicode="v" horiz-adv-x="931" 
d="M569 0h-206l-371 895h255l228 -554l222 554h243z" />
    <glyph glyph-name="w" unicode="w" horiz-adv-x="1314" 
d="M1024 0h-219l-143 497l-152 -497h-217l-296 895h250l167 -511l149 511h200l152 -511l163 511h239z" />
    <glyph glyph-name="x" unicode="x" horiz-adv-x="956" 
d="M700 0l-231 289l-225 -289h-278l369 461l-340 434h287l197 -253l194 253h272l-331 -428l374 -467h-288z" />
    <glyph glyph-name="y" unicode="y" horiz-adv-x="942" 
d="M447 -344h-244l150 364l-361 875h255l233 -569l225 569h245z" />
    <glyph glyph-name="z" unicode="z" horiz-adv-x="876" 
d="M61 0v178l432 514h-417v203h729v-178l-438 -514h450v-203h-756z" />
    <glyph glyph-name="braceleft" unicode="{" horiz-adv-x="600" 
d="M370 -172q-95 0 -143.5 63t-48.5 175v321q0 69 -6.5 83t-34.5 14h-82v211h82q28 0 34.5 15t6.5 83v321q0 112 48.5 175t143.5 63h140v-208h-107q-8 0 -10.5 -5.5t-2.5 -22.5v-329q0 -139 -63 -197q63 -58 63 -199v-327q0 -17 2.5 -22.5t10.5 -5.5h107v-208h-140z" />
    <glyph glyph-name="bar" unicode="|" horiz-adv-x="403" 
d="M125 -170v1520h154v-1520h-154z" />
    <glyph glyph-name="braceright" unicode="}" horiz-adv-x="600" 
d="M463 484q-28 0 -34.5 -15t-6.5 -82v-321q0 -112 -49 -175t-144 -63h-141v208h107q8 0 10.5 5.5t2.5 22.5v327q0 141 66 199q-66 63 -66 197v329q0 17 -2.5 22.5t-10.5 5.5h-107v208h141q95 0 144 -63t49 -175v-321q0 -68 6.5 -83t34.5 -15h82v-211h-82z" />
    <glyph glyph-name="asciitilde" unicode="~" horiz-adv-x="802" 
d="M517 418q-68 0 -144 49q-82 51 -92 35q-10 -12 -14 -80h-171q0 117 45.5 185.5t133.5 68.5q79 0 156 -49q60 -37 78 -37q14 0 19 13.5t8 68.5h173q0 -120 -47 -187.5t-145 -66.5z" />
    <glyph glyph-name="exclamdown" unicode="&#xa1;" horiz-adv-x="391" 
d="M96 785v278h205v-278h-205zM102 -227v413l38 562h118l36 -562v-413h-192z" />
    <glyph glyph-name="cent" unicode="&#xa2;" 
d="M623 -27v-174h-188v174q-168 29 -272 158.5t-104 314.5q0 186 104 316t272 160v188h188v-188q153 -25 241.5 -133t104.5 -292h-216q-9 93 -41 141t-89 67v-516q59 17 90 62.5t44 147.5h212q-16 -186 -104.5 -293t-241.5 -133zM435 702q-65 -26 -101.5 -91.5t-37.5 -164.5
q0 -96 37.5 -161.5t101.5 -92.5v510z" />
    <glyph glyph-name="sterling" unicode="&#xa3;" horiz-adv-x="1157" 
d="M803 -24q-139 0 -296 121q-84 -122 -238 -122q-103 1 -173 64t-71 167q-1 103 68 170t166 67q52 -2 95 -13q-12 62 -35 118h-207v197h124q-25 83 -25 159q0 187 113.5 299.5t306.5 111.5q199 -1 313 -127t113 -356l-229 -14q-1 163 -55 222q-50 57 -141 57
q-88 0 -132 -49.5t-44 -135.5q2 -83 29 -167h308v-197h-238q40 -136 22 -249q11 -7 32.5 -22.5t29.5 -21.5q85 -53 161 -53q53 0 81 46.5t28 176.5l213 -12q4 -209 -76 -323t-243 -114zM279 253q-32 0 -43.5 -11t-11.5 -33q0 -44 47 -44q53 0 72 63q-37 25 -64 25z" />
    <glyph glyph-name="yen" unicode="&#xa5;" horiz-adv-x="1177" 
d="M819 710h217v-199h-326v-51h326v-197h-326v-263h-242v263h-326v197h326v51h-326v199h215l-377 580h282l336 -521l322 521h277z" />
    <glyph glyph-name="section" unicode="&#xa7;" horiz-adv-x="913" 
d="M761 270q48 -70 48 -168q0 -131 -101 -215t-255 -84q-163 0 -267.5 97t-117.5 286l202 14q13 -101 63 -148t121 -47q67 0 99.5 25t32.5 59q1 42 -11.5 59.5t-57.5 39.5l-236 111q-242 113 -242 307q0 157 111 242q-48 71 -48 170q0 133 101 215t256 82q163 0 267 -97
t118 -286l-203 -14q-13 100 -63 147.5t-120 47.5q-67 0 -100 -24.5t-33 -56.5q0 -41 13 -60t57 -40l236 -112q121 -57 181 -132.5t60 -194.5q0 -65 -30 -123t-81 -100zM537 611l-217 108q-61 -31 -61 -87q0 -38 23.5 -65t90.5 -60l219 -107q60 26 60 87q0 37 -23.5 64
t-91.5 60z" />
    <glyph glyph-name="dieresis" unicode="&#xa8;" 
d="M287 1081v193h217v-193h-217zM518 1081v193h217v-193h-217z" />
    <glyph glyph-name="copyright" unicode="&#xa9;" horiz-adv-x="1482" 
d="M741 -24q-282 0 -475 190q-194 191 -194 479q0 189 89.5 343t242.5 240t338 86t338 -86t242.5 -240t89.5 -343q0 -142 -52.5 -266.5t-142 -212.5t-213.5 -139t-263 -51zM741 1141q-206 0 -351 -142q-143 -141 -143 -354q0 -105 38.5 -197t105 -157.5t158 -103.5
t193.5 -38q209 0 351.5 142.5t142.5 353.5q0 212 -143 354t-352 142zM749 249q-164 -2 -271 111q-105 112 -105 285q0 171 107 283t269 112q148 0 241 -83.5t123 -249.5h-178q-18 88 -63.5 128t-123.5 41q-85 1 -139.5 -61t-54.5 -170t54.5 -170t139.5 -62q154 0 187 176
h179q-63 -337 -365 -340z" />
    <glyph glyph-name="ordfeminine" unicode="&#xaa;" horiz-adv-x="796" 
d="M379 1311q123 0 205.5 -70.5t82.5 -198.5v-425h-190v27q-68 -43 -168 -43q-92 0 -155 56.5t-63 150.5q0 160 189 213h-168q-9 134 67.5 212t199.5 78zM360 1036l119 14q-4 41 -28.5 65t-61.5 24q-56 0 -78.5 -28.5t-18.5 -86.5q31 9 68 12zM340 767q54 0 91.5 33.5
t46.5 91.5l-83 -10q-69 -7 -90.5 -23.5t-21.5 -40.5q0 -51 57 -51z" />
    <glyph glyph-name="guillemotleft" unicode="&#xab;" horiz-adv-x="831" 
d="M737 830v-257l-143 -127l143 -124v-259l-293 254v-254l-350 304v159l350 304v-254zM387 523l-87 -77l87 -75v152z" />
    <glyph glyph-name="registered" unicode="&#xae;" horiz-adv-x="825" 
d="M414 588q-149 0 -255 103q-104 100 -104 257q0 154 104 257t256 103t256 -103t104 -257t-104.5 -257t-256.5 -103zM414 1215q-111 0 -189 -76q-76 -78 -76 -191q0 -114 77 -190.5t189 -75.5q112 -1 189 75.5t77 190.5t-77 190.5t-190 76.5zM503 783q-16 5 -18 31
q0 4 -1 13l-2 18t-1 17q-3 48 -49 48h-77v-127h-65v338h138q61 0 95 -27t34 -77q0 -59 -43 -80q28 -21 31 -67q4 -48 5 -52q3 -11 26 -35h-73zM426 1063h-71v-96h71q63 0 65 48q1 23 -15 35.5t-50 12.5z" />
    <glyph glyph-name="macron" unicode="&#xaf;" 
d="M248 1055v131h526v-131h-526z" />
    <glyph glyph-name="degree" unicode="&#xb0;" horiz-adv-x="694" 
d="M550 836q-83 -80 -204 -80q-120 0 -202.5 80t-82.5 199q0 118 83 199t203 81t203 -81t83 -199q0 -119 -83 -199zM346 1135q-43 0 -70 -27q-26 -28 -26 -72t27 -72.5t69 -28.5q44 0 71 28.5t27 72.5t-27 71.5t-71 27.5z" />
    <glyph glyph-name="plusminus" unicode="&#xb1;" horiz-adv-x="1265" 
d="M739 670v-354h-215v354h-415v217h415v354h215v-354h418v-217h-418zM109 80v218h1048v-218h-1048z" />
    <glyph glyph-name="acute" unicode="&#xb4;" 
d="M500 1032h-171l121 258h265z" />
    <glyph glyph-name="paragraph" unicode="&#xb6;" horiz-adv-x="1028" 
d="M696 0v1082h-39v-1082h-203v524q-191 11 -302 111.5t-111 272.5q0 180 123 281t332 101h405v-1290h-205z" />
    <glyph glyph-name="periodcentered" unicode="&#xb7;" horiz-adv-x="374" 
d="M84 420v205h205v-205h-205z" />
    <glyph glyph-name="cedilla" unicode="&#xb8;" horiz-adv-x="1173" 
d="M730 -75q53 -23 73 -73t1.5 -100.5t-66.5 -76.5q-46 -24 -107.5 -31t-140 14t-144.5 74l66 121l22 -16l130 186h168l-65 -83q33 -3 63 -15zM580 -219q43 0 43 11q0 4 -2 5q-28 15 -90 -9q24 -7 49 -7z" />
    <glyph glyph-name="ordmasculine" unicode="&#xba;" horiz-adv-x="815" 
d="M408 586q-156 0 -257 102.5t-101 262.5t101 262.5t257 102.5t258 -102q102 -104 102 -263t-102 -262t-258 -103zM408 1128q-62 0 -98.5 -45.5t-36.5 -132.5q0 -88 35.5 -132t99.5 -44q63 0 100 46t37 132t-36.5 131t-100.5 45z" />
    <glyph glyph-name="guillemotright" unicode="&#xbb;" horiz-adv-x="831" 
d="M387 830l350 -304v-159l-350 -304v254l-293 -254v259l144 124l-144 127v257l293 -254v254zM444 371l88 75l-88 77v-152z" />
    <glyph glyph-name="questiondown" unicode="&#xbf;" horiz-adv-x="999" 
d="M383 783v278h270v-278h-270zM486 -254q-201 0 -315 111.5t-114 289.5q0 63 16.5 116.5t54 104t80 91.5t110.5 98q46 39 62.5 74t18.5 109h229q0 -128 -37.5 -205.5t-140.5 -158.5l-18 -14q-6 -5 -15.5 -13.5t-15.5 -13.5q-24 -23 -44 -46q-16 -20 -29 -46
q-20 -44 -20 -110q0 -68 49 -116.5t141 -48.5q96 0 149.5 61t53.5 177q0 50 -25 156l248 -13q18 -96 18 -155q0 -204 -124.5 -326t-331.5 -122z" />
    <glyph glyph-name="multiply" unicode="&#xd7;" horiz-adv-x="1083" 
d="M835 183l-296 302l-295 -302l-149 149l298 299l-298 301l149 149l295 -302l296 302l150 -149l-299 -301l299 -299z" />
    <glyph glyph-name="divide" unicode="&#xf7;" horiz-adv-x="1265" 
d="M493 893v276h283v-276h-283zM111 530v218h1046v-218h-1046zM493 109v275h283v-275h-283z" />
    <glyph glyph-name="circumflex" unicode="&#x2c6;" 
d="M614 1032l-102 93l-102 -93h-199l197 258h208l197 -258h-199z" />
    <glyph glyph-name="caron" unicode="&#x2c7;" 
d="M616 1032h-208l-197 258h199l102 -94l102 94h199z" />
    <glyph glyph-name="breve" unicode="&#x2d8;" 
d="M512 1026q-237 0 -238 264h179q0 -65 14 -83.5t45 -18.5t45 18.5t14 83.5h179q0 -264 -238 -264z" />
    <glyph glyph-name="dotaccent" unicode="&#x2d9;" 
d="M422 1098v192h178v-192h-178z" />
    <glyph glyph-name="ring" unicode="&#x2da;" 
d="M512 998q-78 0 -129 48.5t-51 123.5t50.5 124t129.5 49t129.5 -49t50.5 -124t-51 -123.5t-129 -48.5zM512 1201q-30 0 -30 -31q0 -17 6.5 -23.5t23.5 -6.5q16 0 23 7t7 23q0 31 -30 31z" />
    <glyph glyph-name="ogonek" unicode="&#x2db;" 
d="M549 -139q-19 -24 -19 -46q0 -9 2.5 -11t13.5 -1q30 4 123 52v-160q-81 -53 -150 -53q-72 0 -117.5 38.5t-45.5 109.5q0 64 41.5 116t127.5 119h195q-146 -131 -171 -164z" />
    <glyph glyph-name="tilde" unicode="&#x2dc;" 
d="M635 1030q-77 0 -154 49q-64 40 -81 32.5t-21 -77.5h-168q0 114 46 181t132 67q76 0 152 -48q57 -35 77 -35q12 0 16.5 12t10.5 67h166q0 -116 -44.5 -182t-131.5 -66z" />
    <glyph glyph-name="hungarumlaut" unicode="&#x2dd;" 
d="M611 1032h-172l70 145l-130 -145h-175l127 258h513z" />
    <glyph glyph-name="endash" unicode="&#x2013;" 
d="M117 459v125h790v-125h-790z" />
    <glyph glyph-name="emdash" unicode="&#x2014;" horiz-adv-x="2048" 
d="M117 459v125h1814v-125h-1814z" />
    <glyph glyph-name="quoteleft" unicode="&#x2018;" horiz-adv-x="358" 
d="M78 893v194q0 113 44 167t159 55v-156q-35 -3 -47 -7.5t-14 -16.5h61v-236h-203z" />
    <glyph glyph-name="quoteright" unicode="&#x2019;" horiz-adv-x="358" 
d="M78 872v157q37 4 48 8.5t13 16.5h-61v236h203v-196q0 -113 -43 -166t-160 -56z" />
    <glyph glyph-name="quotesinglbase" unicode="&#x201a;" horiz-adv-x="358" 
d="M78 -223v157q35 3 47 7.5t14 16.5h-61v237h203v-196q0 -112 -43.5 -166t-159.5 -56z" />
    <glyph glyph-name="quotedblleft" unicode="&#x201c;" horiz-adv-x="661" 
d="M78 893v194q0 114 54.5 167.5t196.5 54.5v-156q-44 -3 -59 -8t-19 -16h78v-236h-251zM333 893v194q0 112 55 166.5t196 55.5v-156q-44 -3 -59.5 -8t-18.5 -16h78v-236h-251z" />
    <glyph glyph-name="quotedblright" unicode="&#x201d;" horiz-adv-x="661" 
d="M78 872v158q44 3 59 8t18 16h-77v236h251v-196q0 -114 -53.5 -166.5t-197.5 -55.5zM333 872v158q44 3 59 8t18 16h-77v236h251v-196q0 -114 -53.5 -166.5t-197.5 -55.5z" />
    <glyph glyph-name="quotedblbase" unicode="&#x201e;" horiz-adv-x="661" 
d="M78 -223v157q44 3 59 8t18 16h-77v237h251v-196q0 -114 -54.5 -167t-196.5 -55zM333 -223v157q43 3 58 8t19 16h-77v237h251v-196q0 -114 -54.5 -167t-196.5 -55z" />
    <glyph glyph-name="dagger" unicode="&#x2020;" horiz-adv-x="641" 
d="M414 940v-418h-185v418h-184v190h184v179h185v-179h182v-190h-182z" />
    <glyph glyph-name="daggerdbl" unicode="&#x2021;" horiz-adv-x="661" 
d="M422 695v-173h-183v173h-184v185h184v72h-184v184h184v173h183v-173h184v-184h-184v-72h184v-185h-184z" />
    <glyph glyph-name="bullet" unicode="&#x2022;" horiz-adv-x="684" 
d="M341 276q-106 0 -176.5 70t-70.5 177t70.5 178t175.5 71q103 0 177 -71q73 -70 73 -179q0 -107 -72 -176.5t-177 -69.5z" />
    <glyph glyph-name="ellipsis" unicode="&#x2026;" horiz-adv-x="1079" 
d="M78 0v205h271v-205h-271zM405 0v205h271v-205h-271zM731 0v205h270v-205h-270z" />
    <glyph glyph-name="perthousand" unicode="&#x2030;" horiz-adv-x="2174" 
d="M723 953q0 -160 -93.5 -260t-240.5 -100q-142 0 -238 99q-94 95 -94 261q0 161 93.5 261.5t238.5 100.5q146 0 240 -100.5t94 -261.5zM988 1292h231l-677 -1294h-233zM285 953q0 -92 27.5 -130.5t77.5 -38.5q51 0 79 38t28 131q0 94 -27.5 132t-79.5 38q-50 0 -77.5 -38
t-27.5 -132zM1794 697q145 0 238.5 -100t93.5 -260t-94 -260.5t-238 -100.5q-128 0 -217 78t-110 208q-22 -130 -111.5 -208t-216.5 -78q-146 0 -240.5 100.5t-94.5 261.5q0 160 94.5 259.5t240.5 99.5q127 0 216.5 -77.5t111.5 -207.5q21 130 110 207.5t217 77.5zM1138 167
q51 0 78 38t27 132q0 86 -33 128t-71 42q-39 0 -72.5 -41t-33.5 -128q-1 -94 27 -132.5t78 -38.5zM1792 167q50 0 77 38t27 132q0 87 -33 128.5t-71 41.5q-39 0 -72 -41t-34 -128q0 -95 27.5 -133t78.5 -38z" />
    <glyph glyph-name="guilsinglleft" unicode="&#x2039;" horiz-adv-x="495" 
d="M94 368v157l307 307v-258l-125 -128l125 -125v-260z" />
    <glyph glyph-name="guilsinglright" unicode="&#x203a;" horiz-adv-x="495" 
d="M94 61v260l126 125l-126 128v258l307 -307v-157z" />
    <glyph glyph-name="fraction" unicode="&#x2044;" horiz-adv-x="1003" 
d="M213 0h-229l815 1290h228z" />
    <glyph glyph-name="Euro" unicode="&#x20ac;" horiz-adv-x="1255" 
d="M688 -24q-205 0 -340 120t-182 332h-135v189h112v51h-112v188h133q48 214 183.5 337t341.5 122q222 -1 353.5 -144.5t147.5 -412.5h-239q-12 176 -79.5 253t-193.5 77q-203 0 -263 -232h337v-188h-359v-51h341v-189h-317q62 -226 269 -226q123 0 188.5 74t76.5 257h239
q-17 -272 -149 -414.5t-353 -142.5z" />
    <glyph glyph-name="uni2117" unicode="&#x2117;" horiz-adv-x="1482" 
d="M741 -24q-282 0 -475 190q-194 191 -194 479q0 189 89.5 343t242.5 240t338 86t338 -86t242.5 -240t89.5 -343q0 -142 -52.5 -266.5t-142 -212.5t-213.5 -139t-263 -51zM741 1141q-206 0 -351 -142q-143 -141 -143 -354q0 -105 38.5 -197t105 -157.5t158 -103.5
t193.5 -38q209 0 351.5 142.5t142.5 353.5q0 212 -143 354t-352 142zM772 508h-110v-254h-181v768h291q139 0 224 -67.5t85 -188.5t-84.5 -189.5t-224.5 -68.5zM770 859h-108v-189h108q144 0 144 101q0 88 -144 88z" />
    <glyph glyph-name="trademark" unicode="&#x2122;" horiz-adv-x="1292" 
d="M980 1290h185v-532h-156v215l-84 -215h-121l-88 217v-217h-153v384h-170v-384h-168v384h-176v148h702l113 -292z" />
    <glyph glyph-name="minus" unicode="&#x2212;" horiz-adv-x="1265" 
d="M111 567v144h1046v-144h-1046z" />
    <glyph glyph-name="approxequal" unicode="&#x2248;" horiz-adv-x="1294" 
d="M864 629q-83 0 -231 41q-133 37 -208 37q-60 0 -128 -24t-174 -88v219q165 97 302 97q83 0 233 -40q130 -36 206 -36q62 0 131 24t176 87v-217q-161 -100 -307 -100zM864 367q-83 0 -231 41q-128 37 -208 37q-59 0 -127 -24t-175 -89v217q161 100 302 100q83 0 233 -42
q130 -37 206 -37q61 0 130.5 24t176.5 89v-219q-163 -97 -307 -97z" />
    <glyph glyph-name="notequal" unicode="&#x2260;" horiz-adv-x="1294" 
d="M573 381l-174 -227h-241l172 227h-207v210h366l69 90h-435v210h593l180 233h240l-178 -233h213v-210h-370l-69 -90h439v-210h-598z" />
    <glyph glyph-name="lessequal" unicode="&#x2264;" horiz-adv-x="960" 
d="M881 1245v-239l-521 -241l521 -243v-442h-801v218h771l-771 362v210z" />
    <glyph glyph-name="greaterequal" unicode="&#x2265;" horiz-adv-x="960" 
d="M881 870v-210l-771 -362h771v-218h-801v442l521 243l-521 241v239z" />
    <glyph glyph-name="backslash.cap" horiz-adv-x="667" 
d="M457 0l-476 1290h230l476 -1290h-230z" />
    <glyph glyph-name="periodcentered.cap" horiz-adv-x="374" 
d="M84 543v205h205v-205h-205z" />
    <glyph glyph-name="bullet.cap" horiz-adv-x="684" 
d="M341 399q-106 0 -176.5 70t-70.5 177t70.5 178t175.5 71q103 0 177 -71q73 -70 73 -178q0 -107 -71.5 -177t-177.5 -70z" />
    <glyph glyph-name="exclamdown.cap" horiz-adv-x="391" 
d="M94 1012v278h205v-278h-205zM100 0v380l38 595h118l36 -595v-380h-192z" />
    <glyph glyph-name="questiondown.cap" horiz-adv-x="999" 
d="M383 1012v278h270v-278h-270zM486 -25q-201 0 -315 111.5t-114 289.5q0 63 16.5 116.5t54 104t79.5 91.5t110 98q48 41 64 75t18 108h229q0 -131 -35 -207t-142 -157l-27 -20l-9 -9l-13 -12q-8 -8 -17 -14l-4 -4l-24 -27q-4 -5 -9 -12t-8 -10q-5 -11 -20 -41
q-12 -26 -12 -94t49 -116.5t141 -48.5q95 0 149 61t54 177q0 51 -25 157l248 -14q18 -98 18 -154q0 -205 -124.5 -327t-331.5 -122z" />
    <glyph glyph-name="slash.cap" horiz-adv-x="667" 
d="M211 0h-230l476 1290h230z" />
    <glyph glyph-name="colon.tab" horiz-adv-x="614" 
d="M205 584v270h205v-270h-205zM205 0v270h205v-270h-205z" />
    <glyph glyph-name="comma.tab" horiz-adv-x="614" 
d="M205 -225v159q35 2 47 7t14 17h-61v247h205v-203q0 -112 -45 -168.5t-160 -58.5z" />
    <glyph glyph-name="period.tab" horiz-adv-x="614" 
d="M205 0v205h205v-205h-205z" />
    <glyph glyph-name="semicolon.tab" horiz-adv-x="614" 
d="M205 580v274h205v-274h-205zM205 -225v175q36 3 47.5 9t14.5 23h-62v276h205v-230q0 -125 -44.5 -188t-160.5 -65z" />
    <glyph glyph-name="braceleft.cap" horiz-adv-x="600" 
d="M370 -139q-95 0 -143.5 63t-48.5 175v323q0 69 -6.5 83t-34.5 14h-82v209h82q28 0 34.5 15t6.5 83v321q0 112 48.5 174.5t143.5 62.5h140v-208h-107q-8 0 -10.5 -5.5t-2.5 -21.5v-330q0 -138 -62 -196q62 -57 62 -197v-329q0 -17 2.5 -22.5t10.5 -5.5h107v-208h-140z" />
    <glyph glyph-name="braceright.cap" horiz-adv-x="600" 
d="M463 519q-27 0 -34 -15.5t-7 -81.5v-323q0 -112 -49 -175t-144 -63h-141v208h107q8 0 10.5 5.5t2.5 22.5v329q0 135 68 197q-68 61 -68 196v330q0 16 -2.5 21.5t-10.5 5.5h-107v208h141q95 0 144 -62.5t49 -174.5v-321q0 -68 6.5 -83t34.5 -15h82v-209h-82z" />
    <glyph glyph-name="bracketleft.cap" horiz-adv-x="569" 
d="M135 -139v1523h344v-208h-143v-1107h143v-208h-344z" />
    <glyph glyph-name="bracketright.cap" horiz-adv-x="569" 
d="M88 -139v208h143v1107h-143v208h346v-1523h-346z" />
    <glyph glyph-name="parenleft.cap" horiz-adv-x="591" 
d="M343 -139q-128 156 -195 359q-64 195 -64 403q0 209 67 408.5t192 352.5h245q-149 -191 -212.5 -371.5t-63.5 -389.5t63.5 -389.5t211.5 -372.5h-244z" />
    <glyph glyph-name="parenright.cap" horiz-adv-x="591" 
d="M249 -139h-245q149 191 212.5 371.5t63.5 389.5t-63 389.5t-212 372.5h244q128 -154 195 -358q64 -195 64 -403q0 -209 -67 -408.5t-192 -353.5z" />
    <glyph glyph-name="emdash.cap" horiz-adv-x="2048" 
d="M117 582v125h1814v-125h-1814z" />
    <glyph glyph-name="endash.cap" 
d="M117 582v125h790v-125h-790z" />
    <glyph glyph-name="hyphen.cap" horiz-adv-x="704" 
d="M117 569v152h471v-152h-471z" />
    <glyph glyph-name="guillemotleft.cap" horiz-adv-x="831" 
d="M737 1010v-256l-144 -127l144 -127v-257l-293 254v-254l-350 304v159l350 304v-254zM387 704l-87 -77l87 -77v154z" />
    <glyph glyph-name="guillemotright.cap" horiz-adv-x="831" 
d="M387 1010l350 -304v-159l-350 -304v254l-293 -254v257l144 127l-144 127v256l293 -254v254zM444 550l88 77l-88 77v-154z" />
    <glyph glyph-name="guilsinglleft.cap" horiz-adv-x="495" 
d="M94 548v157l307 307v-257l-126 -128l126 -128v-258z" />
    <glyph glyph-name="guilsinglright.cap" horiz-adv-x="495" 
d="M94 241v258l126 128l-126 128v257l307 -307v-157z" />
    <glyph glyph-name="space.tab" horiz-adv-x="614" 
 />
    <glyph glyph-name="space_dotbelowcomb" 
d="M422 -352v194h178v-194h-178z" />
    <glyph glyph-name="uni00200326" 
d="M420 -104h184v-120q0 -85 -44 -128t-140 -43v291z" />
    <glyph glyph-name="uni00200326.alt" 
d="M604 1065h-184v120q0 85 44 128t140 43v-291z" />
    <glyph glyph-name="at.cap" horiz-adv-x="1556" 
d="M972 967l14 51h228q-57 75 -151.5 117.5t-218.5 42.5q-256 0 -412 -161t-156 -421q0 -218 141 -351.5t356 -133.5q217 0 427 103l80 -158q-231 -136 -516 -136q-145 0 -271.5 47t-221 133t-149 217.5t-54.5 290.5q0 161 56.5 301.5t157 242t246.5 160t316 58.5
q147 0 270 -44.5t207 -123.5t131 -188.5t47 -237.5q0 -243 -112 -380.5t-292 -138.5q-132 -1 -198 95q-62 -66 -149 -85.5t-163.5 3.5t-125.5 74q-55 57 -73.5 149.5t7 200t93.5 194.5q114 146 294 146q114 0 192 -67zM1087 508q-8 -41 -2 -49.5t30 -8.5q78 0 127 75.5
t49 250.5q0 139 -75 239zM895 680q18 78 -9.5 119t-93.5 41q-67 0 -121 -78t-54 -189q0 -64 21 -88.5t66 -24.5q59 0 109.5 45t70.5 130z" />
    <glyph glyph-name="bar.cap" horiz-adv-x="403" 
d="M125 0v1290h154v-1290h-154z" />
    <glyph glyph-name="caron.Slovak" 
d="M527 1020h-132l31 270h217z" />
    <glyph glyph-name="cedilla.alt" horiz-adv-x="1173" 
d="M730 -75q53 -23 73 -73t1.5 -100.5t-66.5 -76.5q-46 -24 -107.5 -31t-140 14t-144.5 74l66 121l22 -16l130 186h168l-65 -83q33 -3 63 -15zM580 -219q43 0 43 11q0 4 -2 5q-28 15 -90 -9q24 -7 49 -7z" />
    <glyph glyph-name="acute.cap" 
d="M500 1384h-171l121 258h265z" />
    <glyph glyph-name="breve.cap" 
d="M512 1378q-237 0 -238 264h179q0 -65 14 -83.5t45 -18.5t45 18.5t14 83.5h179q0 -264 -238 -264z" />
    <glyph glyph-name="caron.cap" 
d="M616 1384h-208l-197 258h199l102 -93l102 93h199z" />
    <glyph glyph-name="circumflex.cap" 
d="M614 1384l-102 93l-102 -93h-199l197 258h208l197 -258h-199z" />
    <glyph glyph-name="dieresis.cap" 
d="M287 1395v192h217v-192h-217zM518 1395v192h217v-192h-217z" />
    <glyph glyph-name="dotaccent.cap" 
d="M422 1395v192h178v-192h-178z" />
    <glyph glyph-name="grave.cap" 
d="M522 1384l-215 258h265l121 -258h-171z" />
    <glyph glyph-name="hungarumlaut.cap" 
d="M611 1384h-172l70 145l-130 -145h-175l127 258h513z" />
    <glyph glyph-name="macron.cap" 
d="M246 1399v129h530v-129h-530z" />
    <glyph glyph-name="ring.cap" 
d="M512 1350q-80 0 -130 49q-50 50 -50 124q0 75 50.5 124t129.5 49t129.5 -49t50.5 -124t-50.5 -124t-129.5 -49zM535 1546q-7 7 -23 7q-30 0 -30 -30q0 -17 6.5 -23.5t23.5 -6.5t23.5 6.5t6.5 23.5q0 16 -7 23z" />
    <glyph glyph-name="tilde.cap" 
d="M635 1376q-77 0 -154 49q-64 40 -81 32.5t-21 -77.5h-168q0 115 46 181.5t132 66.5q76 0 152 -48q57 -35 77 -35q12 0 16.5 12t10.5 67h166q0 -116 -44.5 -182t-131.5 -66z" />
    <glyph glyph-name="_142" horiz-adv-x="1200" 
d="M1157 1013h-1107v129h1107v-129zM1013 766q0 24 -29 47t-68 23q-35 0 -63.5 -16.5t-28.5 -37.5q0 -31 16.5 -49t68.5 -29l47 -10q43 -9 66 -15t52.5 -17t43.5 -24t25 -34t12 -48q2 -74 -64 -119.5t-172 -45.5q-120 0 -183 60t-63 138l128 -2q0 -8 4.5 -20.5t16 -29
t38 -28t62.5 -11.5q43 0 70 15t27 35q0 40 -104 63q-100 21 -164 57q-64 35 -64 111q0 73 65.5 119t166.5 46q104 0 165.5 -53.5t61.5 -124.5h-133zM463 570h-267v-179h-145v550h464v-123h-319v-125h267v-123zM502 458q0 -26 20.5 -45t48.5 -19q30 0 51 18.5t21 45.5
q0 26 -21.5 45.5t-50.5 19.5q-28 0 -48.5 -19.5t-20.5 -45.5zM1154 193h-1107v129h1107v-129z" />
    </font>
</defs>
</svg>
